<svg id="svg" xmlns="http://www.w3.org/2000/svg" viewBox="44.72999954223633 43.70000076293945 521.9200134277344 261.87001037597656" height="261.87001037597656"><path d="M 69.59,74.59 L 69.86,74.06 L 70.63,73.28 L 72.86,71.05 L 74.14,68.5 L 75,66.78 L 75.3,65.55 L 75.89,62.59 L 75.89,61.81 L 75.89,61.27 L 75.89,60.49 L 75.65,60 L 74.58,60.86 L 74.29,61.72 L 73.39,64.21 L 72.4,68.01 L 72.4,70.09 L 72.4,73.89 L 72.4,76.75 L 73.05,80.02 L 73.38,82.88 L 73.38,87.41 L 73.38,88.64 L 73.38,90.93 L 73.38,91.41 L 73.38,91.66 L 72.84,91.66 L 72.6,91.41 L 72.6,90.92" fill="none" stroke="#e69533" stroke-width="2"></path><path d="M 67.64,79.18 L 67.88,79.18 L 69.11,79.49 L 71.73,79.49 L 74.22,79.49 L 76.71,79.49 L 78.8,79.49 L 80.96,79.22 L 81.82,78.93" fill="none" stroke="#e69533" stroke-width="2"></path><path d="M 89.88,63.05 L 89.88,64.45 L 89.88,66.94 L 89.88,73.68 L 89.88,78.86 L 90.18,81.32 L 90.73,82.71 L 91.53,83.77 L 92.01,84.25 L 92.25,84.25 L 93.64,84.25 L 94.75,84.25 L 95.54,83.18" fill="none" stroke="#e69533" stroke-width="2"></path><path d="M 100.25,66.37 L 100.52,65.84 L 101.58,66.37 L 104.12,67.96 L 105.71,70.5 L 107.14,75.15 L 108.64,82.42 L 108.64,85 L 108.64,86.71 L 108.64,87.94 L 108.4,88.18" fill="none" stroke="#e69533" stroke-width="2"></path><path d="M 83.96,132.56 L 83.96,132.32 L 84.2,132.07 L 85.57,130.14 L 86.47,128.05 L 87.36,125.55 L 88.18,124.15 L 88.18,123.04 L 88.18,122.79 L 88.18,122.55 L 87.44,122.05 L 86.95,122.05 L 86.46,122.05 L 85.68,122.05 L 85.43,122.05 L 84.89,122.05 L 84.11,122.56 L 83.31,123.36 L 81.83,124.21 L 81.05,124.99 L 80.74,126.46 L 80.2,127.76 L 80.2,130.25 L 80.2,132.01 L 80.2,134.87 L 80.2,137.36 L 80.2,139.45 L 80.2,142.8 L 80.2,145.25 L 80.2,146.64 L 80.2,148.52 L 80.2,150.24 L 80.2,151.01 L 80.2,152.11 L 79.93,152.89 L 79.69,153.37 L 79.44,153.61 L 78.91,153.88 L 78.41,153.88 L 77.92,153.63 L 77.92,152.4" fill="none" stroke="#e69533" stroke-width="2"></path><path d="M 77.61,138.61 L 77.61,139.47 L 77.61,139.95 L 78.1,140.44 L 78.87,140.68 L 80.63,140.68 L 82.02,140.41 L 84.47,139.48 L 86.23,138.6" fill="none" stroke="#e69533" stroke-width="2"></path><path d="M 95.08,130.41 L 95.08,130.94 L 95.08,133.26 L 95.08,135.75 L 95.08,138.7 L 95.08,143.35 L 95.08,147.56 L 95.08,150.05 L 96.28,151.83 L 97.95,152.69 L 100.41,152.99 L 104.21,151.89 L 108.05,149.39 L 111.15,148.22" fill="none" stroke="#e69533" stroke-width="2"></path><path d="M 113.72,130.47 L 113.72,131.33 L 115.58,135.05 L 116.48,137.13 L 116.78,139.59 L 117.39,141.67 L 117.39,144.16 L 117.39,147.02 L 115.51,148.86 L 113.03,151.95" fill="none" stroke="#e69533" stroke-width="2"></path><path d="M 87.73,189.41 L 87.74,189.17 L 88.6,188.88 L 89.37,188.1 L 90.64,185.6 L 91.21,183.51 L 91.21,181.41 L 90.61,178.71 L 90.36,178.21 L 89.87,178.21 L 89.09,178.21 L 88.52,179.07 L 88.25,180.46 L 87.34,182.55 L 86.48,184.71 L 85.82,187.98 L 85.47,192.92 L 85.47,195.78 L 85.47,200.52 L 85.47,203.95 L 85.47,207.26 L 85.47,211.75 L 85.47,212.86 L 85.47,213.63 L 85.47,213.87 L 84.4,214.67 L 83.09,215.18 L 82.3,215.44 L 81.77,215.44 L 80.45,215.44 L 79.94,214.91 L 79.94,213.14" fill="none" stroke="#e69533" stroke-width="2"></path><path d="M 82.36,203.25 L 82.6,203.01 L 83.66,203.27 L 85.91,203.27 L 88,202.98 L 90.09,202.37 L 91.72,202.04" fill="none" stroke="#e69533" stroke-width="2"></path><path d="M 108.43,185.59 L 108.19,185.59 L 107.41,186.89 L 106.42,190.16 L 106.09,193.02 L 106.09,196.73 L 106.09,200.45 L 106.09,205.1 L 107.13,208.82 L 108.68,211.31 L 111.42,213.15 L 113.51,213.15 L 115.96,213.15 L 118.58,211.18" fill="none" stroke="#e69533" stroke-width="2"></path><path d="M 123.97,189.42 L 123.97,189.18 L 124.75,189.95 L 125.4,192.81 L 127.09,198.78 L 127.78,202.94 L 128.43,206.21 L 128.43,209.47 L 128.43,211.64 L 127.45,213.8 L 126.4,215.11 L 125.54,215.68" fill="none" stroke="#e69533" stroke-width="2"></path><path d="M 87.01,272.66 L 88.64,272.66 L 90.4,272.08 L 91.83,270.64 L 92.61,269.86 L 93.18,267.77 L 93.46,266.04 L 93.46,264.27 L 93.46,262.8 L 93.46,262.02 L 92.97,261.52 L 92.72,261.28 L 92.48,261.28 L 91.98,261.76 L 91.98,262.86 L 91.98,263.93 L 91.98,266.01 L 91.98,268.5 L 92.61,271.98 L 92.94,274.84 L 93.24,278.14 L 93.24,281 L 93.57,284.27 L 93.57,287.13 L 93.57,289.21 L 93.57,291.67 L 93.26,293.67 L 92.77,294.15 L 92.5,294.68 L 92.25,294.68 L 92,294.93 L 91.76,294.93 L 91.27,294.93 L 91.02,294.93 L 90.16,294.68" fill="none" stroke="#e69533" stroke-width="2"></path><path d="M 91.95,280.59 L 91.7,280.83 L 91.95,281.07 L 92.72,281.07 L 93.49,281.07 L 95.21,280.79 L 96.23,280.54 L 97.33,280" fill="none" stroke="#e69533" stroke-width="2"></path><path d="M 110.46,270.22 L 109.73,270.21 L 108.25,271.07 L 107.14,272.46 L 106.52,274.55 L 105.89,277.41 L 105.89,280.27 L 105.89,283.98 L 105.89,287.29 L 106.48,289.38 L 107.54,290.44 L 108.7,291.6 L 109.18,292.09 L 110.29,292.37 L 111.35,292.37 L 114.04,292.37 L 115.8,291.79" fill="none" stroke="#e69533" stroke-width="2"></path><path d="M 124.59,271.82 L 124.59,271.57 L 125.12,271.84 L 126.37,274 L 127.96,276.54 L 128.86,278.63 L 129.86,282.34 L 129.86,285.61 L 129.16,291.85 L 127.27,293.69 L 125.43,295.57" fill="none" stroke="#e69533" stroke-width="2"></path><path d="M 103.07,95.92 L 103.31,95.92 L 103.55,95.93 L 103.55,96.17 L 103.55,96.41 L 103.55,96.65 L 103.55,97.75 L 103.29,98.53 L 102.48,99.59 L 101.55,102.04 L 100.9,104.9 L 100.2,109.11 L 99.5,112.05 L 98.6,115.36 L 97.98,117.45 L 97.45,118.22 L 97.18,119 L 96.93,119 L 96.15,118.48 L 94.96,116.39 L 94.05,114.29 L 93.13,111.83 L 93.13,111.05 L 93.13,110.56 L 92.59,110.29 L 92.83,110.29 L 93.4,112.05 L 93.69,113.77 L 93.99,115.52 L 94.3,117.61 L 94.58,119.94 L 94.58,120.71 L 94.58,121.48 L 95.68,121.73 L 97.77,121.13 L 99.86,120.25 L 102.88,118.07 L 103.98,116.94 L 104.23,116.94 L 104.71,116.45 L 104.71,116.2 L 104.18,115.93 L 102.41,115.66 L 101.63,115.39" fill="none" stroke="#89d185" stroke-width="2"></path><path d="M 103.11,165.02 L 103.11,165.8 L 103.11,169.11 L 102.84,170.5 L 102.26,172.26 L 102.26,173.32 L 102.26,174.1 L 102.26,175.49 L 101.72,176.55 L 101.48,177.32 L 101.48,177.81 L 101.23,178.29 L 100.98,178.29 L 99.18,176.81 L 98.36,175.7 L 96.55,172.38 L 94.59,169.78 L 93.68,167.89 L 93.17,167.11 L 93.41,167.36 L 94.22,168.46 L 95.43,170.23 L 96.57,171.95 L 98.46,175.75 L 99.3,177.14 L 100.48,178.59 L 100.77,179.45 L 101.01,179.94 L 102.11,179.65 L 104.66,178.07 L 106.93,176.14 L 109.42,174.59 L 111.18,174.01 L 111.75,173.14 L 111.99,172.9" fill="none" stroke="#89d185" stroke-width="2"></path><path d="M 109.76,221.8 L 109.51,222.04 L 109.24,223.8 L 108.93,225.89 L 108.93,227.61 L 108.34,229.69 L 107.7,233.49 L 107.06,236.43 L 106.77,238.52 L 105.87,240.61 L 104.88,242.45 L 104.61,243.51 L 104,245.27 L 104,246.04 L 103.75,246.81 L 103.5,247.59 L 103.26,247.83 L 103.26,248.6 L 103.01,248.84 L 102.77,249.09 L 102.5,249.86 L 102.25,250.63 L 101.98,252.02 L 101.73,252.51 L 101.73,252.75 L 101.49,252.75 L 100.57,251.83 L 100.32,250.72 L 99.36,247.85 L 98.53,244.82 L 97.91,243.59 L 97.64,242.27 L 97.64,242.02 L 97.89,242.02 L 99.27,243.76 L 99.27,245.15 L 99.86,247.23 L 99.86,248.3 L 100.43,249.69 L 100.43,250.46 L 100.72,251.56 L 100.96,252.05 L 100.96,252.29 L 101.23,252.82 L 101.23,253.06 L 101.49,253.59 L 102.02,254.13 L 102.51,254.61 L 103.04,254.61 L 105.33,254.61 L 107.05,254.61 L 108.77,254.32 L 110.52,253.48 L 111.91,252.63 L 112.4,252.39 L 112.88,251.89 L 113.39,251.11" fill="none" stroke="#89d185" stroke-width="2"></path><path d="M 146.15,285.7 L 146.15,285.94 L 146.63,285.94 L 148.02,285.94 L 150.52,285.94 L 152.97,285.94 L 155.91,285.65 L 159.3,283.99 L 162.61,283.03 L 164.78,281.14 L 167.27,279.58 L 168.9,278.18 L 170.74,276.34 L 172.64,274.1 L 173.87,271.64 L 175.87,268.24 L 177.23,264.52 L 177.9,260.8 L 178.91,257.07 L 179.24,253.8 L 179.56,248.89 L 179.56,245.62 L 179.56,242.67 L 179.56,240.57 L 179.56,238.85 L 179.56,235.16 L 179.25,232.7 L 178.62,229.83 L 178.06,228.43 L 177.4,226.26 L 174.94,222.82 L 173.32,219.87 L 172.13,217.77 L 170.57,215.6 L 169.23,213.99 L 168.95,213.13 L 168.41,212.86 L 167.92,212.37 L 167.67,212.12 L 166.6,211.59 L 166.07,211.59 L 165,211.32 L 163.6,210.74 L 160.64,210.45 L 159.24,210.45 L 158.46,210.21 L 157.93,209.94 L 157.39,209.94 L 156.28,209.94 L 155.79,209.94 L 155.54,209.94 L 155.3,209.94 L 155.56,209.4 L 158.1,207.47 L 160.96,205.87 L 163.18,203.96 L 164.9,203.1 L 166,201.7 L 166.25,201.46 L 166.49,201.21 L 167.02,200.94 L 166.53,200.94 L 165.46,201.21 L 164.39,201.74 L 162.99,202.57 L 160.73,203.7 L 159.95,204.2 L 158.55,205.02 L 157.44,205.3 L 156.66,205.81 L 156.16,206.05 L 155.38,206.56 L 155.14,206.56 L 154.36,206.83 L 153.82,207.36 L 153.29,207.63 L 152.79,207.87 L 152.55,207.87 L 152.3,208.11 L 152.05,208.35 L 151.81,208.35 L 151.56,208.59 L 151.56,208.84 L 152.36,209.63 L 153.75,210.47 L 156.18,213.23 L 157.75,215.84 L 158.97,217.98 L 159.83,219.7 L 160.11,221.42 L 160.64,222.48 L 160.93,223.59 L 160.93,223.05 L 160.62,219.73 L 160.33,216 L 160.33,213.14 L 160.95,209.33" fill="none" stroke="#89d185" stroke-width="2"></path><path d="M 150.46,190.99 L 151.93,190.69 L 153.04,189.87 L 155.26,187.96 L 158.9,185.09 L 162.2,181.04 L 164.13,178.5 L 165.73,175.55 L 167.34,172.54 L 168,170.37 L 168.91,167.42 L 169.21,164.96 L 169.21,162 L 169.21,160.6 L 169.21,159.2 L 169.21,158.13 L 168.68,157 L 168.14,155.93 L 167.48,154.05 L 166.6,152.28 L 165.12,149.32 L 163.68,147.89 L 162.82,146.16 L 162.3,145.38 L 161.32,144.07 L 160.8,143.29 L 160.55,143.04 L 160.06,142.79 L 159.55,142.01 L 158.07,141.46 L 156.67,140.9 L 155.89,140.63 L 154.82,140.63 L 153.34,140.32 L 152.23,140.03 L 151.74,140.03 L 150.96,140.03 L 149.56,139.46 L 148.16,139.46 L 147.38,139.46 L 145.91,139.46 L 144.51,139.19 L 144.02,139.19 L 143.52,139.19 L 143.28,139.19 L 143.28,138.7 L 145.18,136.46 L 147.32,134.92 L 148.75,133.48 L 150.14,132.64 L 150.63,132.39 L 150.87,132.15 L 150.62,132.15 L 149.55,132.15 L 148.48,132.41 L 146.84,133.23 L 145.05,134.43 L 143.94,134.72 L 142.87,135.52 L 142.09,135.78 L 141.31,136.55 L 140.24,137.09 L 139.46,137.35 L 138.92,137.62 L 138.14,137.86 L 139.32,139.31 L 141.49,140.86 L 143.78,143.48 L 145.62,145.68 L 147.15,147.82 L 147.72,148.93 L 148.21,149.17 L 148.45,149.41 L 148.45,149.16 L 147.67,144.82 L 147.26,138.56 L 147.26,132.14" fill="none" stroke="#89d185" stroke-width="2"></path><path d="M 403.54,124.59 L 404.07,124.59 L 405.83,124.29 L 407.22,124 L 408,124 L 408.77,124 L 410.98,125.31 L 411.5,126.41 L 411.77,128.17 L 411.77,129.89 L 411.77,131.64 L 410.62,133.36 L 408.77,134.88 L 407.32,136.06 L 406.82,136.3 L 406.33,136.3 L 405.22,136.3 L 404.44,136.3 L 402.84,133.76 L 402.18,130.44 L 402.18,126.23 L 402.18,124.46 L 403.43,121.9 L 411.45,121.68 L 411.45,122.78 L 413.19,125.39 L 415.27,126.58 L 418.28,128.09 L 420.77,128.37 L 421.84,128.37 L 421.59,128.61 L 421.05,129.14 L 419.08,129.43 L 418.84,129.43 L 418.34,129.43 L 418.09,129.43 L 417.85,129.18 L 417.6,128.94 L 417.36,128.69 L 417.36,128.45 L 417.36,128.2 L 418.66,127.39 L 419.2,126.86 L 421.81,125.99 L 422.67,125.7" fill="none" stroke="#49ace9" stroke-width="2"></path><path d="M 149.49,122.87 L 149.49,123.4 L 149.98,123.64 L 151.37,123.64 L 152.43,123.64 L 155.37,123.64 L 159.54,122.95 L 162.39,121.98 L 164.93,120.38 L 166.32,119.54 L 168.94,117.24 L 170.1,116.07 L 170.98,114.31 L 171.26,112.91 L 171.59,110.04 L 171.59,107.18 L 171.59,103.45 L 171.59,101.36 L 171.59,99.27 L 171.26,97.09 L 171.26,96.02 L 170.7,94.55 L 170.43,93.48 L 169.59,92.08 L 168.81,91.3 L 167.64,90.13 L 166.84,89.06 L 166.57,88.52 L 166.05,87.74 L 165.8,87.5 L 165.31,87 L 164.53,86.49 L 163.42,85.36 L 162.02,84.51 L 161.24,84 L 160.11,83.17 L 159.33,82.66 L 158.55,82.66 L 157.48,82.39 L 156.08,81.83 L 154.68,81.83 L 152.91,81.21 L 151.84,81.21 L 150.71,80.68 L 149.23,80.68 L 147.84,80.68 L 146.44,80.68 L 145.04,80.68 L 142.58,80.68 L 141.18,80.68 L 139.41,80.68 L 138.3,80.68 L 137.52,80.68 L 137.28,80.68 L 137.03,80.43 L 138.61,78.58 L 142.18,75.35 L 146.02,72.89 L 148.55,70.96 L 149.04,70.47 L 147.56,70.77 L 144.25,72.12 L 141.75,73.05 L 138.88,74.65 L 136.34,75.93 L 134.57,76.81 L 133.13,77.67 L 132.64,77.91 L 131.86,78.16 L 131.37,78.4 L 131.12,78.64 L 131.12,78.88 L 132.04,79.8 L 134.49,80.72 L 136.13,81.7 L 138.66,83.62 L 141.69,85.74 L 142.75,86.27 L 143.23,86.76 L 143.72,87 L 144.23,87.77 L 144.71,88.26 L 144.95,88.5 L 144.95,88.98 L 145.48,89.25 L 144.99,89.25 L 143.14,87.36 L 141.36,85.87 L 139.13,83.63 L 137.55,81.07 L 136.48,80 L 136.19,79.14 L 135.94,78.65 L 135.94,78.16 L 136.43,77.66 L 137.88,76.74" fill="none" stroke="#89d185" stroke-width="2"></path><path d="M 56.18,54.46 L 56.42,54.22 L 56.42,55.98 L 56.42,57.37 L 56.42,60.23 L 56.42,62.31 L 56.42,64.4 L 56.11,66.85 L 55.82,68.57 L 55.82,71.43 L 55.82,73.92 L 55.82,75.68 L 55.82,77.77 L 55.82,78.54 L 55.54,80.26 L 55.54,81.32 L 55.54,82.09 L 55.25,83.73 L 55.25,83.97 L 54.98,85.89 L 54.98,86.95 L 54.98,87.73 L 54.98,87.97 L 54.98,88.21 L 54.98,88.45 L 54.98,89.23 L 54.98,90 L 54.98,90.48 L 54.98,91.55 L 54.98,92.08 L 54.98,92.56 L 54.98,93.05 L 54.73,93.53 L 54.73,94.63 L 54.73,94.88 L 54.73,95.12 L 54.73,95.36 L 57.75,95.63 L 61.55,95.63 L 65.27,95.63 L 68.13,95.63 L 71.44,95.63 L 73.93,95.63 L 77.73,95.63 L 78.79,95.63 L 80.18,95.63 L 81.57,95.63 L 82.67,95.63 L 83.45,95.63 L 84.22,95.63 L 85.32,95.63 L 85.8,95.63 L 86.58,95.63 L 87.88,95.63 L 89.35,95.63 L 90.13,95.63 L 91.23,95.63 L 92,95.63 L 92.77,95.63 L 93.84,95.63 L 95.23,95.63 L 96.86,95.63 L 97.63,95.63 L 99.39,95.63 L 100.45,95.63 L 102.17,95.63 L 103.64,95.63 L 104.41,95.63 L 104.66,95.63 L 105.38,95.63 L 106.16,95.63 L 107.26,95.63 L 108.32,95.63 L 109.71,95.63 L 110.77,95.63 L 111.55,95.63 L 112.32,95.63 L 113.34,95.63 L 114.11,95.63 L 115.5,95.63 L 117.22,95.63 L 118.61,95.63 L 118.85,95.63 L 119.38,95.63 L 121.14,95.63 L 123.63,95.63 L 125.27,95.63 L 125.75,95.63 L 126.52,95.09 L 127.56,90.05 L 127.56,88.82 L 128.23,84.24 L 128.23,82.14 L 128.51,80.42 L 128.82,78.32 L 129.12,76.56 L 129.12,75.16 L 129.43,73.39 L 129.98,71.13 L 129.98,70.35 L 129.98,68.95 L 129.98,68.17 L 129.98,66.77 L 129.98,65.99 L 129.98,64.59 L 129.98,63.81 L 129.98,62.74 L 129.98,61.96 L 129.98,61.43 L 129.98,60.64 L 129.98,59.86 L 129.98,59.37 L 129.98,59.13 L 129.98,58.63 L 129.98,58.14 L 129.98,57.36 L 129.98,56.25 L 129.98,55.76 L 129.98,54.98 L 129.44,54.2 L 129.44,53.95 L 129.2,53.7 L 128.09,53.7 L 126.86,53.7 L 123.9,53.7 L 120.63,53.7 L 118.16,53.7 L 114.85,53.7 L 112.75,53.7 L 109.02,53.7 L 107.79,53.7 L 106.39,53.7 L 104.3,53.7 L 103.19,53.7 L 100.93,53.7 L 99.53,53.7 L 98.46,53.7 L 97.06,53.7 L 95.34,53.99 L 93.61,53.99 L 92.54,53.99 L 89.91,54.54 L 88.14,54.54 L 86.42,54.82 L 84.69,54.82 L 82.93,54.82 L 80.83,55.7 L 78.74,56 L 77.34,56 L 75.17,56.54 L 73.56,56.8 L 72.78,56.8 L 71.3,56.8 L 69.91,56.8 L 68.84,57.07 L 66.74,57.37 L 65.67,57.9 L 64.89,57.9 L 64.11,57.9 L 63.62,57.9 L 62.22,58.19 L 61.44,58.19 L 60.7,58.19 L 60.16,58.19 L 59.92,58.19 L 59.67,58.19 L 60.2,58.19 L 63.06,57.88" fill="none" stroke="#e34e1c" stroke-width="2"></path><path d="M 254.28,153.33 L 254.28,153.57 L 254.28,155.29 L 254.28,158.15 L 254.28,160.64 L 254.28,162.73 L 254.28,164.73 L 254.28,165.21 L 254.28,165.7 L 254.28,166.8 L 254.28,167.86 L 254.28,168.35 L 254.28,169.12 L 254.28,169.36 L 254.28,172.06 L 254.57,173.16 L 254.83,174.55 L 254.56,174.02 L 254.32,173.77 L 253.06,171.92 L 251.77,169.38 L 250.46,165.24 L 250.19,164.46 L 249.86,162.29 L 249.86,160.89 L 249.86,159.13 L 249.86,157.36 L 249.86,155.96 L 250.43,154.56 L 251.27,153.16 L 252.49,151.61 L 253.29,150.54 L 254.71,149.1 L 256.64,147.99 L 257.74,147.41 L 258.8,146.88 L 259.04,146.88 L 259.29,146.88 L 259.77,146.88 L 261.24,147.49 L 261.77,148.88 L 262.09,151.37 L 262.09,154.39 L 262.09,156.15 L 262.09,157.21 L 262.09,158.61 L 262.09,159.38 L 261.31,159.89 L 260.49,160.99 L 260.25,161.23 L 260,161.23 L 259.75,161.23 L 259.51,161.23 L 259.26,161.23 L 258.73,161.23 L 258.48,161.23 L 258.23,160.98 L 257.96,160.45 L 257.72,160.2 L 257.47,159.96 L 257.71,159.96 L 258.94,161.51 L 260.84,164.06 L 262.73,167.86 L 263.04,169.95 L 263.91,172.03 L 264.77,173.75 L 265.58,175.14 L 266.09,175.91 L 266.33,176.16" fill="none" stroke="#49ace9" stroke-width="2"></path><path d="M 267.59,171.06 L 267.84,171.06 L 268.32,171.06 L 268.83,171.84 L 269.07,171.84 L 269.31,171.84 L 269.8,171.84 L 270.04,171.84 L 271.14,171.26 L 272.16,170.23 L 272.16,169.99 L 272.42,169.45 L 272.42,168.96 L 272.42,168.47 L 272.42,168.22 L 272.42,167.98 L 272.42,167.2 L 272.42,166.95 L 271.89,166.17 L 271.11,165.65 L 270.86,165.41 L 270.59,164.87 L 270.1,164.87 L 269.85,165.11 L 269.36,165.36 L 269.36,166.13 L 269.36,167.23 L 269.36,168.95 L 269.64,171.2 L 269.64,171.73 L 269.93,172.83 L 270.44,173.61 L 270.72,174.71 L 271.5,175.21 L 271.74,175.7 L 272.25,176.47 L 272.75,177.25 L 273,177.49 L 273.77,178.26 L 274.54,178.53 L 275.03,178.53 L 276.09,178.53 L 276.86,178.53 L 277.35,178.53 L 277.88,178.26 L 278.36,177.77 L 278.91,176.37 L 279.46,174.11 L 280.12,171.61 L 280.12,168.74 L 280.38,167.34 L 280.87,166.85 L 281.66,165.78 L 282.15,165.78 L 282.92,165.78 L 283.65,165.78 L 283.89,165.78 L 284.66,165.78 L 284.93,166.55 L 284.93,167.04 L 284.39,167.28 L 283.9,167.03 L 282.88,167.03 L 282.63,167.03 L 282.38,167.03 L 281.89,167.03 L 281.4,167.27 L 280.84,168.66 L 280.84,169.77 L 280.84,172.02 L 280.84,173.77 L 281.37,174.84 L 281.61,175.61 L 282.12,176.38 L 282.61,176.87 L 283.38,177.4 L 284.44,177.66 L 285.21,177.93 L 285.99,177.93 L 286.79,178.46 L 287.56,178.46 L 288.86,178.46 L 289.64,178.19 L 290.7,177.12 L 291.23,176.01 L 292.04,174.9 L 292.32,173.5 L 292.59,172.43 L 292.83,171.65 L 293.4,170.54 L 293.4,169.23 L 293.4,168.69 L 293.4,168.93 L 293.4,169.46 L 294.02,171.55 L 294.02,172.65 L 294.61,174.74 L 294.87,175.51 L 295.11,176.29 L 295.62,177.06 L 296.15,177.59 L 296.93,177.59 L 298.03,177.59 L 299.09,177.59 L 299.86,177.59 L 300.93,177.59 L 301.7,177.07 L 302.62,175.91 L 302.88,174.84 L 303.17,173.44 L 303.17,172.12 L 303.17,171.34 L 303.17,170.27 L 303.17,168.79 L 303.17,168.01 L 303.17,169.11 L 303.17,170.21 L 303.17,172.21 L 303.17,172.75 L 303.17,172.99 L 303.17,173.23 L 303.43,173.76 L 303.43,174 L 304.54,175.39 L 305.33,176.19 L 306.39,176.99 L 306.64,177.23 L 307.17,177.23 L 307.41,177.23 L 308.18,177.23 L 308.96,177.23 L 309.73,176.96 L 310.5,176.96 L 311.01,176.18 L 311.79,175.93 L 312.32,175.66 L 313.04,174.93 L 313.53,174.43 L 314.1,173.57 L 314.34,173.08 L 314.89,171.43 L 314.89,170.94 L 315.16,170.16 L 315.16,168.39 L 315.16,167.32 L 315.16,165.56 L 315.16,164.45 L 315.16,163.34 L 314.66,162.85 L 314.42,162.6 L 313.93,162.36 L 313.68,162.36 L 313.43,162.36 L 313.19,162.36 L 312.94,162.36 L 312.45,162.36 L 312.45,163.13 L 312.45,164.6 L 312.45,165.37 L 312.71,166.43 L 312.96,166.92 L 313.2,167.16 L 313.44,167.4 L 313.93,167.64 L 314.41,167.89 L 314.65,167.89 L 314.89,167.89 L 315.38,167.89 L 316.24,167.89 L 316.72,167.89 L 318.11,167.89 L 319.13,167.64 L 319.61,167.39 L 319.86,167.15 L 320.63,166.88 L 321.14,166.1 L 321.38,165.85 L 321.86,165.85 L 321.86,166.38 L 320.79,167.45 L 319.68,168.26 L 318.49,170.34 L 318.22,171.73 L 317.42,172.8 L 317.42,174.43 L 317.42,174.91 L 317.42,175.45 L 317.42,175.69 L 317.68,177.08 L 320.26,177.65 L 321.32,178.18 L 321.57,178.18 L 321.81,178.18 L 322.58,178.18 L 323.36,177.91 L 324.13,177.13 L 325.05,175.67 L 325.84,174.6 L 326.66,173.49 L 326.92,172.71 L 327.45,171.93 L 328.29,170.53 L 328.55,169.46 L 328.84,168.06 L 329.41,166.09 L 329.7,164.98 L 329.7,164.73 L 329.7,163.95 L 329.7,163.71 L 329.45,163.21 L 329.69,163.46 L 330.79,164.85 L 331.32,165.38 L 331.81,165.62 L 332.87,165.89 L 333.38,166.42 L 334.15,166.66 L 334.93,166.93 L 336.64,167.78 L 337.44,168.84 L 338.5,169.91 L 338.99,170.39 L 338.99,172.31 L 338.99,173.7 L 337.92,174.77 L 335.77,176.3 L 332.9,177.89 L 330.44,178.5 L 329.37,178.5 L 328.88,178.5 L 328.34,178.5 L 328.09,178.5 L 327.85,178.25 L 327.85,178.01 L 327.85,177.52 L 328.91,177.25 L 329.97,176.44 L 330.21,176.44" fill="none" stroke="#49ace9" stroke-width="2"></path><path d="M 346.12,165.55 L 346.12,166.04 L 346.12,167.76 L 346.12,168.53 L 346.12,170.29 L 346.12,171.35 L 346.12,173.06 L 346.12,173.3" fill="none" stroke="#49ace9" stroke-width="2"></path><path d="M 343.9,151.27 L 343.9,151.03 L 344.38,151.27 L 345.54,152.43 L 346.03,152.91 L 346.03,153.69 L 346.03,154.79 L 346.03,155.03 L 345.78,155.27 L 345.25,155.27 L 345,155.03" fill="none" stroke="#49ace9" stroke-width="2"></path><path d="M 356.25,167.35 L 357.58,166.01 L 359.3,165.15 L 361.14,164.16 L 362.24,163.88 L 362.48,163.88 L 363.25,163.88 L 364.03,164.14 L 365.13,164.95 L 366.35,167.45 L 366.62,168.84 L 366.62,172.15 L 366.62,173.21 L 365.69,175.38 L 364.29,176.48 L 363.47,177.58 L 362.94,177.84 L 362.2,178.09 L 361.13,178.09 L 360.02,178.09 L 359.24,178.09 L 358.09,176.93 L 357.1,175.09 L 356.18,171.39 L 356.18,170.53 L 356.18,168.23 L 357.44,166.05 L 358.21,165.54 L 359.61,164.98 L 361,164.42 L 361.24,164.42" fill="none" stroke="#49ace9" stroke-width="2"></path><path d="M 376.13,167.58 L 376.38,167.09 L 376.62,167.09 L 377.15,167.09 L 377.63,167.09 L 378.55,168.25 L 378.79,169.02 L 379.04,169.5 L 379.04,170.89 L 379.04,171.96 L 378.21,173.35 L 377.96,173.83 L 377.72,174.32 L 377.47,174.32 L 377.23,174.32 L 376.98,173.54 L 376.98,171.44 L 378.04,170.37 L 379.14,168.97 L 380.25,168.15 L 381.35,167.29 L 382.74,167 L 383.8,166.46 L 385.76,166.18 L 386.25,166.18 L 386.49,166.18 L 388.08,166.44 L 389.24,167.6 L 389.24,168.38 L 389.81,170.09 L 390.1,171.48 L 390.42,173.65 L 390.71,175.37 L 390.97,176.14 L 391.21,176.63 L 391.46,176.87 L 391.7,176.87 L 394.15,176.87 L 397.46,176.87 L 400.77,176.52 L 403.63,175.88" fill="none" stroke="#49ace9" stroke-width="2"></path><path d="M 414.54,153.57 L 415.32,153.57 L 423.12,152.79 L 432.36,151.89 L 440.41,150.99 L 449,149.7 L 451.57,148.96 L 451.32,148.96 L 448.05,148.96 L 445.59,149.27 L 441.41,149.91 L 439.32,150.53 L 438.78,150.53 L 437.3,151.07 L 437.04,151.61 L 436.79,151.61 L 436.54,151.61 L 436.3,151.85 L 436.3,152.71 L 436.3,155.2 L 436.3,158.92 L 436.3,161.37 L 436.3,163.13 L 436.3,164.52 L 436.6,166.28 L 437.09,166.76 L 437.7,168.23 L 437.96,169 L 437.96,169.49 L 438.23,170.02 L 438.23,170.79 L 438.23,172.88 L 438.5,173.41 L 438.25,173.41 L 437.71,173.41 L 437.2,172.63 L 436.71,172.14" fill="none" stroke="#49ace9" stroke-width="2"></path><path d="M 442.27,167.44 L 442.52,167.2 L 443,167.2 L 443.77,166.93 L 444.02,166.93 L 445.08,166.93 L 445.56,166.93 L 446.66,167.21 L 447.17,167.98 L 447.44,168.52 L 447.99,169.91 L 447.99,170.97 L 448.25,171.5 L 448.25,171.98 L 448.25,172.76 L 448.25,173.24 L 448.25,173.48 L 447.76,173.48 L 446.57,171.39 L 445.97,169.29 L 445.97,167.12 L 445.97,166.05 L 445.97,165.27 L 447.42,163.81 L 447.91,163.57 L 448.15,163.57 L 448.68,163.57 L 449.7,163.57 L 450.18,164.05 L 449.93,163.56 L 449.93,163.02" fill="none" stroke="#49ace9" stroke-width="2"></path><path d="M 456.23,169.25 L 457.1,170.07 L 457.87,170.07 L 458.93,170.07 L 460,170.07 L 461.39,170.07 L 462.16,170.07 L 463.22,169.26 L 463.71,168.77 L 464.26,167.37 L 464.52,166.84 L 464.52,166.1 L 464.52,165.61 L 464.52,165.07 L 464.52,164.82 L 464.52,164.33 L 464.03,164.09 L 463.79,164.09 L 463.54,164.09 L 462.76,164.09 L 462.27,164.09 L 461.48,164.35 L 461.24,164.59 L 460.72,165.37 L 460.48,165.61 L 460.48,166.09 L 460.48,166.87 L 460.48,168.26 L 460.48,169.03 L 460.76,171.12 L 461.56,171.91 L 462.13,173.67 L 463.18,175.02 L 463.43,175.02 L 464.82,175.57 L 467.07,175.57 L 469.56,175.57 L 473.27,175.57 L 475.73,174.64 L 477.48,173.75 L 478.59,173.22 L 479.09,172.44 L 479.34,171.95 L 480.11,171.16 L 480.66,169.44 L 480.92,168.37 L 480.92,166.97 L 481.45,166.46 L 481.45,165.96 L 481.45,165.18 L 481.21,164.69 L 480.71,164.2 L 479.93,163.95 L 479.69,163.95 L 479.44,163.95 L 479.2,163.95 L 478.46,163.95 L 478.21,163.95 L 477.1,164.77 L 477.1,165.83 L 477.1,166.89 L 477.1,168.28 L 477.1,169.38 L 477.37,170.77 L 477.88,171.55 L 478.4,172.65 L 479.18,173.16 L 479.95,173.93 L 482.11,173.93 L 484.61,173.93 L 487.87,173.27 L 492.22,171.72" fill="none" stroke="#49ace9" stroke-width="2"></path><path d="M 263.09,202.02 L 263.63,201.49 L 266.49,199.89 L 270.52,196.96 L 274.11,193.37 L 275.29,191.28 L 275.53,190.5 L 275.53,189.43 L 275.53,189.18 L 275.53,188.69 L 275.53,188.44 L 275.04,188.2 L 274.26,188.2 L 273.15,188.2 L 272.37,188.2 L 272.12,188.2 L 271.63,188.2 L 271.38,188.2 L 270.6,188.2 L 270.6,189.54 L 270.6,191.3 L 270.6,193.02 L 270.6,194.73 L 271.19,196.82 L 271.5,198.91 L 272.19,201.52 L 272.49,203.97 L 273.1,206.43 L 273.1,210.51 L 273.1,213 L 273.1,215.46 L 273.1,218.4 L 273.1,219.79 L 273.1,221.51 L 272.86,222.28 L 271.72,223.38 L 270.94,224.16 L 269.63,225.2 L 269.38,225.2 L 269.13,224.95 L 269.13,223.92 L 269.13,223.68" fill="none" stroke="#49ace9" stroke-width="2"></path><path d="M 269.28,209.86 L 269.53,209.62 L 272.47,209.62 L 277.78,209.62 L 286.2,207.71 L 289.51,207.4" fill="none" stroke="#49ace9" stroke-width="2"></path><path d="M 293.41,205.63 L 293.41,205.39 L 293.66,205.14 L 294.14,204.9 L 296.06,204.9 L 297.13,205.16 L 298.57,206.35 L 299.35,207.12 L 299.83,207.61 L 300.14,209.36 L 300.14,211 L 300.14,212.06 L 300.14,213.93 L 299.36,214.71 L 297.9,215.89 L 297.12,216.16 L 296.63,216.4 L 296.13,216.4 L 295.35,216.4 L 293.95,216.4 L 293.17,216.4 L 292.39,215.86 L 291.07,214.55 L 290.5,212.78 L 290.23,211.71 L 290.23,210.31 L 290.23,208.91 L 291.14,207.13 L 293.45,204.88 L 295.62,203.32 L 296.43,202.21 L 296.67,202.21 L 296.67,202.98 L 296.67,204.04 L 296.67,205.14 L 297.16,205.39" fill="none" stroke="#49ace9" stroke-width="2"></path><path d="M 301.65,205.67 L 301.89,205.67 L 302.13,205.67 L 303.52,205.67 L 305.61,205.67 L 307.98,207.18 L 309.43,208.63 L 310.2,209.41 L 311.04,210.8 L 311.04,211.86 L 311.04,213.58 L 311.04,214.68 L 311.04,216.15 L 310.79,217.16 L 310.52,217.7 L 310.28,217.7 L 309.74,217.16 L 308.67,216.09 L 308.02,212.77 L 308.02,208.27 L 308.63,205.81 L 308.89,205.03 L 309.14,204.78 L 309.91,204.78 L 310.93,204.78 L 311.99,204.78 L 312.52,204.78 L 313.05,205.05 L 312.8,205.05 L 312.8,204.8 L 312.54,204.02 L 312.29,203.77 L 312.04,203.28" fill="none" stroke="#49ace9" stroke-width="2"></path><path d="M 350.8,203.67 L 350.55,203.67 L 349.78,203.67 L 348.75,203.67 L 347.68,204.73 L 347.68,204.98 L 347.68,205.75 L 347.68,206.85 L 347.68,208.24 L 347.68,209.63 L 347.68,210.7 L 348.25,211.8 L 349.35,212.61 L 349.59,212.85 L 349.84,212.85 L 350.08,213.09 L 350.61,213.09 L 351.38,213.09 L 352.4,212.07 L 352.66,210.3 L 352.66,208.54 L 352.66,207.75 L 352.66,206.36 L 352.66,205.57 L 352.66,205.04 L 352.66,204.79 L 353.2,205.57 L 354.5,208.51 L 355.07,210.27 L 356.25,212.35 L 357.03,213.13 L 357.51,213.61 L 358.61,213.89 L 359.39,213.89 L 360.16,213.89 L 361.22,213.36 L 362,212.58 L 363.1,210.64 L 363.1,208.88 L 363.1,206.01 L 363.1,203.55 L 363.1,201.05 L 362.11,198.18 L 361.55,196.79 L 361.25,195.02 L 360.98,194.24 L 360.73,193.75 L 360.97,193.99 L 361.63,196.48 L 361.93,198.93 L 361.93,202.65 L 364.26,206.61 L 365.44,208.78 L 365.75,210.25 L 366.23,210.73 L 366.47,210.73 L 367.04,209.87 L 368.21,208.06 L 369.11,205.97 L 369.98,204.2 L 370.78,203.13 L 371.53,202.11 L 372.63,202.39 L 373.7,203.19 L 375.09,204.29 L 375.88,205.35 L 375.88,206.13 L 376.54,208.82 L 376.54,210.91 L 376.54,211.97 L 375.63,214.05 L 374.82,215.12 L 374.04,215.63 L 372.64,216.18 L 372.15,216.18 L 370.51,216.18 L 369.11,215.6 L 366.04,213.55 L 365.19,212.16 L 364.68,211.38 L 364.41,210.59 L 364.41,209.81 L 364.89,209.03 L 365.38,208.79 L 365.86,208.54 L 366.1,208.54" fill="none" stroke="#49ace9" stroke-width="2"></path><path d="M 385.92,202.45 L 385.93,202.21 L 385.14,202.21 L 384.04,202.74 L 383.79,202.74 L 382.97,203.84 L 382.23,204.57 L 381.98,205.05 L 381.98,207.14 L 381.98,208.89 L 382.6,210.36 L 383.15,211.75 L 384.21,212.82 L 385.48,215.31 L 385.98,216.08 L 387,217.1 L 387.24,217.34 L 387.48,217.58 L 387.73,217.82 L 388.21,217.82 L 388.98,217.82 L 389.47,217.82 L 389.71,217.82 L 389.95,217.82 L 390.44,217.82 L 390.92,217.33 L 391.16,216.84 L 391.71,215.36 L 391.98,214.29 L 391.98,212.89 L 391.98,210.27 L 391.42,208.87 L 391.13,207.47 L 390.59,206.69 L 390.08,205.91 L 389.56,205.13 L 389.07,204.63 L 388.27,203.56 L 387.77,203.07 L 387.28,202.58 L 387.04,202.33 L 386.79,202.33 L 386.01,202.33 L 385.76,202.33 L 385.52,202.57" fill="none" stroke="#49ace9" stroke-width="2"></path><path d="M 394.49,206.11 L 394.98,205.86 L 396.37,206.15 L 397.86,207.93 L 399.78,210.46 L 400.96,211.91 L 401.82,213.38 L 402.35,214.15 L 402.35,213.91 L 402.35,213.04 L 402.96,210.58 L 403.57,207.27 L 403.57,205.5 L 403.57,205.01 L 403.57,204.23 L 403.33,203.98 L 403.08,204.46" fill="none" stroke="#49ace9" stroke-width="2"></path><path d="M 406.86,209.27 L 407.11,209.27 L 408.86,209.27 L 410.58,209.27 L 412.3,208.41 L 413.77,207.86 L 414.54,207.07 L 415.05,206.29 L 415.32,205.51 L 415.87,203.58 L 415.87,203.09 L 415.87,202.3 L 415.87,201.44 L 415.87,201.2 L 415.33,201.2 L 415.09,201.2 L 414.3,201.2 L 414.06,201.2 L 413.28,201.2 L 413.03,201.2 L 412.25,201.97 L 412,202.45 L 411.73,203.23 L 411.45,204.86 L 411.18,205.63 L 411.18,206.73 L 411.18,207.84 L 411.18,208.9 L 411.18,210 L 411.18,211.39 L 411.44,212.45 L 412.26,213.84 L 413.32,214.64 L 414.09,215.41 L 415.2,216.54 L 416.83,216.8 L 418.22,216.8 L 420.38,216.8 L 422.14,216.8 L 423.53,216.8 L 424.69,215.88 L 424.93,215.64" fill="none" stroke="#49ace9" stroke-width="2"></path><path d="M 444.76,208.7 L 444.73,209.48 L 445.5,209.48 L 446.89,209.48 L 448.29,209.48 L 448.53,209.48 L 449.83,208.43 L 450.32,207.93 L 450.58,207.4 L 450.87,206.04 L 450.87,205.55 L 450.87,205.06 L 450.62,204.28 L 450.38,204.03 L 449.88,203.54 L 449.64,203.54 L 449.14,203.54 L 448.04,203.54 L 447.25,203.54 L 446.47,203.54 L 445.98,203.54 L 444.63,204.11 L 444.36,204.64 L 443.25,205.45 L 442.71,205.98 L 442.18,207.05 L 441.91,207.82 L 441.91,208.35 L 441.64,209.41 L 441.64,210.72 L 441.64,212.11 L 442.55,213.56 L 443.41,215.03 L 444.51,215.84 L 445.67,217 L 447.06,217.55 L 449.64,217.84 L 451.73,217.84 L 453.12,217.84 L 453.98,217.84 L 454.22,217.59 L 454.22,217.05 L 453.68,216.79" fill="none" stroke="#49ace9" stroke-width="2"></path><path d="M 454.77,206.31 L 455.01,206.07 L 456.17,207.23 L 457.31,208.98 L 458.82,210.82 L 460.96,213.62 L 461.45,214.1 L 461.69,214.34 L 461.69,214.1 L 461.98,211.14 L 462.26,209.05 L 462.53,207.28 L 462.53,206.5 L 462.79,205.43 L 462.79,204.94 L 462.79,204.69 L 462.26,204.69 L 461.45,205.49 L 460.05,206.59 L 458.35,208.28 L 457.55,209.34 L 456.68,210.81 L 456.19,211.3 L 455.95,211.78 L 455.95,212.02 L 455.7,212.27 L 455.18,213.57 L 455.43,213.57 L 456.53,212.75 L 458.82,211.6 L 459.06,211.6" fill="none" stroke="#49ace9" stroke-width="2"></path><path d="M 473.78,206.27 L 472.96,205.17 L 472.47,204.68 L 471.4,204.41 L 470.62,203.63 L 469.84,204.16 L 469.32,204.93 L 469.05,206.69 L 469.05,208.77 L 469.05,210.16 L 469.05,211.63 L 469.05,212.41 L 469.32,213.18 L 469.32,213.42 L 469.56,213.66 L 469.8,213.66 L 470.82,212.88 L 471.92,212.31 L 472.69,211.79 L 472.69,211.55 L 473.18,210.52 L 473.44,209.74 L 473.44,209.25 L 473.44,207.85 L 473.44,207.6 L 473.68,207.36 L 473.93,207.36 L 474.23,209.11 L 475.07,210.5 L 475.98,212.67 L 477.09,214.06 L 477.59,214.83 L 477.84,215.07 L 478.32,215.07 L 479.09,215.07 L 479.63,215.07 L 480.11,215.07 L 481.45,214.83 L 481.7,214.58" fill="none" stroke="#49ace9" stroke-width="2"></path><path d="M 482.9,206.46 L 483.17,205.93 L 483.94,205.93 L 485.86,205.93 L 487.25,206.19 L 488.07,207.05 L 488.86,208.11 L 489.39,209.21 L 489.39,211.14 L 489.39,212.2 L 489.39,212.44 L 489.39,212.93 L 489.39,213.17 L 489.39,213.41 L 488.28,212.59 L 488.01,210.82 L 488.01,208.2 L 488.01,207.13 L 488.54,206.02 L 489.31,205.23 L 490.38,204.43 L 490.88,203.89 L 491.66,203.38 L 492.43,203.38 L 493.2,203.38 L 493.69,203.38 L 494.46,203.38 L 494.97,204.15 L 494.97,205.54 L 494.97,206.93 L 494.97,208 L 494.97,208.77 L 494.68,209.63 L 494.14,210.14 L 493.65,210.14 L 493.65,209.36 L 493.65,206.73 L 493.65,205.66 L 494.43,204.88 L 494.67,204.38 L 494.93,203.85 L 495.42,203.36 L 495.66,203.36 L 495.9,203.36 L 496.43,203.36 L 497.21,203.36 L 497.45,203.36 L 498.51,203.89 L 498.75,204.66 L 499.02,205.43 L 499.02,206.54 L 499.02,207.93 L 499.02,209.03 L 499.02,209.8 L 499.02,210.04 L 499.02,210.29 L 499.26,210.53 L 500.12,210.53 L 501.88,210.53 L 502.65,210.53" fill="none" stroke="#49ace9" stroke-width="2"></path><path d="M 508.64,202.85 L 508.39,202.86 L 508.39,203.63 L 508.39,205.35 L 508.39,207.11 L 508.39,212.05 L 508.39,216.21 L 508.39,219.93 L 508.39,223.64 L 508.39,226.91 L 508.39,228.99 L 508.39,230.71 L 508.39,232.59 L 508.39,234.22 L 508.39,234.46 L 507.88,233.93 L 507.88,231.06 L 507.55,228.19 L 507.55,225.69 L 507.55,223.06" fill="none" stroke="#49ace9" stroke-width="2"></path><path d="M 506.81,208.88 L 506.81,208.11 L 507.34,207 L 508.4,205.93 L 510.71,204.45 L 511.48,203.91 L 511.97,203.66 L 512.21,203.42 L 512.98,203.68 L 514.37,205.42 L 514.37,206.52 L 514.37,208.28 L 514.37,209.34 L 514.37,210.44 L 513.51,211.87 L 512.7,212.93 L 512.21,213.42 L 511.35,213.99 L 510.24,214.85 L 509.46,215.11 L 508.06,215.11 L 507.57,215.11 L 507.07,215.11 L 506.83,215.11 L 506.58,214.87 L 506.58,214.62 L 506.58,214.38 L 507.07,214.13 L 507.31,214.13" fill="none" stroke="#49ace9" stroke-width="2"></path><path d="M 516.32,216.27 L 516.57,216.27 L 517.71,214.5 L 519.14,213.06 L 521,209.33 L 521.88,207.57 L 522.45,205.47 L 522.45,203.38 L 522.45,201.29 L 522.45,199.89 L 522.45,196.93 L 522.45,195.16 L 522.45,194.09 L 522.45,192.7 L 522.45,192.16 L 522.2,191.67 L 521.93,191.13 L 521.44,191.13 L 520.95,191.13 L 520.16,191.4 L 519.38,192.17 L 518.6,192.68 L 518.6,193.78 L 518.09,194.55 L 517.84,195.04 L 517.53,196.51 L 517.26,197.28 L 516.93,199.16 L 516.93,200.22 L 516.93,201.32 L 516.93,202.63 L 516.93,203.73 L 516.93,203.97 L 517.46,205.89 L 518,206.95 L 518.24,207.44 L 519.34,208.83 L 519.34,209.31 L 519.85,210.09 L 520.11,210.86 L 520.36,211.34 L 520.86,212.12 L 521.15,213.22 L 521.88,213.95 L 522.45,215.34 L 523.22,216.09 L 523.46,216.33 L 523.95,216.81 L 524.45,217.59 L 524.94,218.07 L 525.42,218.31 L 526.2,218.58 L 526.68,218.82 L 528.02,218.82 L 529.13,219.11 L 529.66,219.11 L 530.43,219.11 L 531.2,219.11 L 532.3,218.86 L 532.79,218.61 L 533.32,218.34 L 533.56,218.1 L 534.34,216.78 L 534.82,216.29 L 535.06,216.04 L 535.35,215.18 L 535.59,214.4 L 535.59,213.86 L 535.59,212.75 L 535.59,212.26 L 535.59,211.77 L 535.59,210.99 L 535.59,210.45 L 535.34,210.21 L 535.1,209.96 L 534.85,209.71 L 534.36,209.71 L 533.87,209.71 L 533.38,209.71 L 532.59,209.71 L 532.06,209.71 L 531.57,209.71 L 531.32,209.96 L 531.05,210.49 L 530.27,211.02 L 529.78,211.5 L 529.29,211.99 L 528.77,212.76 L 528.28,213.25 L 527.74,213.75 L 527.74,214 L 527.5,214.48 L 527.5,215.01 L 527.5,215.5 L 527.5,215.74 L 527.74,216.22 L 527.98,216.71 L 528.25,217.24 L 529.04,218.3 L 529.82,218.3 L 530.88,218.57 L 532.27,218.57 L 533.57,218.57 L 534.96,218.3 L 536.07,217.72 L 537.17,217.15 L 537.94,216.63 L 538.47,216.36 L 539.25,215.85 L 540.02,215.58 L 538.99,216.09 L 538.75,216.33" fill="none" stroke="#49ace9" stroke-width="2"></path><path d="M 553.75,212.55 L 554.57,211.42 L 556.65,211.42" fill="none" stroke="#49ace9" stroke-width="2"></path></svg>