<svg id="svg" xmlns="http://www.w3.org/2000/svg" viewBox="-5.029999732971191 31.439998626708984 653.52001953125 266.4700012207031" height="266.4700012207031"><path d="M 116.92,69.6 L 117.16,69.36 L 119.33,68.43 L 121.55,66.53 L 122.33,65.75 L 123.59,63.57 L 124.2,61.11 L 124.51,59.02 L 124.51,57.25 L 124.51,56.47 L 124.51,55.4 L 124.51,55.15 L 124.26,54.91 L 124.02,54.66 L 123.21,55.46 L 122.61,57.54 L 122,59.3 L 122,60.69 L 122,62.78 L 122,64.86 L 122,66.95 L 122,68.67 L 122,71.12 L 122.34,73.73 L 122.34,76.23 L 122.34,79.49 L 122.34,82.35 L 122.34,84.84 L 122.34,86.93 L 122.09,87.41 L 122.09,87.66 L 121.31,87.9 L 120.53,87.12 L 120.2,85.23 L 119.63,83.47 L 119.63,83.22" fill="none" stroke="#e69533" stroke-width="2"></path><path d="M 118.59,74.31 L 118.84,74.07 L 119.08,74.07 L 119.32,74.31 L 119.57,74.31 L 120.67,74.31 L 122.39,74.31 L 125.33,72.67 L 126.63,71.89" fill="none" stroke="#e69533" stroke-width="2"></path><path d="M 138.84,59.46 L 138.84,59.22 L 138.31,59.22 L 137.45,59.79 L 136.91,61.18 L 136.91,63.27 L 136.91,66.98 L 136.91,70.29 L 137.87,73.15 L 139.46,76.01 L 140.3,77.4 L 141.4,78.79 L 141.88,78.79 L 142.98,78.79 L 143.47,78.79" fill="none" stroke="#e69533" stroke-width="2"></path><path d="M 151.54,58.34 L 151.78,58.09 L 152.32,57.82 L 153.13,56.96 L 153.9,56.45 L 154.14,56.45 L 154.39,56.45 L 155.49,57.02 L 155.73,57.5 L 156.26,58.56 L 156.26,60.28 L 156.26,60.77 L 156.26,61.01 L 156.26,62.23 L 156.26,62.72 L 156.02,62.96 L 155.77,63.2 L 156.01,63.2 L 156.79,63.2 L 157.56,63.2 L 158.33,63.2 L 158.82,63.2 L 159.06,63.2 L 159.59,63.2 L 160.63,64.27 L 160.63,64.8 L 160.63,66.19 L 160.63,69.54 L 160.63,70.93 L 160.63,71.46 L 160.63,72.85 L 160.14,73.34 L 159.6,73.6 L 159.36,73.6 L 159.11,73.6 L 158.04,73.6 L 157.55,73.36 L 157.55,73.11 L 156.77,72.59 L 156.77,72.06 L 156.77,71.81 L 156.77,71.57" fill="none" stroke="#e69533" stroke-width="2"></path><path d="M 171.05,70.98 L 171.3,70.98 L 171.54,72.74 L 171.54,73.27 L 170.7,74.66 L 169.91,75.43 L 169.91,75.19 L 169.91,74.65" fill="none" stroke="#e69533" stroke-width="2"></path><path d="M 176.41,61.92 L 176.41,61.39 L 177.51,60.85 L 178.96,59.66 L 180.68,58.8 L 182.84,57.54 L 183.09,57.54 L 183.57,57.05 L 183.81,57.05 L 184.59,57.05 L 185.07,57.05 L 185.58,57.82 L 186.11,58.89 L 186.11,60.28 L 186.11,61.05 L 186.11,61.58 L 186.11,62.36 L 185.86,63.08 L 185.62,63.32 L 185.37,63.57 L 185.61,63.57 L 185.86,63.32 L 188.55,62.78 L 188.79,62.78 L 189.57,62.78 L 189.81,62.78 L 190.05,62.78 L 190.54,63.02 L 190.78,63.51 L 190.78,64.9 L 190.78,66.29 L 190.78,68.01 L 190.78,68.78 L 189.93,70.54 L 189.15,71.31 L 188.64,72.09 L 188.39,72.33 L 187.04,72.86 L 186.79,72.86 L 186.01,72.86 L 185.76,72.86 L 185.52,72.86 L 185.27,72.86 L 185.02,72.86 L 185.02,72.61" fill="none" stroke="#e69533" stroke-width="2"></path><path d="M 195.95,51.77 L 195.96,51.52 L 197.71,51.52 L 200.33,53.81 L 203.15,56.96 L 204.78,60.23 L 205.74,63.09 L 206.06,65.58 L 206.06,68.89 L 205.18,70.64 L 203,72.24 L 201.15,73.48 L 200.66,73.48 L 200.41,73.48 L 199.92,73.48 L 199.39,73.48" fill="none" stroke="#e69533" stroke-width="2"></path><path d="M 176.46,82.7 L 176.21,82.71 L 175.29,83.63 L 172.65,88.57 L 168.74,93.51 L 164.32,99.15 L 159.9,104.73 L 155.6,109.43 L 153.63,112.37 L 153.07,113.76 L 152.83,114 L 152.83,112.36 L 152.83,111.49 L 153.4,109.77 L 153.99,106.81 L 154.31,104.93 L 154.31,104.68 L 154.31,104.43 L 154.31,105.66 L 153.7,108.15 L 152.85,109.91 L 152.29,111.54 L 152.29,112.03 L 152.29,112.27 L 152.29,112.51 L 153.36,112.51 L 155.07,112.22 L 156.83,111.91 L 157.93,111.63 L 158.18,111.38 L 158.42,111.13" fill="none" stroke="#e69533" stroke-width="2"></path><path d="M 124.55,120.8 L 125.03,120.8 L 125.27,120.8 L 125.54,121.33 L 126.02,120.84 L 126.8,120.05 L 127.61,118.95 L 128.12,118.16 L 128.38,117.63 L 128.91,117.11 L 128.91,116.33 L 128.91,115.84 L 128.91,115.06 L 128.91,113.95 L 128.64,113.41 L 128.64,113.17 L 128.4,112.92 L 127.91,113.16 L 127.62,114.55 L 127.62,115.95 L 127.62,117.41 L 127.62,119.5 L 127.62,122.45 L 127.62,122.98 L 127.62,125.06 L 127.62,127.68 L 127.62,128.74 L 126.96,130.38 L 126.71,131.68 L 126.1,132.91 L 126.1,133.15 L 125.85,133.63 L 125.36,133.39 L 125.07,132.28 L 124.78,130.88 L 124.78,130.02" fill="none" stroke="#e69533" stroke-width="2"></path><path d="M 124.24,125.1 L 124.49,125.1 L 125.26,125.61 L 126.36,125.61 L 127.22,125.61 L 127.71,125.61 L 127.95,125.61 L 128.72,125.61 L 128.96,125.61 L 129.74,125.09 L 131.52,124.17 L 131.76,124.17" fill="none" stroke="#e69533" stroke-width="2"></path><path d="M 140.42,116.89 L 139.32,117.71 L 138.24,119.3 L 137.36,121.06 L 137.03,123.92 L 137.03,127.72 L 137.03,131.93 L 137.03,135.23 L 137.29,136.99 L 138.15,138.71 L 138.66,139.24 L 139.72,139.24 L 140.78,139.24 L 142.95,139.24 L 144.66,138.38" fill="none" stroke="#e69533" stroke-width="2"></path><path d="M 153.75,124.14 L 154.23,124.09 L 154.74,124.86 L 154.98,126.33 L 154.98,127.72 L 154.98,129.11 L 154.98,130.5 L 154.45,131.57 L 153.67,132.34 L 153.18,132.82 L 152.91,133.36 L 152.37,133.62 L 152.9,133.62 L 155.36,133.62 L 159.52,133.62 L 162.83,133.62 L 164.22,133.62 L 164.22,133.38 L 163.97,133.13" fill="none" stroke="#e69533" stroke-width="2"></path><path d="M 172.19,129.49 L 172.43,129.74 L 172.43,130.51 L 172.43,132.6 L 172.43,133.99 L 171.89,135.38 L 171.05,136.77 L 170.27,137.28 L 170.02,137.28" fill="none" stroke="#e69533" stroke-width="2"></path><path d="M 181.09,126.69 L 181.09,126.45 L 181.86,125.93 L 182.35,125.68 L 182.83,125.44 L 183.32,125.44 L 183.85,125.17 L 184.09,125.17 L 184.86,125.7 L 184.86,127.46 L 184.86,128.85 L 184.86,129.95 L 184.33,131.34 L 183.52,132.14 L 183.28,132.14 L 183.03,132.38 L 182.54,132.62 L 183.07,132.35 L 183.87,131.82 L 184.97,131.28 L 185.74,131.28 L 186.52,131.28 L 187.02,131.81 L 187.8,132.32 L 188.28,132.8 L 188.28,134.27 L 188.28,135.38 L 187.3,138.32 L 184.75,139.91 L 183.64,140.72 L 182.54,141.01 L 182.04,141.01 L 181.55,141.01 L 181.3,141.01 L 180.28,140.49 L 180.28,139.96 L 180.28,139.71 L 180.81,138.93 L 181.05,138.68" fill="none" stroke="#e69533" stroke-width="2"></path><path d="M 193.56,118.68 L 193.81,118.44 L 194.05,118.44 L 195.52,120.23 L 196.63,121.63 L 198.36,125.79 L 199.29,128.65 L 199.86,131.59 L 199.86,134.45 L 197.94,136.45 L 194.89,138.82 L 191.16,139.14 L 189.93,139.14" fill="none" stroke="#e69533" stroke-width="2"></path><path d="M 162.17,154.73 L 161.93,154.74 L 160.09,156.57 L 157.08,158.53 L 154.25,162.37 L 151.09,165.52 L 148.72,168.56 L 147.57,170.28 L 145.72,172.12 L 144.86,172.93 L 144.34,173.71 L 144.1,173.95 L 143.85,173.7 L 143.85,172.3 L 143.85,169.8 L 144.46,166.94 L 145.04,165.17 L 145.57,164.1 L 145.57,163.86 L 145.57,164.92 L 144.99,166.68 L 144.06,168.84 L 143.16,170.93 L 142.89,171.99 L 142.62,173.38 L 142.35,174.44 L 142.35,174.68 L 142.88,174.68 L 145.33,174.68 L 149.05,174.68 L 151.91,174.68 L 153.01,174.68 L 153.01,174.44 L 153.01,174.19" fill="none" stroke="#e69533" stroke-width="2"></path><path d="M 125.45,191.37 L 125.99,191.37 L 126.52,191.1 L 127.83,190.11 L 130.24,187.04 L 131.42,184.95 L 131.69,184.41 L 132.26,182.44 L 132.26,181.95 L 132.26,181.16 L 132.26,180.92 L 132.26,180.67 L 132.26,180.14 L 131.77,180.13 L 130.7,180.66 L 129.88,181.77 L 129.59,182.87 L 129.05,183.97 L 129.05,186.05 L 128.78,187.81 L 128.2,189.53 L 128.2,191.62 L 128.2,193.38 L 128.2,194.77 L 128.2,196.48 L 128.2,198.57 L 128.2,199.67 L 127.59,201.43 L 127.34,202.53 L 127.34,203.92 L 127.05,205.02 L 126.8,206.13 L 126.8,206.37 L 126.8,205.83 L 126.8,205.59 L 126.8,203.32 L 126.8,202.25 L 126.54,201.72" fill="none" stroke="#e69533" stroke-width="2"></path><path d="M 126.02,195.18 L 126.02,194.94 L 127.12,194.65 L 130.39,193.66 L 132.02,193.66 L 135.98,193.29 L 136.76,193.29 L 137,193.05 L 137.24,192.8" fill="none" stroke="#e69533" stroke-width="2"></path><path d="M 154.69,183.56 L 154.16,183.83 L 153.91,184.07 L 152.8,184.88 L 151.59,186.66 L 149.95,189.6 L 148.96,192.54 L 148.96,195.04 L 148.68,197.12 L 148.68,199.21 L 148.68,200.6 L 148.98,203.05 L 149.75,203.82 L 150.82,204.89 L 151.32,205.66 L 151.81,205.66 L 152.34,205.66 L 152.58,205.66" fill="none" stroke="#e69533" stroke-width="2"></path><path d="M 162.38,186.44 L 162.38,186.68 L 162.93,188.07 L 164.16,190.52 L 164.8,193.83 L 165.46,196.69 L 165.46,198.78 L 165.99,199.29 L 165.99,199.82 L 166.23,199.82" fill="none" stroke="#e69533" stroke-width="2"></path><path d="M 180,199.25 L 180,199 L 180,198.76 L 180,200.15 L 179.14,201.87 L 178.32,202.97 L 177.54,203.74 L 177.29,203.74 L 177.05,203.74 L 176.55,203.74" fill="none" stroke="#e69533" stroke-width="2"></path><path d="M 187.36,184.59 L 187.36,184.34 L 188.14,183.83 L 188.62,183.58 L 188.86,183.58 L 189.35,183.82 L 189.35,184.93 L 189.35,185.7 L 189.35,186.47 L 189.35,187.57 L 189.35,188.35 L 188.86,188.83 L 188.86,189.07 L 188.86,189.61 L 188.61,190.09 L 188.36,190.33 L 188.12,190.57 L 188.12,190.82 L 188.6,190.82 L 189.66,190.82 L 191.75,191.1 L 193.14,191.39 L 193.65,192.16 L 194.71,192.96 L 196.1,193.79 L 196.63,194.86 L 196.9,195.92 L 196.9,197.31 L 196.9,198.08 L 196.63,199.84 L 196.14,200.32 L 195.36,200.83 L 195.11,200.83 L 194.62,200.83 L 194.13,200.83 L 193.63,200.83 L 193.14,200.59 L 192.89,200.34 L 192.65,200.09 L 192.4,199.85 L 192.4,199.31 L 192.93,199.04 L 193.46,198.77" fill="none" stroke="#e69533" stroke-width="2"></path><path d="M 202.28,179.59 L 202.77,180.07 L 204.38,183.07 L 206.34,185.69 L 207.31,188.96 L 207.96,192.22 L 207.96,194.68 L 207.96,196.76 L 206.73,198.91 L 205.15,200.42 L 203.69,201.34 L 201.96,201.34 L 200.2,201.34 L 199.66,201.34" fill="none" stroke="#e69533" stroke-width="2"></path><path d="M 185.73,187.27 L 185.73,187.02 L 185.73,186.77 L 186,185.38 L 186.24,184.88 L 187.04,183.81 L 187.28,183.57 L 188.3,182.8 L 188.78,182.8 L 189.55,182.8 L 189.8,182.8 L 190.04,182.8 L 190.28,182.8 L 190.52,182.8 L 190.77,183.05 L 190.77,184.15 L 190.77,184.39" fill="none" stroke="#e69533" stroke-width="2"></path><path d="M 164.22,216.11 L 164.22,217.87 L 163.95,219.26 L 163.33,220.49 L 161.77,224.57 L 159.39,227.94 L 158.7,230.02 L 155.63,235.47 L 154.4,237.96 L 153.86,238.5 L 153.08,239.27 L 152.79,240.13 L 151.66,241.23 L 150.55,242.04 L 149.75,242.84 L 149.21,243.11 L 149.21,242.24 L 149.5,239.74 L 149.78,238.02 L 149.78,235.52 L 149.78,233.75 L 149.78,232.68 L 149.78,231.82 L 149.25,232.59 L 148.67,234.35 L 148.09,236.07 L 147.76,238.23 L 147.2,239.62 L 146.93,240.68 L 146.93,241.21 L 146.93,241.46 L 146.93,241.99 L 146.93,242.52 L 146.93,242.76 L 147.46,242.76 L 150.77,242.76 L 155.51,242.37 L 159.68,241.33 L 163.39,240.98 L 163.63,240.73 L 163.39,240.49 L 162.52,240.49" fill="none" stroke="#e69533" stroke-width="2"></path><path d="M 144.2,264.72 L 143.96,264.96 L 144.24,264.1 L 145.08,262.7 L 146.3,259.3 L 146.89,257.2 L 146.89,255.97 L 146.89,254.95 L 146.89,254.16 L 146.4,254.41 L 145.86,255.18 L 145.86,256.94 L 145.86,258.04 L 145.86,261.76 L 145.86,264.62 L 145.86,266.34 L 145.55,268.79 L 144.94,271.24 L 144.94,272.47 L 143.99,276.19 L 142.8,278.27 L 142.27,279.34 L 141.45,280.44 L 141.2,280.68 L 140.95,280.92 L 140.71,280.92 L 140.46,280.92 L 139.97,280.92 L 139.72,280.92 L 139.48,280.92" fill="none" stroke="#e69533" stroke-width="2"></path><path d="M 144.9,268.72 L 144.65,268.96 L 143.87,268.96 L 143.09,268.96 L 142.84,268.96 L 142.35,268.96 L 142.11,268.96 L 142.11,269.21 L 142.61,269.74 L 143.14,269.74 L 143.63,269.74 L 144.69,269.74 L 145.46,269.74 L 145.95,269.74 L 146.19,269.74 L 146.43,269.74 L 147.5,269.74 L 148.03,269.74 L 148.27,269.74 L 148.8,269.74 L 149.04,269.74 L 149.29,269.49" fill="none" stroke="#e69533" stroke-width="2"></path><path d="M 169.22,258.78 L 168.97,259.02 L 168.97,259.88 L 168.41,261.27 L 166.91,263.95 L 166.05,265.67 L 165.74,266.89 L 164.8,269.75 L 164.18,272.61 L 164.18,275.47 L 164.18,279.6 L 164.18,280.13 L 164.71,281.52 L 165.22,282.29 L 165.46,282.54 L 165.99,282.54 L 166.23,282.54" fill="none" stroke="#e69533" stroke-width="2"></path><path d="M 181.28,264.84 L 181.26,264.07 L 181.5,263.82 L 181.74,263.82 L 181.98,263.82 L 183.09,263.82 L 183.88,264.35 L 184.95,265.41 L 185.76,266.8 L 186.33,268.52 L 186.33,269.91 L 186.33,272 L 186.33,273.72 L 186.33,275.44 L 185.18,277.2 L 184.69,277.68 L 184.17,278.45 L 183.37,279.52 L 182.83,279.78 L 182.59,279.78 L 181.52,278.98 L 180.2,275.54 L 178.85,271.73 L 178.19,268.41 L 177.57,266.93 L 177.57,264.84 L 177.84,263.77 L 178.68,262.37 L 180.45,260.88 L 181.55,259.74 L 181.8,259.74 L 182.33,259.74" fill="none" stroke="#e69533" stroke-width="2"></path><path d="M 192.88,274.01 L 193.89,274.5 L 195.02,275.31 L 195.32,277.07 L 195.32,279.16 L 195.32,280.26 L 194.18,281.98 L 193.39,282.24 L 192.29,282.24 L 191.5,282.24 L 190.97,282.24" fill="none" stroke="#e69533" stroke-width="2"></path><path d="M 203.13,267.23 L 203.38,266.99 L 203.91,266.72 L 204.44,266.45 L 204.68,266.2 L 205.46,265.93 L 205.7,265.93 L 205.94,265.93 L 207.33,266.2 L 207.82,266.68 L 208.32,267.46 L 209.1,268.23 L 209.36,268.76 L 209.36,270.11 L 209.36,270.96 L 209.36,272.56 L 208.87,273.04 L 208.09,273.82 L 207.84,273.82 L 207.6,273.82 L 207.35,273.82 L 207.62,272.79 L 208.39,272.52 L 208.66,271.98 L 208.9,271.98 L 209.43,271.98 L 210.2,272.25 L 210.69,272.73 L 211.46,273.51 L 211.46,274.61 L 211.46,276 L 211.19,277.76 L 210.37,278.86 L 209.86,279.63 L 209.07,279.63 L 208.29,280.14 L 208.05,280.14 L 207.27,280.41 L 206.73,280.41 L 206.48,280.41 L 206.24,280.16 L 206.24,279.91" fill="none" stroke="#e69533" stroke-width="2"></path><path d="M 217.95,260.33 L 217.95,260.09 L 218.2,260.33 L 219.11,262.78 L 221.32,267.97 L 222.32,272.3 L 223.7,276.46 L 223.7,280.63 L 223.7,283.89 L 221.65,286.51 L 220.48,287.67 L 220.24,287.91 L 219.99,287.91 L 219.75,287.91" fill="none" stroke="#e69533" stroke-width="2"></path><path d="M 232.86,270.87 L 232.86,271.11 L 233.64,271.35 L 235.03,271.06 L 236.42,269.95 L 238.5,268.76 L 240.02,266.91 L 241.5,265.13 L 242.03,264.02 L 242.6,262.29 L 243.85,260.45 L 244.21,256.64 L 244.8,254.54 L 245.13,250.82 L 245.45,247.55 L 245.78,244.27 L 246.08,241.41 L 246.08,238.13 L 246.43,234.82 L 246.71,232.32 L 246.71,229 L 246.71,226.13 L 246.71,223.27 L 246.71,221.5 L 246.71,220.1 L 246.71,218.34 L 246.42,216.61 L 246.11,214.52 L 245.17,212.02 L 243.59,209.46 L 243.03,208.06 L 241.57,206.6 L 240.46,205.2 L 239.39,204.13 L 237.84,202.9 L 236.73,202.37 L 235.66,201.56 L 234.59,200.76 L 232.09,199.53 L 229.99,198.93 L 227.82,198.6 L 226.36,197.68 L 225.05,197.68 L 224.55,197.68 L 223.77,197.68 L 223.28,197.68 L 223.28,197.14 L 224.83,195.91 L 227.06,193.68 L 228.9,191.79 L 230.29,190.68 L 231.27,189.37 L 231.51,189.13 L 231.02,189.13 L 229.62,189.94 L 228.55,190.47 L 227.77,191 L 225.96,192.17 L 223.87,193.35 L 222.09,194.84 L 221.02,195.37 L 219.95,196.17 L 219.21,196.65 L 218.94,197.18 L 218.94,197.43 L 220.78,198.67 L 222.29,200.51 L 224.25,203.13 L 226.09,204.64 L 226.93,206.4 L 227.19,207.17 L 227.43,207.41 L 227.68,207.41 L 227.68,206.63" fill="none" stroke="#89d185" stroke-width="2"></path><path d="M 218.4,187.39 L 218.64,187.39 L 219.13,187.39 L 219.37,187.39 L 220.14,187.12 L 223.86,185.25 L 226.72,183.98 L 229.66,182.01 L 233.1,179.92 L 234.49,178.81 L 235.55,177.74 L 236.12,176.34 L 236.67,174.41 L 236.67,172.68 L 237.24,170.59 L 237.24,168.5 L 237.24,166.4 L 237.24,164.31 L 237.24,161.85 L 237.24,159.75 L 237.24,157.99 L 237.24,155.28 L 236.3,152.78 L 236.3,151.71 L 235.52,150.93 L 234.96,149.53 L 234.71,149.04 L 233.91,147.97 L 232.18,145.98 L 231.38,144.91 L 230.59,144.13 L 229.81,143.61 L 228.7,142.48 L 227.3,141.92 L 226.23,141.11 L 224.47,140.23 L 221.76,139.36 L 220.36,138.8 L 218.64,138.52 L 216.54,137.61 L 215.47,137.61 L 214.98,137.36 L 214.73,137.12 L 214.73,136.63 L 215.57,134.86 L 216.41,133.46 L 217.51,132.06 L 219.35,130.18 L 220.12,129.39 L 219.63,129.64 L 217.9,130.21 L 216.14,131.35 L 214.41,131.92 L 212.03,133.17 L 210.63,134 L 209.85,134.27 L 209.07,134.78 L 209.07,135.31 L 209.6,135.84 L 211.5,138.07 L 213.75,139.74 L 214.97,141.29 L 215.74,141.8 L 216.52,141.28 L 217.47,138.41 L 218.84,134.69 L 218.84,133.91 L 219.1,133.38" fill="none" stroke="#89d185" stroke-width="2"></path><path d="M 211.55,121.36 L 211.79,121.12 L 215.69,118.8 L 218.95,117.16 L 223.73,114.21 L 227.45,112.51 L 230.82,110.14 L 232.54,108.99 L 234.74,107.47 L 236.04,106.42 L 236.84,105.61 L 237.35,104.83 L 237.88,103.76 L 239.13,101.91 L 239.39,101.13 L 239.92,100.06 L 240.23,98.59 L 240.78,97.19 L 241.04,94.93 L 241.04,93.16 L 241.35,91.39 L 241.35,88.45 L 241.35,86.27 L 241.35,85.2 L 241.35,83.44 L 241.35,82.33 L 241.35,80.03 L 241.35,78.63 L 241.06,77.23 L 240.54,76.45 L 239.74,75.38 L 238.63,74.56 L 237.82,73.49 L 237.04,72.97 L 236.55,72.48 L 235.44,72.19 L 234.33,71.62 L 233.22,71.62 L 231.75,71.37 L 229.98,70.75 L 227.89,70.75 L 226.82,70.75 L 226.28,70.48 L 225.79,70.48 L 225.54,70.48 L 224.52,70.48 L 223.98,70.48 L 223.73,70.48 L 223.73,69.95 L 225.8,67.53 L 226.33,66.99 L 228.08,65.16 L 228.86,64.38 L 229.12,63.85 L 227.39,64.42 L 226,65.25 L 223.05,66.56 L 220.1,67.82 L 217.15,68.86 L 215.59,70.08 L 215.59,70.61 L 215.83,70.86 L 216.63,71.92 L 219.98,72.69 L 220.77,73.75 L 221.34,74.86 L 221.59,75.1 L 221.59,74.85 L 221.59,72.59 L 221.59,71.19 L 221.59,70.95 L 221.59,70.45" fill="none" stroke="#89d185" stroke-width="2"></path><path d="M 257.09,185.2 L 256.56,184.93 L 256.56,186.65 L 256.56,189.1 L 255.91,191.96 L 255.25,196.45 L 254.65,198.54 L 254.36,199.93 L 254.09,200.46 L 254.09,200.95 L 253.8,200.08 L 253.8,197.91 L 253.8,194.59 L 253.8,190.42 L 253.8,187.55 L 253.8,185.83 L 253.8,183.89 L 253.8,183.11 L 254.09,182 L 254.33,181.76 L 254.82,181.27 L 255.06,181.02 L 255.3,181.02 L 255.54,181.26 L 255.54,184.25 L 255.54,185.64 L 255.54,187.39 L 254.76,188.17 L 254.27,188.65 L 254.02,188.89 L 253.78,189.14 L 253.53,189.14 L 253.29,189.14 L 252.75,189.14 L 253.28,189.14" fill="none" stroke="#89d185" stroke-width="2"></path><path d="M 256.13,182.24 L 256.13,182 L 256.37,181.75 L 257.14,180.97 L 258.89,178.88 L 259.96,178.34 L 261.41,177.41 L 262.18,177.41 L 263.04,177.41 L 263.81,177.41 L 264.3,177.41 L 265.64,177.94 L 265.88,178.18 L 266.15,178.71 L 266.39,179.2 L 266.39,180.5 L 266.39,182.26 L 266.39,183.04 L 265.22,184.2 L 264.68,185.26 L 263.88,186.32 L 263.06,187.18 L 262.28,187.45 L 261.79,187.45 L 261.54,187.69 L 261.29,187.69 L 260.51,187.69 L 259.73,187.69 L 259.46,187.15 L 258.68,186.64 L 258.43,186.39 L 257.9,186.39 L 257.9,186.14 L 258.14,185.9 L 259.73,185.63" fill="none" stroke="#89d185" stroke-width="2"></path><path d="M 267.92,189.77 L 267.92,190.01 L 267.93,190.25 L 268.7,190.25 L 269.76,190.25 L 270.82,190.25 L 271.6,190.25 L 272.37,190.5 L 273.17,191.56 L 274,193.19 L 274.25,194.29 L 274.25,195.68 L 274.25,196.79 L 274.25,197.85 L 273.98,198.38 L 273.4,199.48 L 273.4,196.85 L 273.4,194.35 L 273.97,191.85 L 275.12,190.09 L 275.98,189.51 L 276.46,189.27 L 276.7,189.51 L 277.19,189.99" fill="none" stroke="#89d185" stroke-width="2"></path><path d="M 285.51,191.36 L 285.75,191.36 L 285.99,191.36 L 286.26,192.13 L 286.56,194.13 L 286.83,194.66 L 286.83,193.55 L 286.83,192.69" fill="none" stroke="#89d185" stroke-width="2"></path><path d="M 285.49,183.82 L 285.73,184.06 L 286.22,184.79 L 286.22,185.56 L 286.22,186.09 L 286.22,186.09 L 286.22,185.31" fill="none" stroke="#89d185" stroke-width="2"></path><path d="M 292.09,193.95 L 292.37,192.85 L 293.14,192.07 L 294.25,191.53 L 295.37,190.71 L 296.14,190.46 L 296.39,190.46 L 296.92,190.99 L 297.69,191.77 L 298.24,193.16 L 298.53,194.88 L 298.53,196.34 L 298.53,197.73 L 298.53,198.8 L 298.28,199.04 L 297.77,199.81 L 297.52,200.05 L 296.76,199.27 L 296.51,197.8 L 296.51,196.73 L 297.04,194.55 L 297.86,193.45 L 298.47,192.21 L 299.94,191.35 L 300.42,191.11 L 300.91,191.11 L 301.15,191.11 L 302.16,191.11 L 302.94,191.88 L 302.94,192.74 L 304,193.8 L 304.27,194.57 L 304.79,195.68 L 305.3,196.98 L 305.85,198.37 L 306.34,198.86 L 307.44,200.25 L 307.92,200.25 L 308.78,200.53 L 309.8,200.53 L 310.33,200.53 L 310.57,200.53 L 311.34,200 L 311.61,198.93 L 312.2,195.97 L 312.2,193.88 L 312.2,191.78 L 312.2,190.05 L 312.2,188.33 L 312.2,186.93 L 312.2,185.16 L 311.58,183.15 L 311.31,182.62 L 310.49,181.22 L 310.49,180.73 L 310.73,180.97 L 311.04,182.2 L 312.03,185.5 L 312.68,188.81 L 313.72,192.12 L 314.33,195.47 L 314.59,196.86 L 314.84,197.64 L 315.45,198.86 L 315.69,198.86 L 316.18,198.62 L 316.42,198.13 L 316.42,197.88 L 316.42,197.14 L 316.42,196.36 L 316.42,196.11" fill="none" stroke="#89d185" stroke-width="2"></path><path d="M 311.98,188.06 L 311.98,187.82 L 313.73,187.82 L 315.82,186.63 L 317.58,185.74 L 318.64,185.2 L 318.15,185.2" fill="none" stroke="#89d185" stroke-width="2"></path><path d="M 332.38,179.25 L 332.13,179.25 L 332.13,179.49 L 331.51,181.95 L 330.26,186.11 L 328.95,189.42 L 328.64,192.73 L 327.96,196.53 L 327.96,199.84 L 327.96,202.7 L 329.86,205.25 L 331.3,206.7 L 333.39,206.98 L 335.88,207.27 L 336.66,207.27 L 336.9,207.27 L 337.14,206.16" fill="none" stroke="#89d185" stroke-width="2"></path><path d="M 344.1,188.13 L 344.1,188.13 L 344.1,189.84 L 344.1,192.01 L 344.1,194.63 L 344.1,195.4 L 344.1,195.15 L 344.1,194.91" fill="none" stroke="#89d185" stroke-width="2"></path><path d="M 351.52,177.21 L 351.77,176.97 L 352.3,177.23 L 353.85,178.46 L 354.68,179.85 L 358.11,185 L 360.27,189.29 L 361.31,193.09 L 361.64,195.95 L 361.64,198.4 L 361.06,200.12 L 359.95,201.51 L 359.15,202.3 L 358.9,202.55 L 358.66,202.55 L 358.16,202.55" fill="none" stroke="#89d185" stroke-width="2"></path><path d="M 251.63,118.69 L 251.63,123.71 L 252.4,130.5 L 252.4,135.69 L 252.4,141.37 L 252.4,143.45 L 252.4,144.23 L 252.4,144.47 L 251.54,143.24 L 251.23,140.37 L 250.49,136.16 L 250.16,132.88 L 249.84,130.02 L 249.84,126.69 L 249.84,124.52 L 249.84,122.43 L 249.84,121.36 L 250.73,119.26 L 251.55,118.15 L 252.34,117.35 L 252.59,117.35 L 253.36,117.35 L 254.13,117.35 L 255.91,118.84 L 258.11,121.67 L 258.41,123.76 L 258.98,125.52 L 258.98,126 L 258.98,126.86 L 258.98,127.34 L 257.91,128.98 L 256.8,129.26 L 256.02,129.5 L 255.53,129.5 L 255.29,129.5 L 254.79,129.5 L 254.55,129.5 L 254.3,129.5" fill="none" stroke="#89d185" stroke-width="2"></path><path d="M 262.43,131.38 L 262.68,131.62 L 263.78,131.62 L 265.5,131.62 L 267.85,132.74 L 268.97,133.56 L 270.42,134.74 L 270.42,136.13 L 270.71,137.85 L 270.71,139.24 L 270.71,140.3 L 270.46,141.41 L 270.21,141.65 L 269.05,140.73 L 268.43,138.63 L 268.43,135.68 L 268.43,132.94 L 268.91,132.45 L 269.18,131.91 L 269.42,131.66 L 270.22,130.59 L 270.79,129.48 L 271.91,128.38" fill="none" stroke="#89d185" stroke-width="2"></path><path d="M 279.52,133.61 L 279.52,134.38 L 279.52,136.02 L 279.52,137.41 L 279.52,138.47 L 279.52,139.24 L 279.52,139.48 L 279.02,139.73 L 278.75,137.79 L 278.75,135.7 L 278.75,134.47" fill="none" stroke="#89d185" stroke-width="2"></path><path d="M 277.84,128.27 L 278.09,128.27 L 278.33,128.27 L 279.72,129.37 L 280.5,130.14 L 281.03,130.65 L 281.03,131.18 L 281.03,131.71 L 280.78,131.71 L 280.49,130.6 L 280.49,129.82 L 280.49,129.29" fill="none" stroke="#89d185" stroke-width="2"></path><path d="M 287.37,136.63 L 287.12,136.39 L 287.12,135.89 L 287.65,134.82 L 288.75,133.69 L 289.86,132.87 L 290.71,132.87 L 291.49,132.87 L 292.59,132.87 L 293.36,133.38 L 294.2,134.77 L 294.73,135.87 L 295.26,136.93 L 295.26,139.18 L 295.26,140.29 L 294.77,140.77 L 294.48,141.63 L 293.94,141.63 L 293.43,140.85 L 293.14,139.45 L 293.14,137.36 L 293.73,134.94 L 295.87,133.4 L 296.73,132.82 L 298.04,132.31 L 298.52,132.31 L 299.29,132.31 L 300.07,132.31 L 300.55,132.31 L 301.04,132.55 L 301.54,133.32 L 302.05,134.1 L 302.36,136.18 L 302.64,137.57 L 302.93,139.5 L 303.43,140.27 L 303.72,141.13 L 303.96,141.61 L 304.73,141.86 L 304.98,141.86 L 305.22,141.86 L 305.99,141.86 L 307.38,141.59 L 309.1,139.54 L 309.93,137.77 L 310.48,136.37 L 310.77,134.64 L 311.05,132.55 L 311.05,130.82 L 311.05,129.71 L 311.05,128.32 L 311.05,127.54 L 310.52,125.93 L 310.25,125.39 L 310,125.15 L 310,125.39 L 310,127.15 L 310.32,130.41 L 311.02,134.58 L 311.93,137.97 L 311.93,138.74 L 312.18,138.98 L 312.44,139.52 L 312.68,139.52 L 313.54,139.23 L 314.64,138.69 L 315.42,138.69 L 315.95,138.42" fill="none" stroke="#89d185" stroke-width="2"></path><path d="M 309.48,132.52 L 311.25,131.9 L 313.7,130.98 L 314.76,130.71 L 315.49,130.46 L 315.75,129.93 L 316,129.68" fill="none" stroke="#89d185" stroke-width="2"></path><path d="M 327.09,125.46 L 327.09,125.71 L 327.09,127.46 L 327.09,131.63 L 325.98,136.37 L 325.98,142.25 L 325.98,145.56 L 327.53,148.05 L 328.3,148.82 L 328.81,149.6 L 329.3,149.6 L 329.78,149.6 L 330.02,149.6 L 331.66,149.6 L 333.05,149.04 L 333.58,148.5" fill="none" stroke="#89d185" stroke-width="2"></path><path d="M 336.75,133.91 L 336.75,133.38 L 337.85,132.81 L 338.63,132.81 L 339.4,132.54 L 340.17,132.54 L 340.7,132.54 L 341.19,132.54 L 341.43,132.54 L 342.2,132.8 L 342.2,134.89 L 342.2,136.65 L 341.34,138.37 L 340.42,139.82 L 339.64,140.59 L 338.86,141.36 L 338.61,141.61 L 338.09,142.38 L 337.85,142.62 L 338.11,142.09 L 339.18,141.82 L 339.95,141.55 L 341.67,141.55 L 343.39,141.55 L 346,141.55 L 346.25,141.55 L 346.25,141.3 L 345.46,141.03 L 345.22,139.55" fill="none" stroke="#89d185" stroke-width="2"></path><path d="M 346.41,122.83 L 346.95,122.83 L 348.96,124.56 L 350.72,125.7 L 352.64,127.97 L 353.82,130.05 L 354.48,132.55 L 354.48,134.3 L 353.86,136.39 L 352.18,138.64 L 351.25,139.56 L 350.14,140.42 L 349.07,140.68 L 348.58,140.68" fill="none" stroke="#89d185" stroke-width="2"></path><path d="M 343.5,188.15 L 343.26,188.15 L 343.74,188.64 L 343.98,188.88 L 344.23,189.12 L 344.47,189.89 L 344.71,190.14 L 344.95,190.38 L 345.48,191.13 L 345.48,192.23 L 345.48,192.47 L 345.48,192.96 L 345.73,193.44 L 345.73,193.68 L 345.97,193.93 L 345.97,194.7 L 345.97,194.94 L 345.97,195.43 L 345.97,195.91 L 345.97,197.01 L 345.97,197.25 L 345.97,197.74 L 345.97,197.98 L 345.97,198.22 L 345.97,199 L 346.21,199.72 L 346.21,198.86 L 345.92,197.75 L 345.35,195.66 L 345.04,193.56 L 344.73,192.09 L 344.46,190.69 L 344.46,189.91 L 344.46,189.66 L 344.46,189.41 L 344.46,188.3 L 344.46,187.52 L 344.46,187.28" fill="none" stroke="#89d185" stroke-width="2"></path><path d="M 255.8,63.61 L 256.04,63.37 L 257.51,64.88 L 257.84,67.74 L 257.84,70.19 L 258.12,71.91 L 258.12,72.77 L 258.12,72.52 L 257.46,69.25 L 256.48,64.5 L 255.7,58.24 L 255.7,53.09 L 255.7,50.13 L 255.96,49.06 L 257.5,46.91 L 258.56,46.37 L 259.95,45.79 L 260.75,44.99 L 261.28,44.99 L 262.05,45.5 L 262.6,49.46 L 262.6,51.95 L 262.6,54.04 L 261.78,55.14 L 260.34,56.57 L 260.1,56.81 L 259.85,56.81 L 259.61,56.81 L 259.36,56.81 L 259.11,56.81 L 258.84,56.28" fill="none" stroke="#89d185" stroke-width="2"></path><path d="M 266.55,62.94 L 266.31,62.94 L 267.14,61.54 L 268.98,60.29 L 270.74,59.71 L 271.6,59.42 L 272.09,59.42 L 273.15,59.69 L 273.66,61.69 L 274.21,63.08 L 274.21,64.8 L 274.21,66.55 L 274.21,67.04 L 273.96,67.28 L 273.47,67.28 L 273.14,64.41 L 273.14,61.78 L 273.67,60.67 L 274.15,60.18 L 275.21,59.64 L 276.32,59.35 L 277.71,58.51 L 279.96,57.95 L 281.06,57.66" fill="none" stroke="#89d185" stroke-width="2"></path><path d="M 284.62,60.24 L 285.39,60 L 285.93,61.06 L 286.48,62.45 L 286.74,64.21 L 286.98,64.98 L 286.98,66.04 L 286.98,66.53 L 286.98,65.13 L 286.98,64.27" fill="none" stroke="#89d185" stroke-width="2"></path><path d="M 288.77,45.55 L 289.79,46.32 L 290.56,47.1 L 290.56,48.16 L 290.56,49.22 L 290.56,49.46 L 290.56,49.71 L 290.32,49.71 L 290.32,49.17 L 290.32,48.93" fill="none" stroke="#89d185" stroke-width="2"></path><path d="M 294.71,55.53 L 294.96,55.29 L 295.2,55.29 L 295.68,55.29 L 296.17,55.29 L 297.27,55.57 L 297.75,56.06 L 298.3,57.45 L 298.3,58.84 L 298.3,60.6 L 298.3,61.66 L 298.3,62.43 L 298.3,62.68 L 298.06,61.81 L 298.06,59.19 L 298.36,56.23 L 299.91,54.68 L 301.02,53.28 L 302.48,52.41 L 303.02,52.14 L 303.5,52.14 L 304.27,52.14 L 305.05,52.41 L 305.58,53.18 L 305.58,55.27 L 305.58,57.76 L 305.58,60.38 L 305.58,61.15 L 305.58,61.93 L 306.06,62.41 L 306.3,62.41 L 307.08,62.41 L 308.84,62.41 L 309.94,61.55 L 310.95,60.79 L 311.28,58.61 L 311.83,57.21 L 312.13,53.9 L 312.48,50.18 L 312.48,48.08 L 312.76,46.36 L 312.76,45.57 L 312.76,44.5 L 312.76,44.26 L 313.33,45.12 L 313.62,47.2 L 313.94,51.41 L 314.61,55.13 L 314.89,56.84 L 315.43,57.62 L 315.67,57.86 L 315.91,58.1 L 316.15,58.1 L 316.93,58.1 L 318.39,58.1 L 318.9,57.32 L 319.17,56.54 L 319.17,55.76 L 319.17,55.51 L 319.17,55.02" fill="none" stroke="#89d185" stroke-width="2"></path><path d="M 314.79,49.35 L 314.79,49.11 L 316.55,48.53 L 319.82,47.87 L 321.9,46.68 L 322.43,46.41 L 322.92,46.41" fill="none" stroke="#89d185" stroke-width="2"></path><path d="M 342.68,42.19 L 342.93,42.96 L 342.93,44.84 L 341.66,47.78 L 340.36,50.31 L 339.38,54.03 L 338.72,57.29 L 338.72,61.38 L 340.03,63.59 L 341.54,65.75 L 343.71,66.34 L 345.58,67.32 L 346.36,67.32 L 346.6,67.07 L 346.84,66.83 L 347.35,66.05 L 349.57,63.81" fill="none" stroke="#89d185" stroke-width="2"></path><path d="M 351.85,51.1 L 351.85,50.86 L 352.36,50.08 L 353.87,48.23 L 356.12,46.83 L 356.61,46.59 L 356.85,46.59 L 357.09,46.59 L 357.57,46.59 L 357.82,46.59 L 358.35,47.09 L 358.61,48.4 L 358.61,49.79 L 358.61,51.18 L 358.32,52.04 L 357.54,52.81 L 357.05,53.3 L 356.8,53.54 L 357.05,53.54 L 358.11,53 L 359.87,52.42 L 362.16,52.11 L 362.64,52.11 L 363.41,52.11 L 363.95,52.11 L 364.43,52.36 L 364.67,53.13 L 364.67,54.36 L 364.67,55.13 L 364.67,56.52 L 364.4,57.58 L 363.62,58.09 L 362.8,59.19 L 360.87,60.01 L 359.14,60.58 L 358.07,60.84 L 356.67,60.84 L 355.6,60.84 L 354.49,60.84 L 353.71,60.57 L 353.46,60.33 L 353.22,60.08 L 353.22,59.84 L 353.99,59.59 L 355.68,58.4 L 357.77,57.8 L 360.26,56.86" fill="none" stroke="#89d185" stroke-width="2"></path><path d="M 370.93,41.44 L 370.93,41.68 L 371.5,42.54 L 372.4,44.63 L 373.52,47.32 L 374.05,47.86 L 374.6,50.47 L 374.6,52.56 L 374.6,55.01 L 372.75,56.52 L 371.64,57.91 L 370.86,58.45 L 369.75,58.97 L 369.22,58.97" fill="none" stroke="#89d185" stroke-width="2"></path><path d="M 416.86,128.82 L 416.86,129.07 L 416.86,130.7 L 417.51,134.41 L 417.51,140.63 L 417.51,148.39 L 417.51,151.33 L 417.51,152.1 L 418,152.1 L 419.75,150.95 L 421.59,149.34 L 422.98,148.52 L 423.76,148 L 423.76,147.51 L 423.76,146.73 L 423.76,146.24" fill="none" stroke="#89d185" stroke-width="2"></path><path d="M 419.09,142.21 L 419.35,141.68 L 422.05,140.5 L 424.13,140.2 L 424.93,139.39 L 425.7,139.39 L 425.95,139.39" fill="none" stroke="#89d185" stroke-width="2"></path><path d="M 438.67,142.42 L 438.43,141.93 L 437.62,141.39 L 437.13,141.39 L 436.35,141.39 L 435.86,141.39 L 434.46,142.23 L 434.46,143.33 L 434.46,145.79 L 434.46,147.5 L 434.7,148.52 L 434.96,149.05 L 435.5,149.05 L 436.27,149.05 L 437.66,148.21 L 438.43,147.43 L 439.25,146.32 L 439.51,145.54 L 439.51,144.75 L 439.51,143.97 L 439.51,143.48 L 439.75,143.48 L 440.32,145.2 L 441.18,146.92 L 442.24,147.98 L 445.18,148.96 L 446.9,148.96 L 448.99,148.96 L 451.3,148.04 L 452.15,146.56 L 452.42,145.16 L 452.74,142.99 L 453.37,140.04 L 453.37,134.68 L 453.37,131.36 L 453.37,130.58 L 453.1,129.8 L 453.1,130.29 L 454.06,133.14 L 454.71,136.41 L 454.71,139.72 L 454.99,141.8 L 454.99,143.2 L 454.99,144.3 L 454.99,144.54 L 455.48,144.29 L 456.72,142.45 L 457.64,140.27 L 458.45,139.16 L 459.68,137.61 L 459.68,138.14 L 459.68,138.91 L 459.68,139.39 L 459.68,139.88 L 459.68,140.65 L 459.68,141.14 L 459.68,141.62 L 459.68,142.72 L 460.16,143.21 L 461.22,144.51 L 462.98,145.66 L 464.74,146.23 L 465.27,146.23 L 465.51,146.23 L 465.51,145.73 L 465.24,144.95 L 465,144.17" fill="none" stroke="#89d185" stroke-width="2"></path><path d="M 466.78,138.77 L 467.03,138.77 L 467.51,139.01 L 467.75,139.25 L 468.29,139.52 L 469.3,139.52 L 471.02,139.52 L 471.55,139.52 L 472.86,138.98 L 473.1,138.2 L 473.63,137.13 L 473.87,136.34 L 473.87,134.62 L 473.87,134.13 L 473.87,133.02 L 473.87,132.77 L 473.87,132.52 L 473.63,132.52 L 472.84,132.52 L 472.31,132.79 L 471.77,133.89 L 471.53,134.38 L 471.53,135.15 L 471.53,136.21 L 471.53,136.98 L 471.53,138.05 L 471.53,139.15 L 471.53,140.54 L 472.05,141.88 L 472.97,143.04 L 473.46,143.53 L 473.7,143.77 L 474.43,143.77 L 475.82,143.77 L 476.35,143.77 L 476.59,143.77 L 476.83,143.77 L 477.36,143.77 L 477.36,143.52" fill="none" stroke="#89d185" stroke-width="2"></path><path d="M 483.58,134.01 L 483.82,134.01 L 484.07,134.25 L 484.55,134.74 L 485.36,135.84 L 485.87,136.86 L 486.69,137.98 L 487.22,139.04 L 487.5,140.43 L 487.5,141.54 L 487.5,142.31 L 487.5,143.41 L 487.23,142.88 L 486.96,141.48 L 486.96,140.08 L 486.96,138.76 L 486.96,137.65 L 487.54,136.79 L 488.31,136.01 L 490.56,134.88 L 491.66,134.59 L 492.14,134.59 L 492.39,134.59 L 492.87,134.59 L 493.4,134.83 L 494.01,137.28 L 494.01,139.9 L 494.01,142.22 L 494.01,143 L 494.28,143.53 L 496.44,143.2 L 497.5,142.66 L 498.73,142.04" fill="none" stroke="#89d185" stroke-width="2"></path><path d="M 538.77,143.5 L 538.78,143.26 L 539.57,142.45 L 541.21,141.32 L 541.69,141.07 L 541.93,141.07 L 542.46,141.07 L 543.24,141.07 L 543.52,142.46 L 543.52,144.55 L 543.52,146.64 L 543.01,147.41 L 542.52,147.89 L 542.27,148.14 L 541.98,146.41 L 541.98,141.46 L 541.98,139 L 542.29,137.23 L 543.35,136.69 L 544.74,135.85 L 545.25,135.31 L 546.02,135.31 L 546.79,135.31 L 547.59,136.38 L 548.73,138.99 L 549.05,141.48 L 549.05,142.55 L 549.3,144.02 L 549.3,144.55 L 550.07,144.79 L 550.55,144.79 L 551.62,144.79 L 552.68,144.52 L 553.21,144.25" fill="none" stroke="#89d185" stroke-width="2"></path><path d="M 564.51,135.84 L 564.75,135.84 L 565.82,135.84 L 567.21,135.84 L 567.45,135.84 L 567.69,135.84" fill="none" stroke="#89d185" stroke-width="2"></path><path d="M 563.95,145.15 L 563.95,145.39 L 564.72,145.39 L 566.8,145.39 L 570.11,145.04 L 573.38,144.39 L 575.38,143.81 L 575.13,143.81" fill="none" stroke="#89d185" stroke-width="2"></path><path d="M 569.46,134.49 L 570,134.25 L 570.77,134.25 L 571.25,134.25 L 571.5,134.25 L 571.74,134.25 L 571.49,134.25 L 570.38,134.25 L 570.14,134.25 L 569.36,134.75 L 569.09,135.29 L 568.22,135.29" fill="none" stroke="#89d185" stroke-width="2"></path><path d="M 561.13,138.59 L 561.38,138.35 L 562.39,137.83 L 563.78,136.99 L 564.64,136.99 L 565.13,136.5 L 566.16,135.71 L 566.94,135.18 L 567.71,134.66 L 568.81,134.42 L 569.05,134.17 L 569.59,133.64 L 570.36,133.37 L 570.84,133.12 L 571.33,132.88 L 571.81,132.63 L 572.05,132.63" fill="none" stroke="#89d185" stroke-width="2"></path><path d="M 591.73,132.86 L 590.95,133.37 L 591.19,133.12 L 592.97,131.91 L 594.36,131.62 L 595.83,131.31 L 596.36,131.04 L 596.6,131.04 L 597.09,131.04 L 597.86,131.57 L 598.1,132.35 L 598.37,133.74 L 598.37,134.84 L 598.37,135.94 L 597.75,137.41 L 596.35,138.51 L 594.42,139.06 L 593.61,139.86 L 592.54,140.13 L 592.3,140.13 L 592.54,139.88 L 593.6,139.34 L 594.38,139.34 L 596.13,139.34 L 598.89,141.3 L 598.89,142.77 L 598.89,143.01 L 598.89,144.07 L 598.89,144.84 L 598.35,145.95 L 596.71,146.52 L 594.61,146.52 L 592.52,146.52 L 591.41,146.52 L 590.01,146.52 L 589.48,146.52" fill="none" stroke="#89d185" stroke-width="2"></path><path d="M 445.87,175.33 L 445.6,175.86 L 445.35,175.86 L 444.86,175.61 L 443.02,173.77 L 440.7,171.52 L 439.22,169.71 L 438.11,168.89 L 437.33,168.64 L 436.8,168.64 L 436.55,168.64 L 435.38,171.67 L 435.38,173.75 L 435.38,175.14 L 435.38,176.21 L 436.5,177.31 L 437.28,178.08 L 438.67,178.35 L 441.12,178.35 L 442.84,178.35 L 444.47,177.54 L 445,177.27 L 445.78,176.76 L 446.02,176.27 L 446.02,175.2 L 446.02,174.41 L 446.02,174.17 L 446.02,173.92 L 446.53,174.45 L 447.1,176.21 L 448.24,177.93 L 449.75,179.83 L 452,180.68 L 453.72,180.68 L 455.19,180.68 L 456.58,180.68 L 457.64,179.61 L 457.88,178.5 L 458.19,176.74 L 458.47,175.63 L 458.47,174.23 L 458.47,171.97 L 458.47,170.86 L 458.47,171.1 L 458.74,172.12 L 459.25,172.89 L 459.78,173.42 L 460.04,173.95 L 460.53,174.68 L 461.06,175.74 L 461.61,177.13 L 461.91,178.6 L 461.91,179.38 L 461.91,180.15 L 461.91,181.25 L 460.6,182.05 L 460.35,182.29 L 459.82,182.29 L 459.57,182.29 L 459.08,182.29 L 458.83,182.29" fill="none" stroke="#89d185" stroke-width="2"></path><path d="M 484.81,171.33 L 485.05,172.19 L 485.05,174.27 L 485.6,175.74 L 485.6,176.23 L 486.35,177.24 L 486.59,177.24 L 487.32,177.24 L 487.85,177.24 L 488.09,176.75 L 488.93,174.98 L 489.46,173.91 L 489.7,173.13 L 489.7,173.38 L 489.7,174.23 L 489.7,176.56 L 490.27,178.32 L 490.54,179.38 L 491.31,180.16 L 491.55,180.16 L 491.8,180.16 L 492.52,180.16 L 493.3,180.16 L 494.77,179.6 L 495.01,179.36 L 495.76,178.33 L 496.29,177.79 L 496.53,177.01 L 496.53,176.52 L 496.53,175.74 L 496.53,175.25 L 496.53,174.75 L 496.53,174.51 L 496.53,173.73 L 496.77,173.48 L 497.5,173.48 L 497.74,173.48 L 498.52,173.48 L 499.29,173.48 L 500.59,173.48 L 501.7,173.77 L 502.18,174.25 L 503.04,174.82 L 503.28,175.3 L 503.28,176.08 L 503.55,176.61 L 503.55,177.38 L 503.55,178.4 L 503.55,178.88 L 502.77,179.39 L 502.52,179.39 L 502.27,179.63 L 502.03,179.63 L 501.78,179.63 L 502.27,179.39 L 503.13,179.1" fill="none" stroke="#89d185" stroke-width="2"></path><path d="M 508.59,175.88 L 509.08,175.89 L 509.32,175.89 L 510.09,175.89 L 511.73,175.89 L 511.97,175.89 L 512.98,175.13 L 513.47,174.39 L 513.73,172.99 L 513.73,172.74 L 513.73,171.96 L 513.73,171.18 L 513.73,170.93 L 513.49,170.93 L 512.95,170.93 L 512.71,170.93 L 512.21,170.93 L 511.43,171.44 L 511.19,171.68 L 510.7,172.17 L 510.18,172.94 L 510.18,173.47 L 509.93,174.2 L 509.93,174.97 L 509.93,176.36 L 509.93,177.14 L 509.93,177.38 L 509.93,179.01 L 509.93,179.79 L 510.46,180.89 L 510.73,181.42 L 510.97,181.66 L 511.21,181.9 L 511.98,181.9 L 512.52,181.9 L 513.62,181.9 L 514.72,181.9 L 515.49,181.12 L 516.96,180.26 L 518.02,179.45 L 518.55,179.18 L 519.35,178.11 L 519.88,177.33 L 520.37,176.84 L 520.37,175.44 L 520.37,174.33 L 520.9,173.2 L 520.9,172.42 L 520.9,171.93 L 520.9,171.68 L 520.65,171.68 L 520.65,171.92 L 520.65,172.16 L 520.89,172.41 L 521.14,172.41 L 521.38,172.41 L 522.39,172.16 L 522.93,172.16 L 523.46,171.63 L 523.94,171.38 L 523.94,171.62 L 523.94,171.86 L 523.67,173.79 L 523.4,174.56 L 523.4,175.09 L 523.4,176.11 L 523.4,176.35 L 524.18,176.86 L 525.57,177.12 L 526.34,177.12 L 526.58,177.12" fill="none" stroke="#89d185" stroke-width="2"></path><path d="M 552.08,174.43 L 551.83,174.43 L 551.83,174.68 L 551.83,178.48 L 551.83,181.42 L 551.83,182.89 L 551.83,184.28 L 551.83,184.52 L 551.83,183.45 L 552.93,182.63 L 552.93,182.38" fill="none" stroke="#89d185" stroke-width="2"></path><path d="M 552.16,170.56 L 552.7,170.57 L 552.94,171.05 L 552.94,171.29 L 552.94,171.05 L 552.94,170.51 L 552.94,169.98 L 553.42,168.95 L 553.91,168.7 L 555.01,168.7" fill="none" stroke="#89d185" stroke-width="2"></path><path d="M 559.86,176.56 L 559.62,176.32 L 559.62,175.54 L 559.88,174.76 L 561.48,173.68 L 561.96,173.68 L 562.49,173.15 L 562.73,173.15 L 562.98,173.39 L 563.75,173.9 L 563.75,175 L 563.75,177 L 563.75,177.48 L 563.5,178.95 L 563.26,179.2 L 563.01,179.44 L 562.48,179.7 L 562.23,179.7 L 561.45,178.92 L 561.45,177.2 L 561.45,175.43 L 561.69,174.11 L 562.85,172.95 L 563.91,171.88 L 564.69,171.36 L 565.17,171.11 L 565.41,171.11 L 565.66,171.11 L 567,171.93 L 567.48,172.41 L 568.04,173.8 L 568.04,175.52 L 568.04,177.28 L 568.04,178.67 L 568.04,180.75 L 568.3,181.82 L 568.54,182.3 L 568.79,182.54 L 569.36,183.4 L 570.13,183.4 L 570.61,183.4 L 572,182.84 L 572.78,182.06 L 573.26,181.57 L 573.53,180.17 L 573.79,178.77 L 573.79,177.01 L 574.04,175.36 L 574.04,173.96 L 574.04,173.1 L 574.04,172.86 L 574.3,173.39 L 574.3,175.11 L 574.3,177.19 L 574.3,180.5 L 574.3,183.36 L 574.3,185.98 L 574.3,187.7 L 574.3,188.47 L 574.3,189.33 L 574.3,189.08 L 574.01,186.58 L 574.01,182.85 L 574.01,180.23 L 574.01,177.36 L 574.01,176.25 L 574.01,174.78 L 574.52,174 L 574.76,173.5 L 575.86,172.37 L 576.64,171.59 L 577.12,171.34 L 577.36,171.34 L 577.89,171.34 L 578.67,172.12 L 578.95,173.22 L 579.24,174.85 L 579.24,176.24 L 579.24,177.02 L 579.24,178.12 L 578.97,178.89 L 578.48,179.38 L 578.23,179.62 L 577.71,180.39 L 577.22,180.39 L 576.98,180.39 L 576.73,180.39 L 576.48,180.39 L 575.95,180.12 L 576.68,180.36 L 576.92,180.36 L 577.4,180.84 L 577.64,180.84 L 578.13,180.84 L 578.37,180.84 L 579.43,180.84 L 580.21,180.6 L 581.27,179.79 L 582.04,179.01 L 582.55,178.23 L 582.82,177.7 L 582.82,176.38 L 583.38,174.5 L 583.38,174 L 583.63,173.51 L 583.63,172.4 L 583.63,172.16 L 583.63,172.69 L 583.63,173.55 L 583.63,174.61 L 583.63,176.53 L 583.63,177.02 L 583.91,177.88 L 584.18,178.41 L 584.71,178.41 L 585.77,178.67 L 586.01,178.67 L 586.79,178.67 L 587.03,178.67 L 587.51,178.67 L 588,178.67 L 589.06,178.13 L 589.88,176.73 L 589.88,176.24 L 590.41,175.71 L 590.41,174.93 L 590.67,174.39 L 590.67,173.86 L 590.67,173.61 L 590.67,173.36 L 590.91,173.36 L 590.91,174.14 L 590.91,175.53 L 591.16,176.01 L 591.4,176.25 L 592.17,175.98 L 592.95,175.71 L 594.01,175.18 L 594.54,174.91 L 595.31,174.66 L 596.09,174.15 L 596.33,173.9 L 596.81,173.41 L 597.38,172.01 L 597.91,171.23 L 598.44,170.12 L 598.71,169.34 L 598.71,168.85 L 598.97,167.45 L 598.97,166.96 L 599.24,165.19 L 599.24,164.7 L 599.24,164.45 L 599.24,163.96 L 599.24,164.49 L 599.24,165.88 L 599.24,168.38 L 599.24,169.44 L 599.24,171.52 L 599.24,172.3 L 599.24,174.3 L 599.24,175.07 L 599.24,176.17 L 599.24,176.66 L 599.24,177.14 L 599.24,177.63 L 599.24,178.48 L 600.01,178.75 L 600.79,178.75 L 601.56,178.75 L 603.03,178.75 L 603.51,178.75 L 604.29,178.75 L 604.82,178.75 L 605.08,178.21 L 605.32,177.97 L 605.81,177.72 L 606.05,177.48 L 605.23,178.34 L 603.83,179.15 L 603.05,179.39 L 602.8,179.39" fill="none" stroke="#89d185" stroke-width="2"></path><path d="M 601.28,167.97 L 601.29,167.73 L 601.29,167.48 L 602.35,166.95 L 603.41,166.41 L 605.17,165.79 L 605.94,165.28 L 607,164.74 L 607.54,164.74 L 607.78,164.49 L 607,164.73 L 606.21,165 L 605.43,165.51 L 605.19,165.75" fill="none" stroke="#89d185" stroke-width="2"></path><path d="M 411.63,209.77 L 411.9,208.7 L 413,207.3 L 414.84,205.46 L 416.98,203.92 L 418.74,202.77 L 421.7,201.38 L 422.72,201.11 L 422.96,201.11 L 424.06,201.11 L 425.25,203.2 L 426.39,205.81 L 426.39,208.3 L 426.39,210.76 L 425.54,212.15 L 424.74,213.21 L 424.25,213.7 L 423.75,214.18 L 423.26,214.18 L 422.48,214.18 L 421.99,214.18 L 420.88,214.18 L 419.77,213.36 L 418.84,210.65 L 418.84,207.79 L 418.84,205.69 L 418.84,203.6 L 418.84,202.82 L 418.84,201.71 L 419.09,201.21 L 419.09,200.97 L 419.09,200.72" fill="none" stroke="#89d185" stroke-width="2"></path><path d="M 436.41,213.8 L 436.65,213.55 L 437.16,214.08 L 437.16,216.17 L 437.46,217.93 L 439.03,221.32 L 439.52,221.8 L 439.76,222.05 L 441.13,222.58 L 441.9,222.58 L 442.96,221.77 L 444.02,220.7 L 444.31,218.98 L 444.57,217.58 L 444.57,216.8 L 444.57,216.26 L 444.82,216.26 L 445.1,217.98 L 445.71,219.74 L 446.59,221.5 L 447.98,223.5 L 449.37,223.5 L 451.13,223.5 L 452.52,223.5 L 454.3,222 L 455.77,221.14 L 456.66,219.04 L 457.23,217.32 L 457.23,215.92 L 457.23,214.15 L 457.23,212.18 L 457.23,211.32 L 457.23,209.38 L 457.23,208.89 L 456.99,208.4 L 456.99,208.64 L 456.99,209.5 L 457.27,211.59 L 457.56,214.08 L 458.21,216.57 L 458.5,218.66 L 459.64,220.41 L 461.19,221.96 L 461.43,222.21 L 461.68,222.21 L 461.92,222.21 L 462.16,222.21 L 462.64,222.21 L 462.64,221.96 L 462.64,221.1 L 462.64,220.85 L 462.64,220.36 L 462.64,220.11" fill="none" stroke="#89d185" stroke-width="2"></path><path d="M 457.77,213.45 L 458.01,213.21 L 458.25,213.21 L 459.97,213.21 L 462.83,212.57 L 466.71,211.22 L 468.59,211.22" fill="none" stroke="#89d185" stroke-width="2"></path><path d="M 473.18,215.25 L 473.18,215.73 L 473.18,216.84 L 473.18,218.55 L 473.18,221.01 L 473.18,223.87 L 473.18,226.73 L 473.18,229.46 L 473.18,230.56 L 473.18,231.05 L 473.18,230.8 L 473.18,228.34 L 473.18,225.47 L 473.75,222.52 L 474.08,220.35 L 474.67,218.26 L 474.93,217.19 L 475.2,215.54 L 475.73,215.01 L 475.73,214.76 L 476.24,213.98 L 476.48,213.73 L 477.71,213.43 L 478.19,213.43 L 478.43,213.43 L 478.92,213.43 L 479.16,213.43 L 479.96,213.96 L 480.2,214.44 L 480.46,215.75 L 480.46,217.5 L 480.46,218.97 L 479.95,219.75 L 479.41,220.85 L 478.9,221.62 L 478.12,221.62 L 477.87,221.86 L 477.09,221.86 L 476.55,221.86 L 476.04,220.84 L 475.77,220.05 L 475.77,219.81 L 476.25,219.81 L 478.71,219.81 L 479.48,220.07 L 480.54,220.61 L 481.03,220.61 L 482.42,220.61 L 482.66,220.61 L 483.68,220.36 L 484.78,218.96 L 485.26,218.47 L 485.77,217.69 L 486.3,217.17 L 486.57,216.64 L 486.57,216.14 L 486.57,215.36 L 486.57,214.87 L 486.57,214.09 L 486.81,214.33 L 486.81,215.11 L 487.09,216.82 L 487.09,217.6 L 487.36,218.37 L 487.93,219.23 L 488.7,219.5 L 489.48,219.5 L 489.96,219.5 L 490.2,219.5 L 490.98,219.5 L 491.22,219.25 L 491.7,218.76 L 492.48,218.24 L 492.72,217.46 L 492.72,216.93 L 492.72,216.19 L 492.72,215.94 L 492.72,216.18 L 492.72,217.29 L 492.72,218.06 L 492.72,218.83 L 492.72,219.36 L 492.72,219.85 L 493.57,221.85 L 494.35,222.36 L 495.12,222.6 L 495.36,222.6 L 495.85,222.84 L 496.38,222.84 L 496.62,222.35 L 496.91,221.24 L 497.43,220.13 L 497.72,218.73 L 498.27,217.33 L 498.55,215.07 L 498.55,213.59 L 499.09,212.52 L 499.09,211.05 L 499.66,209.65 L 499.66,207.88 L 499.66,206.24 L 499.66,205.99 L 499.9,205.75 L 499.9,205.99 L 500.2,208.44 L 500.2,211.3 L 500.2,213.75 L 500.2,215.84 L 500.2,216.9 L 500.2,218.62 L 500.2,219.39 L 500.2,220.17 L 500.2,220.65 L 500.2,220.89 L 501.06,221.42 L 502.86,222.28 L 505.44,222.57 L 506.21,222.57 L 506.45,222.57 L 506.98,222.57 L 507.76,222.03 L 508.24,221.54 L 509.02,220.76 L 509.26,220.51 L 509.52,219.98 L 509.52,219.73" fill="none" stroke="#89d185" stroke-width="2"></path><path d="M 506.59,211.54 L 506.6,211.3 L 507.08,211.78 L 507.61,212.05 L 507.86,212.05 L 511.08,212.05 L 511.57,212.05 L 511.57,212.29" fill="none" stroke="#89d185" stroke-width="2"></path><path d="M 531.46,206.91 L 531.71,207.16 L 532.87,208.32 L 533.35,208.8 L 533.35,209.29 L 533.35,209.53 L 533.35,209.77 L 533.35,210.3 L 533.35,210.05 L 533.35,208.95 L 533.35,207.18 L 533.62,206.64 L 533.86,206.4 L 534.1,206.4 L 534.34,206.4 L 534.34,206.64" fill="none" stroke="#89d185" stroke-width="2"></path><path d="M 532,221.05 L 532,220.52 L 533.06,220.25 L 533.84,219.71 L 534.61,219.71 L 534.85,219.71 L 535.38,219.71 L 535.63,219.71 L 535.63,219.96 L 535.63,219.71 L 535.63,218.07 L 535.63,217.29 L 535.38,217.04 L 535.13,217.04" fill="none" stroke="#89d185" stroke-width="2"></path><path d="M 501.12,211.3 L 501.89,211.3 L 503,211.02 L 504.39,210.75 L 504.87,210.75 L 505.36,210.75 L 506.13,210.75" fill="none" stroke="#89d185" stroke-width="2"></path><path d="M 566.88,209.51 L 567.12,209.51 L 567.89,210.02 L 568.46,211.12 L 568.46,212.84 L 568.77,214.92 L 569.07,217.87 L 569.07,218.93 L 569.38,220.16 L 569.38,220.64 L 570.15,220.37" fill="none" stroke="#89d185" stroke-width="2"></path><path d="M 581.91,219.69 L 581.91,220.22 L 582.15,220.22 L 582.39,220.46 L 582.63,220.95 L 582.63,221.43 L 582.63,222.53 L 582.36,223.3 L 581.87,223.79 L 580.76,224.36 L 580.49,224.89 L 580.49,224.64 L 581.88,223.54" fill="none" stroke="#89d185" stroke-width="2"></path><path d="M 596.13,212.38 L 596.14,211.85 L 596.14,211.6 L 596.91,211.09 L 598.3,210.53 L 599.07,210.26 L 599.85,209.99 L 600.11,209.45 L 600.6,209.45 L 601.37,209.96 L 601.61,210.2 L 601.9,211.92 L 601.9,212.7 L 601.9,214.45 L 601.32,215.84 L 600.71,217.31 L 599.93,218.09 L 599.66,218.62 L 599.41,218.86 L 598.89,219.63 L 599.14,219.63 L 600.77,219.9 L 602.93,219.9 L 604.32,219.9 L 605.43,219.9 L 606.2,219.9" fill="none" stroke="#89d185" stroke-width="2"></path><path d="M 618.22,218.8 L 618.46,218.8 L 618.22,219.91 L 617.11,221.3 L 615.04,223.93 L 613.19,225.81 L 611.35,227.65 L 609.79,228.87 L 609.01,229.38 L 609.54,229.38" fill="none" stroke="#89d185" stroke-width="2"></path><path d="M 628.17,208.95 L 628.41,208.7 L 629.23,207.59 L 631.72,206.32 L 633.17,204.86 L 633.65,204.61 L 634.43,205.14 L 634.96,205.94 L 635.22,207 L 635.22,208.76 L 634.24,210.93 L 633.46,211.7 L 632.68,212.21 L 632.68,211.96 L 632.94,211.43 L 635.03,210.83 L 636.75,210.26 L 637.52,210.26 L 637.76,210.26 L 638,210.26 L 638.25,210.26 L 638.49,210.74 L 638.49,212.13 L 638.49,213.2 L 638.22,214.59 L 637.41,216.22 L 636.9,216.99 L 636.63,217.52 L 635.85,218.03 L 634.45,218.32 L 632.68,218.58 L 631.61,218.58 L 630.83,218.58 L 630.3,218.58 L 630.05,218.82" fill="none" stroke="#89d185" stroke-width="2"></path><path d="M 4.97,161.53 L 5.5,162.39 L 6.03,163.45 L 6.38,165.54 L 7.8,169.74 L 8.45,176.56 L 8.8,180.73 L 9.08,181.59 L 9.08,181.83 L 9.08,181.59 L 8.77,179.49 L 7.83,176.99 L 7.54,174.04 L 7.54,171.95 L 7.25,168.99 L 7.25,167.59 L 7.25,166.2 L 7.78,165.13 L 8.31,164.05 L 9.38,162.98 L 9.64,162.2 L 9.88,161.96 L 10.41,161.96 L 10.66,161.96 L 11.43,161.96 L 11.67,161.96 L 12.8,162.77 L 13.04,163.55 L 13.04,165.3 L 13.04,167.23 L 11.73,168.45 L 11.23,168.93 L 10.08,170.69 L 9.84,170.69 L 9.59,170.69 L 9.34,170.69 L 9.34,169.83 L 9.83,169.83 L 10.31,169.83 L 11.09,169.83 L 12.58,170.66 L 14.45,174.46 L 15.68,176.96 L 16.49,178.35 L 17.35,179.16 L 17.62,179.69 L 17.86,179.69 L 18.1,179.69 L 19.41,179.69 L 20.18,179.69 L 21.04,179.4 L 21.57,179.13 L 21.57,178.89 L 21.03,177.57" fill="none" stroke="#becfda" stroke-width="2"></path><path d="M 20.18,169.18 L 20.71,169.18 L 21.81,169.75 L 23.2,170.3 L 24.27,170.3 L 25.37,170.3 L 26.14,170.3 L 27,170.3 L 28.02,169.52 L 28.52,168.74 L 28.52,168.25 L 28.52,166.48 L 28.52,165.99 L 28.52,164.92 L 28.28,164.14 L 27.79,163.65 L 27.54,163.4 L 27,163.13 L 26.76,163.13 L 26.51,163.13 L 25.73,163.13 L 25.24,163.62 L 24.5,164.1 L 23.98,164.88 L 23.47,165.65 L 23.2,166.18 L 23.2,167.28 L 23.2,168.38 L 23.2,169.16 L 23.2,170.26 L 23.44,171.03 L 24.01,172.42 L 24.79,173.73 L 25.6,174.83 L 25.84,175.07 L 26.61,175.07 L 27.71,175.07 L 29.11,175.07 L 31.03,173.43 L 32.13,172.89 L 32.37,172.64 L 32.94,171.78 L 32.94,171.54 L 32.94,171.29" fill="none" stroke="#becfda" stroke-width="2"></path><path d="M 36.73,160.31 L 36.2,160.58 L 35.13,161.11 L 34.89,161.59 L 34.64,162.08 L 34.64,163.18 L 34.64,164.57 L 34.64,165.63 L 34.64,166.73 L 35.21,167.59 L 35.45,168.37 L 36.23,168.88 L 36.47,169.36 L 37.24,169.89 L 37.73,169.89 L 38.5,169.89 L 39.27,169.89 L 39.76,169.64 L 41.23,169.09 L 42,168.57 L 42.48,168.08 L 42.77,166.97 L 42.77,166.19 L 42.77,164.79 L 42.77,163.68 L 42.77,162.61 L 42.77,161.83 L 42.77,161.09 L 42.77,160.85 L 43.3,160.58 L 43.54,160.82 L 44.34,161.88 L 45.18,163.38 L 45.66,163.86 L 45.9,164.1 L 46.14,164.34 L 46.39,164.34 L 46.63,164.34 L 47.36,164.34 L 47.84,164.1 L 48.37,163.83 L 48.9,162.76 L 49.43,161.98 L 49.43,160.95 L 49.43,159.84 L 49.43,159.35 L 49.43,158.86 L 49.43,158.61 L 49.92,158.61 L 50.16,159.38 L 50.4,160.48 L 50.95,161.88 L 50.95,162.12 L 51.24,163.22 L 51.48,163.46 L 51.72,163.7 L 52.21,164.19 L 52.45,164.19 L 52.98,164.19 L 54.08,164.19 L 54.86,164.19 L 55.63,164.19 L 56.11,164.19 L 56.36,164.19 L 57.13,163.65 L 57.37,163.41 L 58.17,162.6 L 58.41,161.82 L 58.41,160.42 L 58.65,159.93 L 58.65,158.86 L 58.65,157.75 L 58.65,156.68 L 58.65,156.19 L 58.65,155.41 L 58.65,154.87 L 58.65,154.63 L 58.65,154.38 L 58.65,154.13 L 58.12,154.13 L 57.87,154.38 L 57.87,154.86 L 57.87,155.1 L 57.87,155.88 L 58.11,156.12 L 58.36,156.12 L 58.84,156.12 L 59.94,156.12 L 61.39,155.2 L 62.78,154.35 L 63.31,154.08 L 63.8,153.59 L 63.8,153.83 L 63.8,154.61 L 63.8,155.71 L 63.8,156.48 L 63.8,156.96 L 63.8,157.21 L 63.8,157.74 L 63.8,158.22 L 63.8,158.46 L 63.8,158.71 L 63.8,158.95 L 64.04,159.19 L 64.28,159.19 L 64.28,158.95 L 64.28,158.7 L 64.04,158.7 L 63.54,158.7" fill="none" stroke="#becfda" stroke-width="2"></path><path d="M 71.56,152.05 L 71.56,152.29 L 72.09,152.29 L 73.56,152.29 L 75.28,152.29 L 76.05,151.75 L 76.3,151.51 L 76.54,151.26 L 76.78,151.26 L 76.51,151.79" fill="none" stroke="#becfda" stroke-width="2"></path><path d="M 13.84,195.73 L 13.59,195.98 L 13.59,196.22 L 13.59,196.99 L 13.3,198.91 L 13.3,199.4 L 13.3,199.93 L 13.3,200.46 L 13.54,200.95 L 15.01,201.19 L 16.11,201.43 L 17.87,201.43 L 19.26,201.43 L 19.5,201.43 L 19.75,201.43 L 20.23,201.43 L 20.71,201.91 L 21.29,202.77 L 21.29,203.26 L 21.29,204.32 L 21.29,205.42 L 21.29,205.66 L 21.04,206.15 L 20.79,206.15 L 20.55,206.15 L 20.05,206.15 L 18.89,204.98 L 18.64,204.49 L 18.64,204.24 L 18.64,204 L 18.15,203.5 L 18.15,202.48 L 19.99,201.22 L 20.47,200.73" fill="none" stroke="#becfda" stroke-width="2"></path><path d="M 28.01,194.3 L 28.54,194.3 L 29.31,194.54 L 30.13,195.64 L 30.41,196.5 L 30.96,197.89 L 30.96,198.38 L 31.8,199.77 L 31.8,200.3 L 31.8,200.54 L 31.55,200.29 L 30.77,199.51 L 29.27,197.73 L 29.03,197.48" fill="none" stroke="#becfda" stroke-width="2"></path><path d="M 26.81,188.95 L 26.82,188.7 L 27.59,188.7 L 27.83,188.7 L 28.69,188.7 L 28.93,188.95 L 28.4,188.68 L 28.4,187.28 L 28.4,187.03" fill="none" stroke="#becfda" stroke-width="2"></path><path d="M 31.59,193.98 L 32.08,193.74 L 33.55,193.74 L 34.61,194.54 L 36.41,195.7 L 37.88,196.55 L 38.65,197.33 L 38.91,197.86 L 39.69,197.08 L 40.5,195.97 L 40.8,194.2 L 41.38,192.48 L 41.9,190.83 L 42.43,189.43 L 42.43,188.94 L 42.43,188.7 L 42.43,188.94" fill="none" stroke="#becfda" stroke-width="2"></path><path d="M 16.33,195.14 L 15.84,195.39 L 15.59,195.63 L 15.35,195.87 L 14.32,196.14 L 14.07,196.14 L 13.83,196.62" fill="none" stroke="#becfda" stroke-width="2"></path><path d="M 24.34,205.62 L 23.85,205.86 L 23.07,205.86 L 22.29,206.37 L 21.51,206.63 L 20.2,207.61 L 19.09,207.61 L 17.98,207.61 L 17.2,207.86 L 16.95,207.86 L 16.7,207.86 L 16.46,207.86 L 16.99,207.86 L 17.47,207.61 L 17.71,207.61 L 18.25,207.34 L 18.49,207.09 L 18.73,207.09 L 19.75,206.58 L 20.23,206.33 L 21,205.8 L 21.27,205.26 L 22.04,204.75 L 22.57,204.48 L 22.82,204.48 L 22.57,204.48 L 21.79,204.48" fill="none" stroke="#becfda" stroke-width="2"></path><path d="M 50.79,189.22 L 51.27,189.22 L 51.78,189.99 L 52.88,189.99 L 53.37,189.99 L 55,189.99 L 55.77,189.99 L 56.55,189.99 L 57.94,189.72 L 59,189.18 L 59.48,188.94 L 60.02,188.67 L 60.26,188.42 L 60.5,187.64 L 60.5,187.39 L 60.74,186.66 L 60.74,186.16 L 60.74,185.05 L 60.5,184.56 L 60.25,184.32 L 60,184.07 L 59.51,184.07 L 59.02,184.07 L 58.24,183.8 L 57.7,183.8 L 56.92,183.8 L 56.43,183.8 L 55.89,183.8 L 55.11,183.8 L 54.62,183.8 L 53.59,183.8 L 53.35,183.8 L 52.48,184.09 L 51.7,184.59 L 51.21,184.84 L 50.68,185.37 L 50.43,185.61 L 49.89,185.88 L 49.89,186.12 L 49.89,187.13 L 49.89,188.52 L 49.89,189.63 L 50.14,191.09 L 50.42,192.81 L 51.23,193.91 L 51.79,195.3 L 52.27,195.79 L 53.29,196.54 L 54.1,197.64 L 54.58,197.64 L 55.36,198.15 L 56.42,198.41 L 58.5,198.41 L 60.43,198.41 L 62.51,198.41 L 63.61,198.13 L 63.88,197.59 L 63.63,197.59 L 63.39,197.59 L 61.13,197.59" fill="none" stroke="#becfda" stroke-width="2"></path><path d="M 19.32,230.16 L 19.07,230.4 L 18.58,230.4 L 18.34,230.4 L 18.09,230.4 L 17.31,230.4 L 16.53,230.66 L 16.28,231.15 L 15.99,232.25 L 15.99,232.49 L 15.99,233.27 L 15.99,234.61 L 15.99,235.38 L 16.26,236.45 L 16.52,237.22 L 17.3,237.73 L 17.78,238.21 L 18.58,239.01 L 20.29,239.01 L 22.01,239.01 L 23.4,239.01 L 23.88,239.01 L 24.37,239.01 L 24.61,239.01 L 24.85,238.76 L 24.85,238.52 L 24.85,238.02 L 24.85,237.78 L 24.61,237.53 L 24.36,237.04" fill="none" stroke="#becfda" stroke-width="2"></path><path d="M 29.73,225.99 L 29.2,225.99 L 28.95,226 L 28.17,226 L 27.92,226 L 27.43,226 L 26.89,226.26 L 26.36,227.36 L 25.79,229 L 25.5,230.1 L 25.5,230.87 L 25.5,231.36 L 25.5,232.13 L 25.5,232.61 L 25.76,233.14 L 26.29,234.21 L 27.15,234.78 L 27.93,234.78 L 28.7,234.78 L 28.94,234.78 L 29.45,234 L 29.96,233.21 L 29.96,232.43 L 29.96,231.57 L 29.96,231.08 L 29.96,229.43 L 29.96,228.65 L 29.96,228.16 L 29.96,227.91 L 30.2,227.67 L 30.68,227.67 L 31.79,229.06 L 32.36,230.45 L 32.84,230.93 L 33.64,232 L 34.41,232.77 L 34.89,232.77 L 36.82,233.05 L 38.21,233.05 L 38.98,233.05 L 39.75,233.05 L 40.29,233.05 L 40.53,232.81 L 40.53,231.7" fill="none" stroke="#becfda" stroke-width="2"></path><path d="M 39.84,216.05 L 40.37,216.32 L 41.16,218.04 L 42.07,220.98 L 42.66,223.14 L 43.21,224.53 L 43.78,226.29 L 43.78,227.06 L 44.02,227.3 L 44.27,227.3 L 44.51,226.81 L 45.61,225.99 L 46.53,224.54" fill="none" stroke="#becfda" stroke-width="2"></path><path d="M 48.77,216.65 L 49.82,217.26 L 50.13,219.02 L 51.04,221.47 L 51.04,222.86 L 51.59,224.33 L 51.59,224.82 L 52.07,225.06 L 53.3,224.75" fill="none" stroke="#becfda" stroke-width="2"></path><path d="M 66.81,79.53 L 66.81,79.04 L 67.88,78.23 L 69.04,77.31 L 70.75,77.02 L 71.86,76.45 L 72.87,76.45 L 73.73,76.45 L 74.5,76.45 L 75.28,76.45 L 76.05,76.45 L 77.09,77.22 L 77.86,77.73 L 78.37,78.5 L 78.9,79.61 L 79.73,81 L 80.32,83.16 L 80.89,84.92 L 81.43,86.84 L 81.69,87.9 L 81.69,89.99 L 81.69,91.38 L 81.69,93.99 L 81.69,96.16 L 81.69,97.55 L 81.42,99.3 L 80.84,101.02 L 80.84,102.74 L 80.19,104.91 L 79.9,106.99 L 79.59,110.3 L 79.59,112.76 L 79.59,114.52 L 79.59,117.38 L 79.59,120.32 L 79.59,124.03 L 79.59,127.83 L 79.59,130.29 L 79.59,131.75 L 80.45,134.37 L 80.71,135.43 L 81.28,136.82 L 81.77,137.31 L 82.3,137.57 L 82.54,137.82 L 82.78,138.06 L 83.02,138.06 L 83.55,138.06 L 84.04,138.06 L 84.28,138.06 L 84.77,138.06 L 85.25,137.81 L 85.49,137.81 L 86.02,137.54 L 86.02,137.3 L 86.02,136.76 L 85.75,137.29 L 85.24,138.07 L 84.95,139.17 L 84.41,140.27 L 84.14,141.04 L 83.86,142.14 L 83.86,142.92 L 83.86,144.68 L 83.86,145.74 L 83.86,147.46 L 83.86,150.4 L 83.86,152.89 L 83.86,155.39 L 83.86,157.55 L 83.86,159.64 L 83.86,164.13 L 83.86,166.21 L 83.86,167.97 L 83.86,170.46 L 83.86,173.41 L 83.86,176.27 L 83.86,180.47 L 84.84,184.27 L 85.46,187.13 L 86.42,191.63 L 87.38,194.48 L 87.72,199.14 L 88.45,203.35 L 89.51,208 L 90.55,212.17 L 90.89,215.48 L 90.89,217.97 L 91.54,221.28 L 91.84,225 L 91.84,227.49 L 92.17,230.75 L 92.17,233.21 L 92.17,236.07 L 92.17,238.23 L 92.17,242.8 L 92.17,244.52 L 92.17,247.02 L 92.17,249.63 L 92.17,251.71 L 92.17,253.11 L 92.17,254.5 L 92.17,254.98 L 92.17,255.46 L 92.17,256.24 L 91.68,256.72 L 90.61,257.52 L 89.5,257.8 L 87.48,258.64 L 86.41,258.64 L 84.65,258.64 L 82.48,257.98 L 81.7,257.47 L 80.3,256.36 L 78.86,255.21 L 78.08,254.94 L 77.59,254.69 L 77.34,254.45 L 79.59,252.89" fill="none" stroke="#becfda" stroke-width="2"></path></svg>