<svg id="svg" xmlns="http://www.w3.org/2000/svg" viewBox="33.27000045776367 34.060001373291016 543.1199951171875 272.6199951171875" height="272.6199951171875"><path d="M 61.92,58.78 L 61.93,58.54 L 62.17,58.54 L 62.94,58.54 L 65.9,56.53 L 67.45,54.03 L 68.76,51.08 L 69.61,49.35 L 69.9,46.85 L 70.2,45.09 L 70.2,44.3 L 70.2,44.06 L 69.71,44.06 L 69.22,44.06 L 67.82,44.88 L 66.28,47.02 L 64.95,49.96 L 64.95,52.57 L 64.31,55.43 L 64.31,58.38 L 64.31,60.87 L 64.31,63.73 L 64.31,66.59 L 64.31,69.45 L 64.31,71.9 L 64.31,74.39 L 64.31,75.45 L 64.02,76.84 L 63.75,77.62 L 62.97,78.39 L 61.8,79.55 L 60.73,80.08 L 60.2,80.08 L 59.95,80.08 L 59.13,79.22 L 58.35,78.44 L 57.77,76.67 L 57.48,74.95 L 57.48,72.86" fill="none" stroke="#e69533" stroke-width="2"></path><path d="M 58.52,66.98 L 58.79,66.45 L 59.03,66.45 L 59.8,66.45 L 60.57,66.45 L 61.96,66.16 L 62.21,65.91 L 62.69,65.67 L 63.92,65.05" fill="none" stroke="#e69533" stroke-width="2"></path><path d="M 78.94,49.26 L 78.94,49.5 L 78.94,50.04 L 77.75,52.2 L 76.88,53.92 L 76.02,55.64 L 75.4,58.5 L 75.4,60.99 L 75.4,63.44 L 76.05,65.93 L 77.24,67.38 L 78.3,69.02 L 78.54,69.26 L 79.02,69.5" fill="none" stroke="#e69533" stroke-width="2"></path><path d="M 87.26,54.09 L 87.26,55.85 L 87.26,59.11 L 87.26,61.97 L 87.26,64.43 L 87.26,65.2 L 87.26,65.44" fill="none" stroke="#e69533" stroke-width="2"></path><path d="M 96.98,64.06 L 97.23,64.06 L 97.47,64.3 L 97.47,65.08 L 97.47,65.85 L 97.47,66.38 L 96.69,66.91 L 96.2,67.16 L 95.71,67.16" fill="none" stroke="#e69533" stroke-width="2"></path><path d="M 106.98,52.53 L 106.99,52.29 L 107.76,51.75 L 108.54,51.75 L 109.6,51.48 L 110.08,51.48 L 110.86,51.48 L 112.25,51.77 L 113.02,52.3 L 113.79,53.07 L 114.28,53.56 L 114.28,54.62 L 114.28,55.72 L 114.28,56.82 L 113.97,59.11 L 113.72,59.36 L 112.94,60.13 L 112.7,60.37 L 111.91,60.64 L 111.42,60.88 L 111.15,61.41 L 111.15,61.16 L 111.39,61.16 L 112.5,60.92 L 113.56,60.92 L 114.62,60.92 L 115.39,60.92 L 116.17,61.69 L 116.94,62.2 L 117.18,62.68 L 117.18,63.17 L 117.18,64.27 L 117.18,65.04 L 117.18,66.14 L 116.4,66.92 L 115.62,67.43 L 115.13,67.91 L 114.35,68.68 L 114.1,68.68 L 113.61,68.68 L 112.83,68.68 L 111.76,68.68 L 110.98,68.68 L 110.48,68.68 L 110.24,68.68 L 109.99,68.68" fill="none" stroke="#e69533" stroke-width="2"></path><path d="M 123.54,45.12 L 123.79,45.12 L 124.03,45.36 L 126.29,47.02 L 128.19,49.24 L 130.03,51.08 L 131.58,53.57 L 132.76,56.59 L 133.07,58.68 L 133.07,60.77 L 133.07,62.85 L 133.07,63.91 L 132.2,65.63 L 131.07,66.73 L 129.39,68.41 L 127.99,68.96 L 126.59,69.51 L 125.52,69.77 L 125.25,70.3 L 125,70.3 L 124.27,70.3 L 123.73,70.04" fill="none" stroke="#e69533" stroke-width="2"></path><path d="M 90.55,79.52 L 90.31,79.77 L 88.22,83.65 L 85.79,87.46 L 83.76,91.18 L 81.71,94.55 L 80.21,97.86 L 79.31,99.73 L 78.8,100.51 L 78.53,101.28 L 78.26,102.05 L 77.97,102.91 L 77.43,103.42 L 77.19,103.42" fill="none" stroke="#becfda" stroke-width="2"></path><path d="M 59.02,119.32 L 58.16,119.61 L 58.16,119.85 L 58.16,120.63 L 58.67,120.33 L 59.2,119.22 L 59.75,117.75 L 59.75,117.25 L 59.75,115.94 L 59.75,115.16 L 59.75,114.91 L 59.75,114.66 L 59.75,114.42 L 59.75,113.64 L 59.48,113.1 L 59.48,112.86 L 59.23,112.61 L 58.98,112.36 L 58.45,112.36 L 57.67,111.85 L 57.42,111.85 L 56.64,111.85 L 56.39,111.85 L 55.08,112.38 L 54.79,113.48 L 54.5,115.2 L 54.5,116.92 L 54.5,119.08 L 54.5,121.17 L 54.5,122.56 L 54.5,124.64 L 54.5,126.81 L 54.5,127.87 L 53.88,130.49 L 53.88,131.88 L 53.88,133.27 L 53.88,134.66 L 53.88,136.75 L 53.88,137.81 L 53.64,138.58 L 53.64,139.44 L 53.39,139.68 L 53.39,139.93 L 53.39,140.17 L 53.14,140.41 L 52.61,140.41 L 52.34,139.63 L 52.34,139.09" fill="none" stroke="#becfda" stroke-width="2"></path><path d="M 48.88,128.23 L 49.41,128.23 L 49.66,128.23 L 51.05,128.23 L 52.77,128.23 L 54.85,128.23 L 56.77,127.94 L 57.63,127.65 L 58.12,127.4" fill="none" stroke="#becfda" stroke-width="2"></path><path d="M 77.68,113.45 L 77.15,113.72 L 74.1,116.09 L 71.39,119.13 L 67.09,124.81 L 67.09,126.89 L 66.44,132.73 L 66.76,135.59 L 68.21,137.04 L 69.31,137.9 L 70.09,138.41 L 71.1,138.68 L 72.16,138.94 L 72.65,139.18 L 73.13,139.43 L 73.66,139.69" fill="none" stroke="#becfda" stroke-width="2"></path><path d="M 77.77,125.93 L 78.3,125.66 L 79.1,124.86 L 80.82,124.29 L 82.54,123.71 L 83.55,123.71 L 83.8,123.71 L 84.57,123.98 L 84.57,125.73 L 84.57,126.8 L 84.26,129.25 L 82.41,131.09 L 81.9,131.86 L 81.12,132.37 L 80.54,133.23 L 81.64,134 L 84.95,134 L 89.12,134 L 90.51,134 L 91.28,133.48 L 91.04,133.48" fill="none" stroke="#becfda" stroke-width="2"></path><path d="M 95.52,132.75 L 95.77,132.51 L 95.77,133.9 L 95.77,135 L 95.77,137.16 L 95.46,138.92 L 94.92,139.98 L 94.4,140.76 L 94.4,141 L 94.64,140.75 L 95.2,139.36" fill="none" stroke="#becfda" stroke-width="2"></path><path d="M 104.23,125.01 L 104.71,124.52 L 104.96,124.27 L 105.68,123.78 L 106.19,123.25 L 106.43,123.25 L 106.92,123.25 L 107.16,123.49 L 107.69,123.75 L 107.69,124.53 L 107.69,125.63 L 107.42,126.4 L 107.18,126.64 L 106.93,126.89 L 106.93,127.13 L 107.17,127.13 L 108.27,127.13 L 109.74,127.13 L 111.09,127.37 L 111.57,127.37 L 111.84,127.9 L 112.61,128.41 L 112.61,128.65 L 112.88,129.71 L 112.88,130.49 L 112.88,131.26 L 111.77,132.07 L 110.98,132.85 L 109.91,133.11 L 109.13,133.38 L 108.89,133.38 L 108.64,133.38 L 107.86,133.38 L 108.1,133.38 L 108.34,133.13 L 109.12,133.13 L 110.51,132.6 L 111.28,132.06 L 112.91,131.41" fill="none" stroke="#becfda" stroke-width="2"></path><path d="M 115.82,114.92 L 115.82,114.68 L 116.06,114.68 L 117.98,116.88 L 119.21,119.34 L 121.11,123.14 L 121.76,126 L 121.76,128.45 L 121.47,130.54 L 117.15,135.36 L 112.24,138.79 L 103.55,143.95 L 100.23,144.6" fill="none" stroke="#becfda" stroke-width="2"></path><path d="M 80.92,149.66 L 80.68,149.67 L 80.14,150.2 L 77.85,152.49 L 74.69,155.31 L 72.54,156.53 L 70.63,158.76 L 68.4,160.66 L 67.33,161.45 L 66.55,162.2 L 66.55,162.45 L 66.03,163.22 L 66.03,163.7 L 65.79,163.95 L 65.79,164.19 L 65.25,164.72 L 64.98,165.78 L 64.49,166.27 L 63.71,166.77 L 63.44,167.55 L 62.66,168.32 L 62.16,168.8 L 61.92,169.05 L 61.92,169.29 L 61.65,169.82 L 61.16,170.3 L 60.66,170.79 L 60.15,171.56 L 59.61,171.56 L 58.83,171.56 L 57.72,171.56 L 57.19,171.56" fill="none" stroke="#becfda" stroke-width="2"></path><path d="M 50.28,189.16 L 50.52,189.17 L 51.63,188.88 L 52.46,187.48 L 53.07,185.39 L 53.07,182.02 L 53.07,179.45 L 52.15,175.35 L 51.26,173.58 L 50.75,172.8 L 50.25,173.04 L 49.72,174.43 L 49.45,175.82 L 49.14,178.68 L 49.14,181.14 L 49.14,183.59 L 49.14,186.08 L 49.14,191.02 L 49.14,193.88 L 49.14,195.97 L 48.81,198.13 L 48.2,200.59 L 47.64,201.98 L 46.81,203.37 L 45.99,204.47 L 45.5,204.95 L 44.64,204.95 L 44.1,203.88 L 43.56,201.58 L 43.27,199.86 L 43.27,199.32" fill="none" stroke="#becfda" stroke-width="2"></path><path d="M 43.77,191.39 L 44.31,191.12 L 46,192.3 L 46.48,192.3 L 48.57,192.59 L 51.06,192.59 L 52.45,192.59 L 53.84,192.59 L 54.95,192.59 L 55.43,192.59 L 55.91,192.59 L 56.4,192.34" fill="none" stroke="#becfda" stroke-width="2"></path><path d="M 73.72,178.03 L 73.48,178.04 L 72.61,179.5 L 72.3,181.26 L 72.3,183.35 L 72.3,186.21 L 72.3,189.07 L 72.3,191.52 L 72.63,194.38 L 75.3,198.36 L 76.81,200.2 L 78.2,201.3 L 79.59,201.57 L 80.13,201.84 L 80.9,201.84 L 83.84,200.85 L 84.65,199.74 L 84.92,199.21" fill="none" stroke="#becfda" stroke-width="2"></path><path d="M 83.64,184.35 L 83.88,184.11 L 84.41,184.11 L 85.19,184.11 L 86.29,184.11 L 86.82,184.11 L 87.3,184.11 L 87.55,184.11 L 88.32,184.37 L 88.56,185.47 L 88.85,186.86 L 88.85,188.33 L 88.85,189.11 L 88.04,190.17 L 87.8,190.41 L 87.55,190.41 L 87.79,190.41 L 88.89,190.7 L 89.38,190.94 L 89.86,191.42 L 90.39,192.52 L 90.9,193.3 L 90.9,194.4 L 90.9,195.46 L 90.9,196.23 L 90.9,197.63 L 90.38,198.4 L 89.6,198.93 L 87.88,199.79 L 86.85,199.79 L 86.07,199.79 L 85.82,199.79 L 85.33,199.54 L 84.84,199.29 L 84.57,198.76 L 84.32,198.27" fill="none" stroke="#becfda" stroke-width="2"></path><path d="M 99.95,192.9 L 99.95,193.14 L 100.19,193.39 L 100.19,194.45 L 100.19,196.21 L 99.92,197.27 L 98.52,199 L 97.98,199.27 L 97.74,199.27 L 97.49,199.27" fill="none" stroke="#becfda" stroke-width="2"></path><path d="M 108.22,181.66 L 108.75,180.88 L 110.14,180.34 L 112.11,179.52 L 113.82,179.23 L 114.36,179.23 L 114.89,179.23 L 115.37,179.23 L 115.92,180.46 L 115.92,181.85 L 115.92,183.85 L 115.92,184.71 L 114.52,186.05 L 113.41,186.29 L 112.63,186.56 L 112.87,186.56 L 113.11,186.56 L 114.18,186.56 L 115.28,186.56 L 115.76,186.56 L 116.25,186.8 L 117.02,187.33 L 117.29,188.39 L 117.29,189.17 L 117.29,190.93 L 117.29,192.39 L 115.93,194.03 L 115.68,194.27 L 114.04,194.54 L 112.93,194.82 L 111.86,194.82 L 111.08,194.82 L 110.59,194.82 L 109.8,194.82 L 109.56,194.82 L 109.56,194.33 L 109.56,194.08 L 110.09,193.57" fill="none" stroke="#becfda" stroke-width="2"></path><path d="M 120.69,172.31 L 121.18,172.07 L 121.95,172.84 L 123.48,174.99 L 125.97,178.05 L 126.89,180.51 L 127.5,183 L 127.82,185.49 L 127.82,186.59 L 127.21,189.05 L 124.24,191.05 L 117.49,193.16 L 114.91,193.53" fill="none" stroke="#becfda" stroke-width="2"></path><path d="M 87.74,211.09 L 87.99,211.1 L 87.99,211.63 L 87.99,213.1 L 87.7,215.18 L 86.43,217.35 L 85.15,219.84 L 83.37,222.48 L 81.44,224.69 L 80.16,227.18 L 78.61,229.35 L 77.45,230.84 L 76.94,231.61 L 76.16,232.39 L 75.07,234.02 L 74.8,234.55 L 73.99,235.61 L 73.48,236.39 L 72.96,237.16 L 72.69,237.69 L 71.89,238.75 L 71.89,239.24 L 71.64,239.48 L 71.39,239.72 L 71.15,239.72" fill="none" stroke="#becfda" stroke-width="2"></path><path d="M 46.89,245.58 L 46.89,245.82 L 47.16,246.6 L 47.4,246.6 L 48.13,246.6 L 48.66,246.6 L 49.72,246.6 L 51.72,245.2 L 52.03,243.97 L 52.29,243.19 L 52.29,242.41 L 52.29,241.3 L 52.05,239.94 L 51.78,239.16 L 51.29,238.67 L 50.79,238.42 L 50.01,238.42 L 49.77,238.42 L 49.27,238.66 L 48.71,240.05 L 48.71,241.12 L 48.71,243.2 L 48.71,244.96 L 48.71,246.35 L 48.71,249.29 L 48.71,251.79 L 49.32,255.5 L 49.32,257.26 L 49.32,260.12 L 50.24,262.57 L 50.24,265.43 L 50.24,267.89 L 50.24,270.83 L 50.24,273.69 L 49.64,275.85 L 49.09,278.18 L 48.84,278.42 L 48.6,278.66 L 48.06,277.8 L 47.24,275.83 L 47.24,274.96" fill="none" stroke="#becfda" stroke-width="2"></path><path d="M 45.32,261.88 L 45.56,261.64 L 46.58,262.15 L 48.13,263.37 L 49.89,263.37 L 53.6,263.37 L 58.79,261.9 L 63.94,260.42 L 65.1,259.25" fill="none" stroke="#becfda" stroke-width="2"></path><path d="M 75.8,245.3 L 75.8,247.71 L 75.15,250.57 L 74.12,254.78 L 74.12,259.93 L 74.12,263.64 L 74.12,267.98 L 75.65,270.12 L 76.49,271.51 L 77.96,273.02 L 79.88,273.59 L 81.6,273.59 L 83.07,273.59 L 83.6,273.59 L 83.84,273.59" fill="none" stroke="#becfda" stroke-width="2"></path><path d="M 85.45,251.79 L 85.69,251.55 L 85.96,252.08 L 85.96,254.24 L 85.96,256.33 L 85.96,258.09 L 86.26,259.55 L 86.26,260.04 L 86.75,260.52 L 87.54,261.32 L 88.03,261.32 L 89.42,261.59 L 91.14,261.59 L 92.24,261.59 L 93.01,261.59 L 93.25,261.34 L 93.25,261.09 L 93.25,260.6 L 93.25,259.82 L 93.25,258.5 L 93.25,258.26 L 93.25,259.12 L 93.58,262.14 L 93.58,264.59 L 93.88,266.68 L 94.17,268.77 L 94.17,269.87 L 94.17,270.35 L 94.17,270.59 L 94.17,270.84 L 94.17,271.08 L 93.92,271.08 L 93.14,271.08 L 93.14,270.3" fill="none" stroke="#becfda" stroke-width="2"></path><path d="M 105.91,262.36 L 106.15,262.36 L 107.25,263.22 L 107.25,264.29 L 107.25,265.68 L 107.25,266.74 L 104.93,267.94 L 103.2,267.94 L 102.67,267.94" fill="none" stroke="#becfda" stroke-width="2"></path><path d="M 115.88,246.76 L 116.13,246.52 L 116.61,246.27 L 117.67,246 L 121.39,244.79 L 122.45,244.79 L 122.7,244.79 L 123.47,244.79 L 123.71,245.03 L 124.48,246.34 L 124.48,248.09 L 124.48,249.48 L 123.95,251.24 L 122.76,252.69 L 121.98,253.46 L 121.48,253.95 L 121.73,253.95 L 124.3,253.95 L 125.7,253.95 L 126.47,254.46 L 127.27,254.99 L 128.37,255.56 L 128.85,256.04 L 129.12,256.82 L 129.12,258.9 L 129.12,261.6 L 129.12,263.36 L 128.83,264.46 L 127.72,265.58 L 126.65,266.38 L 125.58,267.18 L 124.18,267.18 L 122.54,267.18 L 121.43,267.18 L 121.18,267.18 L 120.93,267.18 L 120.69,267.18 L 120.69,266.93 L 120.69,266.68 L 122.61,265.86 L 123.84,265.24" fill="none" stroke="#becfda" stroke-width="2"></path><path d="M 132.43,237.79 L 134.15,238.11 L 135.99,239.95 L 137.83,241.79 L 139.42,243.96 L 141.02,246.82 L 142.07,251.02 L 142.07,254.74 L 142.07,261.03 L 140.41,264.34 L 137.95,267.4 L 135.58,270.45 L 133.73,272.28 L 132.57,273.2 L 132.32,272.95 L 132.07,272.71 L 132.07,272.21 L 132.07,271.11 L 132.07,270.24" fill="none" stroke="#becfda" stroke-width="2"></path><path d="M 158.38,256.53 L 158.63,256.53 L 160.02,256.53 L 161.78,256 L 166.27,254.38 L 167.13,253.8 L 170.07,252.04 L 171.26,250.58 L 172.11,248.85 L 173.25,247.13 L 174.52,244.95 L 175.4,243.18 L 175.99,241.09 L 176.29,237.77 L 176.29,234.91 L 176.29,229.95 L 176.29,226.64 L 175.64,223.32 L 174.98,221.15 L 174.67,219.05 L 173.85,217.92 L 173.19,215.75 L 172.66,214.64 L 172.1,213.24 L 170.86,210.78 L 169.71,208.52 L 168.52,207.06 L 167.95,205.18 L 167.46,204.69 L 166.96,204.2 L 166.14,203.09 L 165.36,202.3 L 164.01,201.77 L 162.94,201.23 L 162.16,200.72 L 161.66,200.47 L 160.59,200.47 L 159.2,200.18 L 157.8,199.91 L 156.4,199.63 L 154.14,199.63 L 152.41,198.76 L 151.01,198.49 L 149.9,198.49 L 149.66,198.25 L 149.66,198 L 150.52,197.43 L 151.33,196.32 L 152.78,194.86 L 155.39,192.56 L 157.29,190.33 L 158.39,189.51 L 158.63,189.26 L 158.88,189.02 L 157.77,189.3 L 153.59,191.22 L 150.72,192.48 L 147,193.15 L 144.9,194.05 L 143.43,194.6 L 143.43,194.84 L 147.39,198.13 L 150.57,200.9 L 152.88,203.55 L 154.84,206.17 L 157.01,207.72 L 157.82,208.58 L 157.82,208.34 L 157.25,207.47 L 155.64,204.93 L 154.04,202.06 L 152.05,197.39 L 152.05,195.99 L 152.05,195.21 L 151.81,194.96" fill="none" stroke="#89d185" stroke-width="2"></path><path d="M 143.78,180.67 L 144.31,180.68 L 144.55,180.68 L 144.8,180.68 L 146.55,180.37 L 152.39,177.95 L 158.65,175.61 L 165.78,171.42 L 169.95,170.03 L 172.5,168.12 L 173.27,167.34 L 173.51,166.56 L 173.8,164.83 L 174.1,162.74 L 174.1,159.78 L 174.1,157.9 L 174.1,156.83 L 174.1,155.1 L 174.1,153.01 L 174.1,150.51 L 173.28,148.86 L 172.72,147.46 L 171.32,146.36 L 170.79,145.25 L 169.98,144.18 L 168.81,143.01 L 167.74,142.47 L 165.24,141.81 L 162.38,140.83 L 155.99,138.31 L 151.82,136.92 L 148.95,136.27 L 146.49,135.96 L 144.77,135.96 L 142.59,135.36 L 141.81,135.36 L 141.03,135.09 L 139.18,134.11 L 137.79,133.82 L 137.25,133.55 L 137.25,133.3 L 138.23,131.99 L 141.44,128.44 L 142.21,127.93 L 142.98,127.14 L 143.23,126.9 L 143.47,126.65 L 143.47,126.12 L 143.71,125.87 L 143.18,126.14 L 142.31,126.71 L 139.04,128.01 L 136.35,129.77 L 134.59,130.64 L 133.45,131.46 L 133.21,131.7 L 133.47,132.23 L 134.92,133.42 L 136.35,134.85 L 137.86,136.69 L 139.7,138.53 L 140.52,139.92 L 141.29,140.69 L 141.29,140.93 L 141.56,141.71 L 141.8,141.95 L 142.04,141.7 L 142.04,138.51 L 141.71,135.64 L 141.43,134.24 L 140.85,132.48 L 140.6,132.23" fill="none" stroke="#89d185" stroke-width="2"></path><path d="M 130.25,122.91 L 130.49,122.67 L 131.88,122.11 L 134.03,120.88 L 136.48,119.96 L 140.83,117.75 L 144.1,116.43 L 148.45,113.5 L 152.74,110.99 L 155.03,108.36 L 156.99,106.39 L 157.84,104.66 L 158.45,102.2 L 159.1,98.93 L 159.41,96.47 L 159.71,94.38 L 159.71,91.88 L 159.71,89.78 L 159.71,86.46 L 159.71,85.23 L 159.71,82.73 L 159.71,80.96 L 159.71,79.93 L 159.71,78.46 L 159.71,77.92 L 159.18,76.57 L 158.68,76.07 L 158.19,75.58 L 157.41,75.07 L 156.38,74.29 L 155.31,73.75 L 154.2,73.17 L 152.48,72.31 L 150.75,71.45 L 149.64,70.91 L 147.91,70.33 L 146.27,69.77 L 145.75,69.24 L 145.51,69.24 L 145.26,68.99 L 146.42,67.58 L 149.36,65.28 L 151.9,63.68 L 154.84,62.06 L 155.9,60.99 L 155.37,61.26 L 152,62.77 L 148.28,64.09 L 145.78,64.98 L 142.91,66.58 L 141.52,67.15 L 141.27,67.39 L 142.74,69.84 L 144.58,71.72 L 146.13,74.21 L 148.33,78.99 L 149.31,80.3 L 150.41,82.01 L 150.41,81.15 L 148.56,77.79 L 148.56,75.32 L 148.56,73.93 L 148.56,73.06" fill="none" stroke="#89d185" stroke-width="2"></path><path d="M 271.93,93.64 L 271.93,93.89 L 272.25,95.52 L 273.17,98.07 L 273.54,105.3 L 273.54,109.02 L 273.54,111.96 L 273.54,113.71 L 273.54,113.96 L 273.54,113.71 L 273.54,112.48 L 273.54,110.39 L 273.54,108.99 L 273.54,107.22 L 273.54,106.98 L 273.78,106.73 L 274.02,106.73 L 274.51,106.73 L 275.57,106.73 L 276.96,106.73 L 278.35,106.73 L 278.84,106.73 L 279.32,106.73 L 279.85,106.2 L 279.85,105.09 L 279.85,104.3 L 279.85,102.58 L 279.85,101.18 L 279.85,99.45 L 279.85,96.5 L 279.85,95.71 L 279.85,95.18 L 280.38,95.45 L 280.65,95.98 L 280.65,97.08 L 281.26,99.53 L 281.26,101.98 L 281.58,104.84 L 281.89,107.3 L 281.89,111.1 L 281.89,112.86 L 282.42,114.25 L 282.42,114.49 L 282.17,114.73 L 281.93,114.2" fill="none" stroke="#49ace9" stroke-width="2"></path><path d="M 289.11,110.92 L 289.36,110.93 L 289.89,110.93 L 290.37,110.93 L 290.61,110.93 L 290.86,110.93 L 291.1,110.93 L 291.63,110.93 L 292.38,110.14 L 292.64,109.36 L 292.89,109.12 L 292.89,108.63 L 292.89,108.38 L 292.89,107.89 L 292.89,107.64 L 292.89,107.11 L 292.39,107.11 L 291.61,107.11 L 290.83,107.11 L 290.34,107.35 L 289.85,107.35 L 289.6,107.59 L 289.07,108.12 L 288.57,108.61 L 288.57,109.71 L 288.57,110.48 L 288.57,111.01 L 288.57,112.11 L 288.57,113.13 L 288.84,114.19 L 289.32,114.68 L 289.81,115.16 L 290.29,115.64 L 290.78,115.89 L 291.57,116.42 L 292.35,116.66 L 292.83,116.66 L 293.61,116.66 L 294.38,116.41 L 295.15,115.9 L 296.17,115.14 L 296.7,114.03 L 297.18,113.54 L 297.46,112.14 L 297.73,111.07 L 297.73,110.29 L 297.73,109.79 L 297.73,109.26 L 297.73,109.01 L 297.48,108.77 L 297.24,108.77 L 297.72,108.77 L 299.48,108.77 L 302.34,108.77 L 303.64,108.77 L 303.89,108.77 L 304.13,108.77 L 304.13,109.63 L 304.13,110.4 L 304.13,112.12 L 304.13,113.18 L 304.13,114.24 L 304.13,114.73 L 304.13,114.97 L 304.13,115.21 L 304.9,115.72 L 306.29,115.72 L 308.25,115.72 L 309.32,115.72 L 310.42,115.72 L 310.9,115.23 L 310.9,114.12 L 311.14,113.63 L 311.14,112.84 L 311.14,112.35 L 311.14,111.57 L 311.14,111.32 L 311.14,111.08 L 311.14,110.83 L 310.9,110.83 L 310.04,110.83 L 309.79,111.07 L 309.54,111.32 L 309.54,112.38 L 309.54,113.15 L 309.54,114.21 L 309.54,115.52 L 309.54,115.76 L 309.54,116.86 L 310.07,117.37 L 310.32,117.61 L 310.85,117.61 L 311.09,117.61 L 311.86,117.34 L 312.68,116.48" fill="none" stroke="#49ace9" stroke-width="2"></path><path d="M 342.49,111.12 L 342.73,110.87 L 343.22,110.63 L 343.99,110.63 L 344.77,110.63 L 346.4,110.91 L 347.85,112.36 L 348.4,113.75 L 348.4,115.14 L 348.4,117.23 L 348.4,118.33 L 348.4,119.39 L 348.13,119.92 L 347.88,120.16 L 347.02,120.73 L 346.77,120.73 L 346.26,119.95 L 346.26,118.23 L 346.26,116.83 L 346.26,115.35 L 346.54,113.26 L 347.93,112.15 L 350.51,110.71 L 350.75,110.71 L 352.14,110.44 L 353.21,110.17 L 353.98,110.17 L 354.46,110.17 L 354.71,110.17 L 355.24,110.97 L 355.56,113.13 L 355.56,115.22 L 355.56,116.94 L 355.56,118 L 355.8,118.24" fill="none" stroke="#49ace9" stroke-width="2"></path><path d="M 363.84,108.65 L 364.32,108.4 L 366.65,108.4 L 368.04,108.11 L 368.82,107.84 L 369.06,107.84 L 369.06,108.09" fill="none" stroke="#49ace9" stroke-width="2"></path><path d="M 364.4,115.38 L 364.4,115.62 L 364.64,115.62 L 367.13,115.62 L 368.85,115.62 L 370.24,115.62 L 371.63,115.35 L 372.65,115.35 L 372.65,115.59" fill="none" stroke="#49ace9" stroke-width="2"></path><path d="M 385.69,105.87 L 385.44,105.87 L 385.44,105.63 L 386.75,104.64 L 390.55,103.59 L 394.27,102.57 L 396.62,101.75 L 397.15,101.75 L 397.68,101.75 L 398.8,102.56 L 398.8,103.05 L 398.8,104.44 L 398.8,105.21 L 397.29,106.79 L 396.5,107.29 L 395.72,107.82 L 394.94,108.07 L 394.94,108.31 L 396.04,108.31 L 397.43,108.31 L 397.68,108.31 L 399.68,108.31 L 399.92,108.31 L 400.69,108.31 L 401.46,109.32 L 401.71,110.1 L 401.71,110.34 L 401.71,111.93 L 401.71,113.04 L 400.89,114.14 L 399.82,114.93 L 398.05,115.81 L 396.98,116.34 L 395.58,116.89 L 394.18,116.89 L 392.42,116.89 L 391.1,116.89 L 390.32,116.89 L 389.83,116.89 L 389.58,116.89 L 389.58,116.36 L 390.07,116.36" fill="none" stroke="#49ace9" stroke-width="2"></path><path d="M 408.13,85.16 L 408.37,85.16 L 408.9,85.16 L 409.68,85.16 L 411.31,85.16 L 412.41,85.16 L 414.25,87 L 415.11,88.71 L 416.74,91.66 L 417.04,94.11 L 417.04,96.2 L 417.04,98.28 L 416.16,100.37 L 414.13,102.68 L 413.59,103.45 L 413.59,103.98 L 413.59,104.75 L 413.59,105.53 L 413.9,107.29 L 414.7,108.35 L 417.39,110.76 L 419.23,111.74 L 420.01,112.27 L 420.25,112.51 L 420.25,113.04 L 419.98,114.11 L 419.36,116.56 L 418.75,118.32 L 418.4,122.48 L 418.11,124.57 L 418.11,126.66 L 418.11,127.72 L 418.11,129.11 L 418.11,129.88 L 417,131.27 L 415.68,132.05 L 415.15,132.31 L 414.66,132.31 L 414.41,132.31 L 414.16,132.31 L 413.92,132.31 L 413.67,132.31 L 413.14,132.31" fill="none" stroke="#49ace9" stroke-width="2"></path><path d="M 440.09,124.05 L 440.34,124.05 L 441.11,123.52 L 442.48,120.41 L 443.99,115.21 L 444.72,110.02 L 445.45,104.86 L 445.8,101.54 L 446.04,101.54 L 446.04,103.18 L 446.69,108.61 L 447.02,112.82 L 448,115.68 L 448.63,118.62 L 448.91,120.34 L 448.91,120.58 L 448.91,120.82 L 448.91,121.06 L 447.19,121.06 L 446.65,121.06" fill="none" stroke="#49ace9" stroke-width="2"></path><path d="M 441.14,119.43 L 441.38,119.43 L 443.55,119.11 L 445.63,118.8 L 449.88,117.77 L 450.39,116.99 L 450.63,116.75 L 451.16,116.48" fill="none" stroke="#49ace9" stroke-width="2"></path><path d="M 459.42,109.6 L 459.18,109.61 L 458.93,109.61 L 457.82,109.61 L 457.04,109.61 L 456.77,110.38 L 456.77,111.15 L 456.77,111.93 L 456.77,112.99 L 456.77,113.76 L 457.02,114.25 L 457.52,115.02 L 458.59,115.29 L 459.69,115.57 L 460.17,115.81 L 460.7,116.08 L 460.95,116.56 L 460.95,117.66 L 460.95,118.44 L 460.68,120.36 L 459.89,120.89 L 458.82,121.16 L 458.58,121.16 L 457.71,121.16 L 457.47,121.16 L 456.98,121.16 L 456.73,121.16" fill="none" stroke="#49ace9" stroke-width="2"></path><path d="M 495.49,113.81 L 495.49,115.21 L 496.02,115.74 L 496.02,117.99 L 496.02,118.23 L 496.02,118.47" fill="none" stroke="#49ace9" stroke-width="2"></path><path d="M 493.77,104.66 L 493.77,104.41 L 493.77,104.65 L 494.04,105.71 L 494.3,106.49 L 494.57,107.55 L 494.57,107.79 L 494.57,107.55 L 494.57,107.01 L 494.81,106.52" fill="none" stroke="#49ace9" stroke-width="2"></path><path d="M 498.68,112.3 L 498.68,112.05 L 499.16,111.81 L 500.92,111.54 L 502.68,111.54 L 504.4,111.54 L 505.87,111.54 L 506.35,111.54 L 507.45,112.66 L 507.98,114.95 L 507.98,116.67 L 507.98,118.14 L 507.98,118.63 L 507.98,118.87 L 507.74,118.87 L 507.74,118.38 L 507.74,117.14 L 507.74,115.75 L 508,113.45 L 509.45,112.25 L 510.84,111.98 L 512.23,111.7 L 513.95,111.7 L 515.34,112.51 L 516.41,113.04 L 517.29,115.04 L 517.79,115.82 L 518.04,116.3 L 518.04,116.54 L 518.04,117.07 L 518.04,117.56 L 518.04,118.04 L 518.3,118.82 L 519.79,119.35" fill="none" stroke="#49ace9" stroke-width="2"></path><path d="M 526.38,114.78 L 526.39,115.32 L 526.39,118.58 L 526.06,124.87 L 526.06,130.06 L 525.75,132.51 L 525.75,133.61 L 525.75,133.86 L 525.75,133.32 L 525.4,129.6" fill="none" stroke="#49ace9" stroke-width="2"></path><path d="M 525.4,114.14 L 525.4,113.61 L 525.4,113.11 L 525.91,112.33 L 526.68,112.06 L 527.21,112.06 L 527.99,112.59 L 528.47,113.08 L 529,113.85 L 529.82,114.95 L 530.08,115.73 L 530.35,116.5 L 530.35,117.27 L 530.35,118.05 L 530.35,119.44 L 529.57,120.21 L 529.07,120.45 L 527.96,120.7 L 527.18,120.96 L 526.32,120.96 L 525.58,120.96 L 525.34,120.96 L 524.8,120.96 L 524.55,120.96" fill="none" stroke="#49ace9" stroke-width="2"></path><path d="M 536.98,112.8 L 537.29,114.27 L 537.84,115.66 L 538.37,117.58 L 538.67,119.34 L 538.96,120.2 L 539.73,120.7 L 540.21,120.95 L 540.46,121.19 L 540.96,121.72 L 541.45,121.72 L 541.69,121.72 L 541.93,121.72 L 542.42,121.47 L 542.66,120.98 L 543.19,119.91 L 543.46,118.59 L 543.46,118.35 L 543.46,118.1 L 543.46,117.86 L 543.46,116.99 L 543.46,116.5 L 543.46,116.25 L 543.46,116.01 L 543.46,116.25 L 544.27,117.35 L 544.51,118.37 L 545.04,119.47 L 545.52,119.95 L 546.01,120.44 L 546.49,120.92 L 547.3,121.78 L 547.79,122.02 L 548.56,122.27 L 548.8,122.27 L 549.05,122.27 L 549.53,122.27 L 549.77,122.27 L 550.55,122.27 L 551.32,122.27 L 552.09,122.27 L 553.25,121.1 L 554.03,120.83 L 554.8,120.05 L 555.61,118.94 L 556.67,117.29 L 556.67,116.51 L 557.2,115.73 L 557.47,114.95 L 557.47,113.84 L 557.73,113.06 L 557.73,111.99 L 557.73,110.92 L 557.73,109.52 L 557.73,107.88 L 557.73,106.77 L 556.87,105.04 L 556.87,103.64 L 556.58,101.55 L 556.31,100.48 L 556,99 L 556,97.93 L 555.76,97.68 L 555.76,97.93 L 555.76,99.32 L 555.76,101.04 L 555.76,103.53 L 555.76,105.61 L 555.76,108.07 L 555.76,110.15 L 555.76,111.01 L 556.59,113.83 L 557.65,115.46 L 557.65,115.71 L 558.18,116.24 L 558.43,116.72 L 558.93,117.5 L 559.18,117.74 L 559.42,117.98 L 559.66,118.22 L 560.43,118.73 L 562.19,118.73 L 562.96,118.73 L 563.45,118.73 L 564.22,118.73 L 565,118.73 L 566.06,118.46 L 566.3,118.21 L 566.05,117.97" fill="none" stroke="#49ace9" stroke-width="2"></path><path d="M 559.07,107.89 L 559.32,107.89 L 559.85,107.89 L 563.28,107.23 L 565,106.94 L 566.39,106.65" fill="none" stroke="#49ace9" stroke-width="2"></path><path d="M 421.12,112.3 L 421.36,112.3 L 422.13,112.54 L 423.89,112.85 L 425.28,113.13 L 426.67,113.13 L 428.96,113.13 L 429.73,113.13 L 430.27,113.13 L 429.4,113.13 L 428.62,112.89 L 427.14,112.89 L 426.07,112.35 L 425.58,112.35" fill="none" stroke="#49ace9" stroke-width="2"></path><path d="M 250.32,147.55 L 250.32,147.3 L 250.86,147.03 L 251.92,146.5 L 253.31,145.65 L 254.37,144.85 L 254.9,144.85 L 255.68,145.11 L 257.9,147.01 L 259.86,149.63 L 260.47,152.08 L 261.13,156.17 L 261.13,159.03 L 261.13,159.56 L 260.59,161.81 L 259.73,162.38 L 259.23,162.86 L 258.74,162.86 L 258.25,162.86 L 257.47,162.86 L 256.01,161.94 L 253.13,158.01 L 251.4,154.12 L 250.34,147.82 L 250.34,144.55 L 250.62,142.82 L 251.11,142.33 L 251.35,142.33" fill="none" stroke="#49ace9" stroke-width="2"></path><path d="M 264.77,150.16 L 265.3,149.9 L 266.08,150.43 L 267.05,153.37 L 268.63,155.92 L 269.54,158.38 L 270.36,159.77 L 271.16,160.83 L 271.4,160.83 L 271.88,160.83 L 272.95,160.83 L 273.78,159.43 L 274.66,157.66 L 274.66,156.27 L 274.93,154.5 L 274.93,154.25 L 274.93,154.01 L 275.41,153.76 L 276.29,155.85 L 278.43,158.91 L 279.49,159.97 L 279.97,159.97 L 280.48,160.5 L 281.25,160.5 L 283.01,159.66 L 283.81,158.59 L 285.34,154.9 L 285.99,152.03 L 286.32,149.16 L 286.32,146.3 L 286.32,145.23 L 286.32,144.16 L 286.85,144.16 L 287.54,147.46 L 288.21,151.27 L 288.58,155.47 L 289.92,159.64 L 290.49,161.03 L 291.3,162.13 L 291.55,162.38 L 292.65,161.55 L 292.91,160.48 L 292.91,159.38" fill="none" stroke="#49ace9" stroke-width="2"></path><path d="M 285.59,152.05 L 286.07,152.05 L 286.85,152.05 L 288.57,152.34 L 289.43,152.34 L 291.68,152.07 L 294.17,151.45 L 295.93,150.56 L 296.41,150.07 L 296.68,149.54" fill="none" stroke="#49ace9" stroke-width="2"></path><path d="M 301.62,152.28 L 301.37,152.52 L 302.86,154.93 L 303.84,156.24 L 305.84,161.26 L 306.46,164.12 L 307.42,166.98 L 307.42,168.37 L 308.04,169.84" fill="none" stroke="#49ace9" stroke-width="2"></path><path d="M 305.36,153.41 L 305.36,152.68 L 305.36,152.43 L 305.61,151.65 L 306.38,150.34 L 307.77,149.23 L 308.69,148.3 L 310.61,146.66 L 310.85,146.66 L 312.24,147.19 L 313.1,148.66 L 313.38,149.76 L 313.65,151.15 L 313.65,152.46 L 313.65,152.7 L 312.82,154.09 L 312.33,154.57 L 311.3,154.57 L 311.06,154.57 L 310.28,154.57 L 309.79,154.57 L 308.92,154.29 L 308.16,153.5 L 308.16,153.26 L 309.02,153.26" fill="none" stroke="#49ace9" stroke-width="2"></path><path d="M 320.95,149.91 L 320.96,149.66 L 321.28,152.15 L 321.87,154.24 L 323.5,157.5 L 324.04,158.28 L 324.28,158.52 L 324.52,158.76 L 325.29,158.76 L 326.07,158.76 L 326.57,157.98 L 326.86,156.87 L 326.86,154.41 L 326.86,153.34 L 327.72,153.63 L 328.57,155.34 L 329.72,157.1 L 330.82,158.49 L 331.3,158.98 L 332.77,159.59 L 333.55,159.59 L 334.56,159.59 L 335.34,159.07 L 336.73,157.96 L 337.54,156.86 L 338.31,156.07 L 338.88,154.68 L 339.15,153.61 L 339.15,151.51 L 339.15,149.42 L 338.84,146.46 L 338.27,144.73 L 337.96,143.5 L 337.96,143.01 L 338.2,143.25 L 339.46,146.11 L 340.46,149.42 L 341.89,154.08 L 342.93,158.82 L 343.52,162.54 L 343.76,163.02 L 344,163.26 L 345.1,162.13 L 346.3,160.34 L 347.29,157.84 L 347.94,155.96 L 348.18,155.71" fill="none" stroke="#49ace9" stroke-width="2"></path><path d="M 340.66,151.36 L 340.66,151.11 L 341.44,151.11 L 341.68,151.11 L 343.97,151.11 L 346.05,151.11 L 347.45,151.11 L 347.93,151.11 L 348.17,150.87" fill="none" stroke="#49ace9" stroke-width="2"></path><path d="M 374.47,147.98 L 375.28,149.08 L 375.85,149.94 L 376.75,152.88 L 376.75,153.66 L 376.75,154.19 L 376.48,153.65 L 376.21,152.58 L 376.21,151.11 L 376.21,150.86 L 376.21,150.61" fill="none" stroke="#49ace9" stroke-width="2"></path><path d="M 379.16,163.42 L 379.41,163.43 L 379.68,162.89 L 380.16,162.64 L 380.4,162.64 L 381.5,162.64 L 382.28,163.15 L 382.58,164.62 L 382.58,165.15 L 382.58,165.39 L 382.34,165.64 L 382.09,165.64 L 382.09,163.91 L 382.09,163.42 L 382.09,163.17 L 382.33,163.17 L 382.57,163.41" fill="none" stroke="#49ace9" stroke-width="2"></path><path d="M 420.64,158.95 L 420.64,159.19 L 420.96,160.82 L 421.7,165.97 L 423.43,171.41 L 423.43,173.49 L 423.71,174.59 L 423.96,174.84 L 423.71,174.59 L 422.32,170.42 L 421.6,165.75 L 421.27,161.01 L 421.27,156.87 L 421.27,156.09 L 421.27,155.55 L 421.27,155.31 L 421.8,155.31 L 424.75,156.94 L 427.44,159.98 L 430.26,163.13 L 433.41,166.28 L 435.13,167.14 L 435.39,167.67 L 435.64,167.42 L 436.19,166.02 L 436.88,161.81 L 436.88,157.59 L 436.88,154.28 L 436.88,152.88 L 436.88,152.63 L 436.63,152.88 L 436.63,153.12 L 436.63,153.65" fill="none" stroke="#49ace9" stroke-width="2"></path><path d="M 448.4,165.73 L 447.87,166.84 L 447.62,166.84 L 447.62,165.44 L 447.62,162.98 L 448.31,160.03 L 449,156.71 L 449.29,155.31 L 449.29,154.53 L 449.53,154.29 L 449.8,153.75 L 452.18,155.28 L 454.2,159 L 456.65,162.84 L 459.02,165.88 L 460.32,167.18 L 460.59,167.71 L 460.34,167.71 L 460.1,167.71" fill="none" stroke="#49ace9" stroke-width="2"></path><path d="M 448.4,164.8 L 448.93,164.27 L 450.71,163.06 L 452.79,162.44 L 454.55,162.17 L 455.32,161.66" fill="none" stroke="#49ace9" stroke-width="2"></path><path d="M 467.53,155.3 L 467.53,155.83 L 467.8,157.22 L 468.37,159.71 L 468.37,161.11 L 468.67,162.57 L 468.67,163.68 L 468.67,163.92 L 468.11,162.52 L 467.74,158.71 L 467.41,153.35 L 467.41,152.49 L 467.41,150.39 L 467.66,150.15 L 467.9,150.15 L 468.67,150.41 L 470.1,151.84 L 470.98,153.6 L 471.8,154.99 L 472.08,156.71 L 472.08,158.02 L 472.32,158.26 L 472.86,157.99 L 473.39,157.45 L 475.08,154.48 L 476.02,151.98 L 476.81,150.91 L 477.05,151.16 L 477.54,151.64 L 478.42,153.4 L 479.66,155.24 L 479.95,156.96 L 480.56,159.45 L 480.56,162.92 L 480.56,164.64 L 480.56,165.7 L 480.56,165.95 L 480.8,166.19 L 481.04,166.19 L 481.82,166.19 L 482.88,166.19" fill="none" stroke="#49ace9" stroke-width="2"></path><path d="M 488.23,153.09 L 488.48,152.85 L 488.72,152.85 L 488.96,152.85 L 489.23,152.32" fill="none" stroke="#49ace9" stroke-width="2"></path><path d="M 487.82,151.94 L 488.09,152.47 L 488.62,152.73 L 490.25,152.73 L 494.46,152.73 L 499.65,152.73 L 506.43,151.52 L 511.58,150.78 L 514.4,150.41 L 514.64,150.16 L 512.63,150.16 L 510.9,150.16" fill="none" stroke="#49ace9" stroke-width="2"></path><path d="M 494.72,152.42 L 494.48,152.66 L 494.48,152.91 L 494.78,155.23 L 495.13,157.85 L 495.73,160.34 L 496.61,162.43 L 496.89,163.82 L 496.89,164.59 L 497.14,164.83 L 497.4,165.36 L 498.18,165.36 L 499.89,165.36 L 503.16,165.04 L 506.02,164.4 L 508.96,163.41 L 510.02,163.14 L 509.78,163.14 L 509.24,162.61 L 505.43,162.24" fill="none" stroke="#49ace9" stroke-width="2"></path><path d="M 494.51,158.44 L 494.51,157.9 L 497.53,157.57 L 499.29,156.96 L 501.78,156.63 L 502.84,156.09 L 503.33,156.09 L 503.57,155.84" fill="none" stroke="#49ace9" stroke-width="2"></path><path d="M 428.78,191.31 L 429.32,191.85 L 431.76,198.14 L 432.13,200.71 L 432.72,204.02 L 432.72,204.8 L 432.72,205.04 L 432.72,204.5 L 431.77,201.64 L 430.22,195.42 L 429.48,189.73 L 429.48,187.96 L 429.48,187.72 L 430.01,187.71 L 432.87,188.98 L 436.24,191.02 L 439.1,191.96 L 442.04,193.59 L 443.14,194.16 L 444,193.59 L 444.27,193.05 L 444.53,191.29 L 445.22,187.07 L 445.57,183.35 L 446.16,181.25 L 446.16,180.18" fill="none" stroke="#49ace9" stroke-width="2"></path><path d="M 451.37,187.34 L 451.61,188.11 L 451.61,190.6 L 451.61,192.69 L 451.88,194.94 L 451.88,194.4 L 451.88,193.54 L 452.22,189.37 L 453.36,183.68 L 455.24,177.99 L 456.05,176.88 L 456.58,176.61 L 456.82,176.61 L 457.93,177.47 L 459.21,180.01 L 460.54,182.95 L 461.82,185.48 L 462.39,187.24 L 462.63,187.73 L 462.63,187.97 L 462.63,188.45 L 462.63,188.98 L 462.63,189.23 L 461.85,189.23 L 461.61,188.98" fill="none" stroke="#49ace9" stroke-width="2"></path><path d="M 455.15,187.68 L 455.39,187.68 L 456.62,187.68 L 459.56,187.05 L 461.65,186.47 L 463.04,186.18 L 463.28,186.18 L 464.05,186.18" fill="none" stroke="#49ace9" stroke-width="2"></path><path d="M 472.02,186.64 L 472.02,186.89 L 473.63,189.83 L 474.24,191.59 L 474.91,195.3 L 475.18,196.07 L 475.44,196.85 L 475.44,196.6 L 475.11,194.43 L 475.11,191.93 L 475.11,188.66 L 475.11,185.79 L 475.11,185.3 L 475.36,185.3 L 476.13,185.3 L 478.39,186.68 L 479.84,188.13 L 480.7,189.6 L 481.25,190.99 L 481.78,192.09 L 482.02,191.85 L 482.88,190.12 L 484.79,186.31 L 485.57,185.53 L 485.81,185.53 L 486.36,186.92 L 487.54,189 L 488.42,190.76 L 489.38,195.25 L 489.38,196.36 L 489.66,197.21 L 489.66,197.46 L 490.2,196.92 L 490.2,196.68 L 491.03,195.28" fill="none" stroke="#49ace9" stroke-width="2"></path><path d="M 500.48,183.89 L 500.48,183.64 L 501.87,182.8 L 503.26,182.23 L 504.04,181.71 L 504.28,181.46 L 504.52,181.46 L 504.76,181.22 L 505,180.97 L 505.25,180.73 L 505.49,180.48 L 505.73,180.48 L 506.26,179.95 L 505.73,179.95 L 504.5,179.95 L 502.4,179.95 L 499.09,180.59 L 498.06,180.84 L 497.81,180.84 L 497.57,181.08 L 497.57,181.85 L 497.85,183.24 L 498.38,184.3 L 499.24,186.02 L 499.54,187.49 L 499.83,188.88 L 500.42,191.29 L 500.42,191.53 L 500.42,191.77 L 500.66,192.02 L 501.89,192.02 L 505.61,192.02 L 509.32,190.66 L 510.95,190.34 L 514.34,189.37 L 514.34,189.13 L 513.23,189.13" fill="none" stroke="#49ace9" stroke-width="2"></path><path d="M 500.06,186.82 L 500.07,186.57 L 500.31,186.33 L 502.95,184.54 L 505.11,183.62 L 505.35,183.37 L 507.07,182.22 L 507.84,181.71" fill="none" stroke="#49ace9" stroke-width="2"></path><path d="M 432.73,217.21 L 433,216.68 L 433.59,218.77 L 434.28,222.93 L 434.28,226.2 L 434.28,229.91 L 434.28,231.67 L 434.28,231.14 L 434.28,228.56 L 434.28,220.79 L 435.01,215.1 L 435.28,214.56 L 435.52,214.32 L 436.99,214.32 L 441.77,218.12 L 446.06,221 L 447.45,221.83 L 448.84,222.38 L 449.08,222.63 L 449.32,222.63 L 450.51,220.45 L 451.16,217.14 L 451.85,212.92 L 452.99,209.77 L 453.25,208.98" fill="none" stroke="#49ace9" stroke-width="2"></path><path d="M 458.85,214.49 L 458.85,214.74 L 458.85,217.23 L 458.85,220.5 L 458.52,223.76 L 457.87,227.03 L 457.87,228.13 L 457.87,228.66 L 458.17,227.18 L 459.52,223.46 L 460.62,218.3 L 463.07,211.43 L 464.76,208.46 L 466.21,210.91 L 467.63,215.57 L 467.96,218.43 L 467.96,220.15 L 468.24,221.54 L 468.24,222.31 L 468.24,222.55 L 468.24,223.09 L 467.13,223.09 L 465.73,223.09 L 464.09,223.09" fill="none" stroke="#49ace9" stroke-width="2"></path><path d="M 463.84,223.09 L 464.09,223.09 L 465.72,223.09 L 468.58,222.45 L 472.29,221.08 L 476.87,219.44 L 477.64,218.92" fill="none" stroke="#49ace9" stroke-width="2"></path><path d="M 477.64,214.73 L 477.91,215.26 L 477.91,217.35 L 478.94,221.51 L 479.23,223.23 L 479.47,224.7 L 479.47,224.94 L 479.47,224.41 L 479.47,223.18 L 479.47,219.37 L 480.1,214.41 L 481.24,212.98 L 481.48,212.98 L 481.97,212.98 L 483.03,213.24 L 483.93,215.33 L 484.52,218.64 L 484.76,219.41 L 485,219.17 L 486.62,215.76 L 489.04,211.94 L 490.23,210.48 L 490.47,210.23 L 491,210.23 L 491.24,213.74 L 491.24,216.2 L 491.24,219.14 L 491.24,221.22 L 491.51,222 L 491.77,222.53 L 492.02,222.53 L 492.5,222.53 L 493.36,222.53 L 494.13,222.53 L 494.38,222.53" fill="none" stroke="#49ace9" stroke-width="2"></path><path d="M 502.3,211.5 L 502.55,211.25 L 502.79,211.25 L 505.73,211.25 L 509.41,210.95 L 510.86,210.02 L 511.1,209.78 L 510.86,209.78 L 507.99,209.78 L 503.77,210.51 L 499.11,211.59 L 496.61,211.91 L 495.83,212.18 L 495.83,212.42 L 496.6,212.42 L 497.09,212.66 L 498.19,213.23 L 498.96,213.74 L 500.02,214.54 L 500.84,215.64 L 502.16,217.23 L 503.45,219.77 L 504.02,221.53 L 504.02,222.92 L 504.55,223.98 L 504.79,223.98 L 506.88,222.79 L 509.74,221.5 L 513.58,219.37 L 515.05,218.81 L 515.29,218.57 L 515.04,218.57 L 513.57,218.57 L 512.7,218.57" fill="none" stroke="#49ace9" stroke-width="2"></path><path d="M 507.4,216 L 507.4,215.46 L 507.93,214.93 L 512.24,212.43 L 517.17,209.02 L 520.88,207.66" fill="none" stroke="#49ace9" stroke-width="2"></path><path d="M 263.09,241.56 L 263.34,241.57 L 264.11,241.57 L 266.73,241.57 L 272.41,241.57 L 283,241.57 L 291.62,239.43 L 295.26,238.66 L 295.79,238.39 L 295.54,238.39 L 294.31,238.39" fill="none" stroke="#b180d7" stroke-width="2"></path><path d="M 284,238.09 L 283.75,238.34 L 283.75,239.2 L 284.04,241.29 L 285.48,245.94 L 285.81,250.15 L 286.46,255.05 L 286.46,255.82 L 286.46,256.06 L 286.46,255.57 L 286.46,255.04 L 287.07,253.8" fill="none" stroke="#b180d7" stroke-width="2"></path><path d="M 306.47,241.67 L 306.47,241.43 L 305.61,242 L 305.34,242.77 L 305.34,244.86 L 305.01,247.35 L 305.01,250.21 L 305.01,251.93 L 305.25,253.39 L 306.8,255.56 L 308.11,256.6 L 309.5,256.89 L 312.81,256.89 L 314.53,256.89 L 315.92,256.62 L 316.16,256.37 L 316.16,256.13 L 316.16,255.05" fill="none" stroke="#b180d7" stroke-width="2"></path><path d="M 331.11,246.57 L 331.11,246.32 L 331.6,246.32 L 334.21,246.32 L 337.52,246.32 L 342.67,246.32 L 348.35,246.32 L 354.03,246.32 L 357.74,246.32 L 358.6,246.32 L 358.84,246.08 L 358.84,245.3 L 358.33,244.52 L 357.1,242.96 L 356.25,241.56 L 354.46,239.18 L 354.22,238.68 L 353.97,237.9 L 353.97,237.66 L 354.5,237.92 L 356.59,238.54 L 360.3,239.53 L 367.04,241.65 L 370.48,243.04 L 371.34,243.32 L 372.09,244.09 L 371.84,244.09 L 369.34,245.36 L 367.16,246.95 L 365.69,247.57 L 364.19,249.34 L 362.34,251.18 L 361.52,252.82 L 361.52,250.48 L 362.46,247.04 L 363.44,243.23 L 363.44,241.22" fill="none" stroke="#b180d7" stroke-width="2"></path><path d="M 397.88,243.98 L 399.1,241.48 L 399.67,239.71 L 400.48,238.61 L 401.25,238.36 L 402.11,237.79 L 402.89,237.79 L 403.37,237.79 L 405.62,238.89 L 406.72,239.7 L 408.17,241.15 L 408.76,243.23 L 409.05,244.63 L 409.33,246.34 L 409.33,247.45 L 409.33,249.73 L 409.33,251.82 L 408.73,253.91 L 408.24,254.39 L 407.05,255.84 L 406.56,256.32 L 406.07,256.81 L 405.82,257.05 L 405.57,257.29 L 405.08,257.29 L 404.84,257.29 L 403.77,257.29 L 401,254.77 L 399.8,252.68 L 398.94,250.95 L 398.36,249.18 L 397.83,248.11 L 397.56,247.04 L 397.56,246.26 L 397.56,244.17 L 398.13,243.06 L 398.7,241.29 L 399.21,240.51 L 399.71,239.73" fill="none" stroke="#b180d7" stroke-width="2"></path><path d="M 422.28,237.58 L 422.29,237.82 L 422.29,239.91 L 421.32,242.77 L 420.64,246.48 L 420.64,251.42 L 420.64,254.36 L 422.32,257.75 L 424.21,259.98 L 427.18,261.67 L 430.18,262.89 L 430.66,262.89 L 430.91,262.89 L 431.68,262.89" fill="none" stroke="#b180d7" stroke-width="2"></path><path d="M 434.55,249.6 L 435.08,249.07 L 435.61,249.07 L 436.71,249.07 L 438.35,249.07 L 439.74,249.07 L 440.72,250.62 L 441.52,251.68 L 441.52,253.44 L 441.52,254.21 L 441.52,254.7 L 441.52,254.45 L 441.52,253.91 L 441.52,251.74 L 441.52,250.02 L 441.76,248.54 L 442.86,247.14 L 443.96,246.32 L 444.73,246.07 L 445.22,245.83 L 445.46,245.83 L 445.95,245.83 L 446.72,246.07 L 447.23,247.7 L 447.23,249.09 L 447.23,249.95 L 447.23,251.3 L 447.23,251.78 L 447.23,252.88 L 447.51,253.98 L 447.75,254.76 L 448.29,255.02 L 448.77,255.27 L 449.54,255.27 L 450.97,254.4 L 451.5,253.33" fill="none" stroke="#b180d7" stroke-width="2"></path><path d="M 454.42,234.59 L 454.42,234.83 L 455.87,236.28 L 458.04,237.83 L 459.41,240.12 L 460.3,242.21 L 460.96,245.07 L 460.96,247.52 L 461.26,248.75 L 461.26,251.44 L 460.73,252.54 L 459.5,254.09 L 453.24,255.82 L 450.13,256.98" fill="none" stroke="#b180d7" stroke-width="2"></path><path d="M 521.83,223.83 L 522.07,223.83" fill="none" stroke="#b180d7" stroke-width="2"></path><path d="M 295.79,275.01 L 295.54,275.01 L 293.45,274.41 L 291.28,274.08 L 290.17,273.79 L 289.68,273.79 L 289.18,273.55 L 288.94,273.55 L 288.45,273.55 L 287.66,273.55 L 287.17,273.79 L 286.1,274.59 L 285.28,275.69 L 285.04,276.17 L 285.04,277.27 L 285.57,279.03 L 285.83,279.8 L 286.64,280.91 L 287.15,281.68 L 287.93,282.19 L 288.19,282.72 L 289.5,282.96 L 290.89,283.25 L 292.61,283.53 L 293.38,283.77 L 293.91,283.77 L 294.68,284.04 L 295.17,284.28 L 295.65,284.52 L 296.16,285.05 L 296.93,285.56 L 296.93,286.09 L 296.93,286.87 L 296.93,287.93 L 296.93,288.7 L 296.69,289.19 L 296.44,289.96 L 295.95,290.45 L 295.46,290.69 L 294.96,290.93 L 294.47,291.17 L 293.94,291.17 L 293.16,291.17 L 292.05,291.17 L 290.65,291.17 L 290.16,290.93 L 289.91,290.93 L 289.15,290.14 L 288.63,289.36 L 287.56,288.56 L 287.32,288.31 L 287.32,288.07 L 288.42,288.07 L 288.95,288.07" fill="none" stroke="#b180d7" stroke-width="2"></path><path d="M 312.33,271.7 L 312.09,271.7 L 311.55,271.96 L 310.15,272.52 L 309.04,272.8 L 308.26,273.31 L 308.02,273.31 L 307.44,274.17 L 307.17,275.76 L 307.17,276.62 L 307.17,278.71 L 308.15,282.43 L 309.4,284.27 L 310.01,285.49 L 313.16,288.35 L 315.25,289.25 L 317.86,289.52 L 319.58,290.37 L 322.03,290.68 L 323.79,290.94 L 324.56,290.94 L 324.8,290.94 L 324.02,290.94 L 323.53,290.94" fill="none" stroke="#b180d7" stroke-width="2"></path><path d="M 341.84,281.89 L 342.37,281.89 L 347.52,281.89 L 354.88,281.89 L 361.66,281.89 L 371.55,281.89 L 378.34,281.89 L 383,281.89 L 383.53,281.62 L 381.68,280.37 L 380.37,279.05 L 374.63,275.2 L 371.58,272.83 L 371.01,271.96 L 370.52,271.47 L 370.76,271.47 L 373.62,273.07 L 376.93,274.37 L 382.77,277.15 L 388.08,279.78 L 392.41,281.17 L 393.52,281.74 L 394.09,282.6 L 393.84,282.6 L 390.46,283.98 L 386.04,287.66 L 381.87,291.83 L 380.68,293.92 L 380.14,295.02 L 380.38,294.77 L 382.47,293.87 L 384.1,293.87" fill="none" stroke="#b180d7" stroke-width="2"></path><path d="M 410.73,281.97 L 410.73,281.44 L 411.02,280.33 L 411.79,279.55 L 413.57,278.05 L 414.67,277.8 L 415.45,277.56 L 415.69,277.56 L 416.17,277.56 L 417.23,278.36 L 419.52,280.64 L 420.14,282.4 L 420.42,284.49 L 420.42,285.88 L 420.42,287.96 L 420.42,290.05 L 418.43,293.03 L 417.63,293.83 L 417.38,293.83 L 416.6,294.34 L 416.36,294.34 L 415.57,294.34 L 413.02,293.41 L 411.74,291.24 L 410.8,288.74 L 410.51,287.01 L 410.51,286.23 L 410.51,285.45 L 410.51,285.2 L 411.61,284.07 L 412.38,284.07 L 413.45,284.07 L 413.98,284.07" fill="none" stroke="#b180d7" stroke-width="2"></path><path d="M 437.19,275.61 L 436.66,275.61 L 434.48,276.42 L 433.41,277.48 L 432.42,279.32 L 431.44,282.18 L 431.44,284.64 L 431.44,287.09 L 432.74,290.36 L 435.03,292.97 L 436.87,294.81 L 439.36,295.7 L 441.52,296.36 L 442.63,296.36 L 443.16,296.36 L 443.93,296.36" fill="none" stroke="#b180d7" stroke-width="2"></path><path d="M 449.33,283.88 L 449.33,283.64 L 449.82,283.14 L 451.21,282.88 L 453.35,281.95 L 455.84,281.66 L 457.6,281.09 L 458.46,281.09 L 458.95,281.09 L 459.48,281.62 L 460.05,283.34 L 460.37,287.05 L 460.37,288.45 L 460.37,288.69 L 460.37,289.17 L 460.13,289.41 L 459.86,289.95 L 459.61,289.7 L 459.61,289.16 L 459.07,287.19 L 459.07,285.79 L 459.07,283.29 L 460.18,281.89 L 463.44,280.25 L 465.89,279.33 L 467.61,278.75 L 469.08,278.75 L 469.86,278.75 L 470.1,278.75 L 470.61,279.28 L 471.18,282.27 L 471.18,285.21 L 471.18,286.43 L 471.18,288.19 L 471.18,288.43 L 471.18,288.68 L 471.71,288.68 L 474.57,288.68 L 476.29,288.1 L 476.82,287.56" fill="none" stroke="#b180d7" stroke-width="2"></path><path d="M 477.42,266.2 L 477.66,266.21 L 480.79,268.59 L 483.65,271.45 L 490.8,279.38 L 493.43,284.18 L 494.09,285.81 L 494.09,291.16 L 493.78,292.39 L 490.09,296.06 L 488,296.68 L 486.23,296.68" fill="none" stroke="#b180d7" stroke-width="2"></path></svg>